<?xml version="1.0" encoding="UTF-8"?>
<svg id="Layer_1" data-name="Layer 1" xmlns="http://www.w3.org/2000/svg" viewBox="0 0 325.28 686.89">
  <defs>
    <style>
      .cls-1 {
        fill: #fff;
      }

      .cls-2 {
        fill: none;
      }

      .cls-3 {
        fill: #eee6d4;
      }
    </style>
  </defs>
  <path class="cls-2" d="M256.45,281.2c-.4-.8-.79-1.29-.59-2.31-1.46-1.49-6.59,4.5-7.51,5.78,1.9.13,3.98-.31,5.82.26,2.09.65,5.01,4.43,7.78,4.96,1.36.26.62-.87.29-1.74-2.37-2.48-4.1-3.59-5.79-6.95Z"/>
  <path class="cls-3" d="M280.17,311.89l4.05,9.84c-2.37-1.49-2.31-5.3-4.05-6.95-.1-.64-1.25-2.86,0-2.89Z"/>
  <path class="cls-3" d="M288,281.2l-11.29-4.04c3.71.1,7.64.71,10.99,2.31.19.47,1.16,1.31.29,1.73Z"/>
  <path class="cls-3" d="M20.59,220.98c4.28-4.26,12.64-6.14,18.55-6.39.84-.04,1.68-.12,2.33.56,1.68,2.34-2.26,3.78-3.91,4.28-3.46,1.05-7.14,1.04-10.71,2.61-4.01,1.76-9.73,6.36-11.19,10.53-1.51.21-1.18-.17-1.09-1.38.61-8.1,5.85-12.21,7.92-18.75,2.97-9.36,6.77-17.82,11.59-26.59,2.46-4.49,8.91-11.64,10.2-15.27,3.59-10.1,6.32-21.58,13.06-30.36,1.93-2.52,3.35-1.98,4.9-3.2,2.23-1.77,7.85-8.99,10.17-10.09,1.23-.58,3.03-.52,4.6-1.19,8.93-3.81,13.51-6.96,23.3-9.69,5.16-1.44,4.3-2.66,7.66-5.66,3.39-3.03,5.75-2.74,9.38-4.51,6.01-2.94,12.02-9.06,18.27-11.83,1.47-.65,2.48-.6,3.9.14.37-.47-1.57-8.3-2.28-8.95-.8-.73-2.49.32-4.89-3.26-4.08-6.07-3.13-9.89-5.41-15.44-.87-2.13-6.4-4.04-2.02-6.76l-.44-2.07,2.31,1.15c-.53-2.75-.83-5.58-.57-8.39.74-8.11,6.11-23.97,13.7-27.98,2.27-1.2,13.24-6.02,15.23-6.24,3.44-.38,4.95-.04,9.01-.78,2.04-.37,10.71,2.38,13.6,3.12,5.1,1.31,12.14,7.35,15.43,11.48,1.37,1.72,4.92,15.5,5.23,18.22.35,3.04-.19,5.31-.42,8.25l2.3-1.74c-.06,1.23.18,2.51-.02,3.74-.86,5.22-2.17,9.47-3.75,14.78-.9,3.02-.26,5.26-2.56,7.86-.69.78-2,1.19-2.32,1.87-1.09,2.34-.96,7.37-2.46,10.71-1.61,3.55-5.88,6.45-4.8,10.82,3.8,3.63,6.72,8.92,10.34,12.56,2.69,2.7,6.26,4.39,9.07,6.85,5.66,4.96,10.79,10.36,16.47,15.37l14.76,13.01-1.12.49-13.33-10.63c-.76.81,8.75,10.16,7.52,11.57-5.59,2.07-11.46,2.33-17.36,2.91l12.45,13.31-3.18-11.57c1.11-.2,1.57.18,2.35.83,2.03,1.67,6.65,11.39,7.77,14.23,4.05,10.35,1.18,22.81.31,33.87-.28,3.59,1.24,9.04-1.74,11.28l-2.33-35.32-5.81,13,2.36,31.27-.6,2.62-.58-2.89c.52,6.69-1.57,12.69-1.42,19.39.13,5.7,1.83,11.76,2.01,17.35.21,6.23-1.22,12.76-.6,19.13.34,3.51,2.22,7.1,2.32,10.71l1.15-2.31c-.76,4.74.9,9.21,1.16,13.89l-1.15-1.15c-.94,6.26,1.19,12.82,1.19,18.81,0,3.24-1.4,5.78-1.19,8.97l1.75-7.21-.59-18.84,1.18,9.53c1.28,8.93-2.47,16.58-2.33,25.21l5.16-19.44c4.55-19.92,1.99-39.9,2.92-59.61.53-11.36,2.33-20.46,2.32-32.38-.01-9.45.33-18.98.05-28.42-.26-8.42-2.05-18.37-1.76-26.6.02-.62.25-3.14,1.15-3.19.96,3.72.28,7.54.59,11.28.06.7.22,3.1,1.15,3.19.35-4.53,2.23-9.24,2.84-13.66.29-2.08.73-6.38.19-8.17-1.04-3.45-4.79-6.24-5.33-10.01.91-1.03,6.04,7.42,6.46,8.29,6.07,12.44,6.87,24.91,10.13,37.93.93,3.72,3.51,9.52,3.93,12.75.31,2.38-.45,6.11.6,8.78,3.88,2.81,7.05,4.69,9.67,8.86,1.14,1.82,5.07,10.03,5.54,11.83.62,2.43-.03,5.41-.35,7.85,2.02,2.44,4.93,3.91,6.76,6.58,2.76,4.04,3.57,8.65,5.3,12.93-3.48-4.11-6.48-11.01-10.41-15.36-1.96-2.17-5.7-4.3-7.53-6.96-.99-.45-8.13,6.68-12.33,5.41-1.43-.43-2.07-1.8-.98-3.06,1.31-1.5,12.88-6.91,15.18-7.46.91-.22,1.32-.18,2.16.21.79-1.16-4.19-9.92-5.2-11.29-3.12-4.2-14.06-10.98-15.62-14.48-.11-.25-.15-.95.28-.86l5.5,4.63c1.11-4.55-1.44-7.41-2.47-11.13-1.28-4.62-3.58-12.13-4.33-16.51-.55-3.21.17-6.8-.29-10.14-.55-4.04-3.27-7.96-3.91-12.02l-6.32,21.05.55,10.79,2.59-4.64c1.31-2.6,1.93-7.59,3.48-9.83.6-.87,1.39-.12,1.44.3.03.23-.53,3.83-.65,4.55-.55,3.35-2.35,7.53-3.88,10.59-.58,1.16-3,3.7-3,3.95v13.61c4.1-.07,7.5-.52,10.96,2.06,1.81,1.35,2.57,2.23.25,3.66-3.38-1.62-7.46-1.84-11.2-2.25.11,3.78,1.51,7.24.58,11l1.15-.59c.5,3.09.48,5.6,0,8.69,3.94-1.44,8.41-1.19,12.29-1.88,3.81-.68,8.22-3.98,11.43-.71.4,1.72-3.79,2.34-5.04,3.05-1.06.61-8.41,5.62-8.69,6.07-.4.63-.24,1.98-.79,2.97-.88,1.61-4.93,7.82-5.09,8.87-.11.73,2.67,4.88,3.4,5.95-1.21-1.14-2.34-2.25-3.47-3.47.09,3.62-1.07,6.18,2.57,8.14l2.34,4.01,3.76-2.6c0-.38-4.06-3.74-4.65-4.63-.39-.58-.42-1.26-.55-1.45,2,1.88,4.09,3.72,6.07,5.63,1.18.09,4.18-2.64,5.37-3.16,2.03-.88,4.74-.87,6.62-1.49,2.67-.88,5.35-3.07,8.56-2.72l-7.73,2.97-9.63,8.32.11.77c1.87.03.72,1.99,1.05,2.99-.4-.8-.79-1.29-.59-2.31-1.46-1.49-6.59,4.5-7.51,5.78,1.9.13,3.98-.31,5.82.26,2.09.65,5.01,4.43,7.78,4.96,1.36.26.62-.87.29-1.74,1.38,1.45,3.78,2.8,4.05,5.21l-1.12-.57c-.13,2.21-2.08,3.13-3.18,4.66-.92,1.27-1.55,3.83-2.89,4.64-1.74,1.05-4.13-.33-4.37,1.4l8.97,10.72c.85-1.31-1.2-2.15-1.18-3.52.1-5.46,8.66-3.86,11.87-7.19l-1.14-2.03c.27-.31,1.31,1.26,1.75,1.48,2.17,1.08,10.63-7.57,12.87-8.57,2.54-1.14,2.99.17,2.47,2.46-1.5,6.5-15.87,14.81-22.3,16.22-.15.99,1.38.62,2.01.57,3.61-.3,7-1.81,10.14,1.16.49,3.18,1.31,9.45,1.22,12.47-.04,1.21-1.44.53-1.18,1.63.52,2.19,7.49,8.12,8.07,11.37.96.16.63-1.41.6-2.04-.22-5.15-.19-9.6,2.25-14.49,2.94-5.88,16.06-5.94,21.44-3.73.43-.52-5.52-10.69-6.26-11.97-4.52-7.82-9.84-17.83-14.91-25.04-1.48-2.11-1.31-2.38-3.71-3.52-1.36-3.34-3.77-6.28-5.21-9.84,3.07,3.63,3.68,6.31,5.53,8.65,2,2.54,5.1,3.73,8.02,8.19,6.22,9.5,14.71,24.86,18.07,35.28.37,1.14,1.57,2,1.91,3.79,1.68,8.7-.12,10.73-2.6,18.17-.45,1.35,0,2.82-.55,4.08-.43.97-2.09,1.56-2.87,2.35-.58.59-.6,1.78-1.03,2.14-.41.34-9.48,3.5-10.02,3.59-3.83.64-6.12-1.5-9.54-1.37-2.82-5.49,4.52-6.16,8.11-6.99-1.22-1.39-3.07-.64-4.66-1.13-1.85-.57-11.46-12.46-12.96-14.82-1.38-2.17-1.65-4.63-3.48-6.94-3.37-4.25-8.09-4.09-11.89-7.21-3.19-2.63-7.36-8.9-10.71-12.45-6.12-6.48-12.44-12.87-18.79-19.12.83,4.98-.06,9.85-.37,14.86-.08,1.34.5,2.82.36,4.52-.81,9.93-4.28,13.76-.89,24.65.42,1.36,2.21,3.02,2.91,4.62,7.4,16.68,9,39.88,12.06,58,.86,5.09,4.59,17.56,4.41,21.56-.14,3.24-3.23,7.31-4.61,10.17l-8.08-6.23c-1.41-6.95-3.22-13.87-4.47-20.86-2.21-12.38-2.79-27.04-5.64-38.94-.96-3.99-3.63-7.49-4.37-11.55-.6-.54-2.57,1.43-2.78,2.15-.52,1.74.92,8.98,1.07,11.43.37,5.79,1.38,12.44,1.49,17.88.21,9.58-2.21,19.51-2.61,29.09-.01.27.99.17,1.09.63.94,4.23,1.11,3.52,2.36,6.81.81,2.15.9,12,.5,14.48-.32,2.02-2.17,2.82-2.29,4.1-.09.93.59,2.24.61,3.44.25,14.26.12,28.99-3.07,42.72-.55,2.37-1.56,7.7-2.57,9.55-.77,1.43-2.33.89-2.52,1.69-.3,1.23.16,3.56.02,5.11-.63,7.15-1.06,15.87-2.15,22.76-1.27,8.03-4.95,15.88-6.94,23.73-4.38,17.36-5.47,35.85-9.13,53.4-1.21,5.81-3.37,15.83-5.53,21.11-.58,1.43-1.7,2.58-2.92,3.45-2.53,1.81-10.74,3.42-10.98,5.85.91,3.43,2.77,5.37,2.31,9.22-.09.72-1.08,1.42-.86,2.04.42,1.2,5.17,9.04,6.19,10.62,3.58,5.5,5.53,5.95,7.87,12.98.4,1.19,1.09,3.02,1.34,3.88.55,1.92,1.37,6.24-.62,7.27l-.59-5.21c-11.34,7.63-28.55,6.59-38.68-2.7l-2.4-4.83c-.25,9.34,7.16,12.54,14.32,16.11,9.38-.27,17.82-.97,26.77-3.95-.59.91-.39,2.52-1.15,3.18-.35.3-7.76,2.75-8.65,2.93-8.94,1.8-19.68-1.38-26.84-6.8-5.61-4.25-3.75-5.23-6.07-10.72-1.93-4.58-3.17-2.35-6.63-3.21-.99-.25-6.06-3.15-7.08-3.92-.59-.44-3.53-3.28-3.79-3.73-1.41-2.45.11-10.23-.57-13.9-.34-1.82-3.17-4.73-2.87-7.26,1.16,1.38,3.91,5.44,4.36,6.92.61,2.04-.29,4.47,0,5.27.51,1.37,4.36,3.79,5.91,3.92,1.93.16,9.78-4.91,12.9-5.95,7.5-2.49,17.81-3.58,25.44-1.47.5-.58-.53-5.1-1.13-5.96-.45-.64-1.43-.72-1.79-1.23-1.46-2.05-2.46-5.75-4.93-7.83-.96-.81-3.59-.91-3.14-2.05,1.25-3.21,9.38-.7,11.92-.36,1.13.15,2.27-.05,3.4.08.72.08,1.42,1.07,2.04.85,4.31-1.53,5.92-6.88,7.12-10.85,5.89-19.61,6.54-40.65,12-60.37-.62-.93-.69.45-.86.87-3.35,8.22-7.11,16.33-9.57,24.88-1.08.1-.55-1.88-.43-2.46.69-3.32,2.22-7.29,3.32-10.57,5.48-16.33,13.2-32.02,15.57-49.28.98-7.16.8-14.54,2.38-21.64-1.15.63-2.44.64-3.46-.29l2.89-.29c-.31-3.79-.77-7.45-.57-11.28.23-4.5,2.34-10.54,2.31-14.48-.01-1.73-1.11-3.49-1.18-5.24-.1-2.34.98-4.62.02-7.21l-1.72,8.98-.02,10.12c-1.01.14-.54-1.31-.57-2.02-.62-15.11,3.89-31.19,5.2-46.33.21-2.47-.24-4.99.09-7.46l2.15-.86c2.27,5.66,1.49,11.94,2.4,17.89,1.13-.39,2.07-.81,2.18-2.14-1.16-4.71.26-10.07-.71-14.69-.42-2-2.09-3.6-2.07-5.76l-2.88,1.73c-.04-1.78,1.96-2,2.3-3.77.93-4.92-.06-15.22-.01-20.86.09-9.45-.14-14.32-1.13-23.72-.39-3.71-.23-8.07-.59-11.86-1.01.64-2.09,2.46-3.32,2.8-1.28.36-2.29-.4-3.25-.29-2.22.27-7.56,2.96-9.09,1.87l-4.02-18.85-12.14,11.58c-.25-1.09.6-1.38,1.15-2.03,1.76-2.09,10.22-9.41,10.43-11.03-1.47-10.31-6-19.82-8.7-29.79-3.79.93-7.5,2.24-11.37,2.86-1.3.21-2.36-.47-3.31-.38-1.14.11-5.08,2.36-6.85,2.89-8.77,2.64-19.26,2.52-28.23,1,1.25,3.39-1.06,3.27-2.24,5-.43.62-3.17,5.12-3.26,5.42-.28.96,1.6,2.42.48,5.08-.62,1.48-2.74.99-3.03,1.34-.3.35.13,2.22-.08,3.1-4.53,18.67-16.55,42.95-31.19,55.08-1.15.95-1.57,2.54-3.32,3.62-4.26,2.64-10.08,2.57-12.35-2.52,3.03-1.26-.84-1.91,0-4.33l-1.14,2.31-2.32-5.78c-1.34,9.83-2.95,19.68-2.62,29.54l25.76,9.25c-9.03-.64-17.88-4.38-26.29-7.49-.79.16-2.65,8.35-2.94,9.81-.55,2.74-1.15,5.27-.87,8.11l-1.67-.65,3.37-16.93,1.77-.37-1.19-.89c1.14-7.02.31-14.05,1.35-21.23.55-3.82,2.28-8.12,2.67-11.8.41-3.87-.61-7.54-.51-11.52.11-4.22,1.96-9.42,2.15-12.83.08-1.46-2.02-6.15.66-6.63l.07-1.09-4.04-2.33-1.67,13.65c2.2,2.54-1.37,7.05-1.26,9.18.02.33,1.08.27,1.19.71.47,1.82-1.26,9.07-2.85,10.37-1.96,1.59-2.49.28-4.4.26-.86,0-1.62.43-2.62.3-3.11-.4-7.25-1.74-9.81-3.51-.12-1.53.26-.56,1.02-.45,1.78.26,3.51.89,5.34.74l-4.51-1.59-1.27-1.3,6.36,1.73,1.69-7.2c-.28-1.09-4.97-1.56-6.25-1.43-1.1,2.73-.38,6.56-3.53,8.04.05-2.86.14-7.32,1.51-9.8,2.05-3.7,2.89-6.26,3.75-10.14,1.3-5.88,1.95-12.04,3.37-17.91-5.5-3.36-13.22-3.34-17.88-8.31.6-2.17-.19-4.82.02-6.74.28-2.54,1.73-5.16,2.21-7.7.43-2.3-.49-4.9.06-6.28.54-1.37,1.65-1.39,1.77-1.86.57-2.2-.47-6.4.51-9.05-6.81-4.36-12.69-10.77-17.55-17.23-6.46-8.59-14.58-19.64-18.56-29.49-1.84-4.55-3.07-8.98-3.19-13.88,1.74-.31,1.38,1.46,2.02,2.31l2.61-3.18-1.17-.58.98-1.35c2.21.13,12.95-.75,13.82.45.47.65.33,1.14,0,1.78-.31.58-10.4,6.61-11.16,6.81-.91.23-1.6.32-2.46-.17-1.22-.69-1.2-3.23-2.31-3.76,1.27,6.46,4.18,13.76,7.42,19.49,3.04,5.39,10.37,17.26,14.27,21.62,3.54,3.97,8.36,7.26,12.18,10.98,8.22,8.02,16.04,16.38,24.87,23.75l3.75-7.52-2.89,7.84c.03,1.81,3.54,1.8,3.49,3.73l2.41-5.97c4.1-7.49,9.54-12.94,15.8-18.36,3.2-2.77,5.28-5.64,9.78-6.9l.36-1.18c-3.05-1.7-6.86-4.2-9.55-6.38-5.68-4.61-6.89-5.89-13.31-9.84-1.36-.84-3.52-3.39-4.35-3.77-2.3-1.07-5.02,2.07-7.51,2.03l5.78-3.76-7.5-8.65-9.56,1.99h-11.29s19.1-2.9,19.1-2.9l-8.68-7.24c-1.03-2.55,3.9,1.06,4.04.88l-1.23-5.14c-7.46-.05-14.54-1.24-21.91.5-.31-1.74.48-.91,1.36-1.21,6.1-2.12,11.45-1.54,17.74-1.1,1.68-1.25-11.14-8.11-11.51-8.74-.43-.76.05-1.76.79-2.23l6.08,2c-1.22-1.13-3.01-1.92-4.6-2.34-8.77-2.33-14.77-.03-22.8-.3-4.99-.17-7.66-2.53-1.55-4.32,6.54-1.9,12.66-.23,19.11.88l-3.4-3.26c-.14-3.45,4.1-1.62,6.11-.89,8.47,3.11,12.19,11.21,15.09-3.23,1.37-6.84,2.06-13.86,3.05-20.69,1.31-9.04,4.36-20.22,1.75-28.98-2.46-8.26-7.96-16.62-9.85-25.16l5.88,10.61,6.26,17.18c-1.37-10.26-7.3-19.1-9.83-28.94l9.25,21.42c-.23-7.29-.02-14.32,1.75-21.42,1,0,.64,2.53.6,3.21-.27,5.32-.15,10.29,1.14,15.61.21.88-.4,1.02,1.14.87,1.03-7.07,2.24-15.5,4.79-22.16.23-.59.28-2.06,1.28-1.58,1.02.68.83,1.55.91,2.57.93,12.27-4.55,27.3-6.81,39.57-2.05,11.15-3.23,22.47-4.79,33.7.82.14.84-1.03.98-1.61.47-1.89,1.94-13.57,2.5-14.02h1.72s.59,18.81.59,18.81l1.14,6.08,5.21-20.02-1.45-12.41,1.74-.57c2.32,6.29,4.57,12.6,4.92,19.41.57,11.07-5.37,29.56-8.52,40.68-.72,2.54-1.69,5.01-2.84,7.37.09,1.58,7.23,8.62,8.87,9.51.96.52,5.38.97,7.13,1.5.94.28,13.92,4.02,12.73,4.91l-15.05-3.76c2.78,1.78,4.72,4.62,7.24,6.65.87.7,5.11,3.79,5.78,4.06.73.29,1.05-.11.87-.84l1.72-4.94-.57,7.52c1.52-.64,1.01-3.38,1.29-4.78,1.19-6.06-.29-9.53.6-14.48.51-2.87,3.16-1.88,3.76.57.87,3.56,1.13,10.95,1.31,14.9.15,3.22.12,6.63-.48,9.81l3.75,3.14,5.96,3c3.67-9.22,7.37-18.45,9.85-28.09,0-1.58-.16-1.56-.65-.07-2.5,7.57-5.06,15.06-8.36,22.33l-1.41.61c-.15-.13,2.77-3.4.3-3.46-.42.58-3.53,4.98-4.34,4.05-.37-4.03,2.37-7.42,3.74-11.02,4.22-11.08,7.7-22.37,6.03-34.36-.56-4-2.21-7.84-2.25-11.94-.69-.91-1.06,0-1.16.86-.6,5.11.49,11.39-3.46,15.36l.43-30.26c-7.72-11.41-17.14-24.21-22.93-36.7-.6-1.3-3.91-9.11-3.91-9.76,0-.73,1.17-2.36.75-3.62l1.91-2.45c2.46,7.14,9.18,12.4,13.88,18.25,7.5,9.32,17,22.82,23.05,33.1,2.42,4.11,4.08,8.65,6.19,12.91.03-6.6.82-14.06.58-20.57-.28-7.68-2.03-15.8-2.1-23.64l-8.03-47.26c-.73-.92-2.67,2.92-3.18,3.48-7.98,8.82-17.41,15.44-27.43,21.78-.57.36-2.49,1.83-2.96,1.37-.19-1.11.75-1.67,1.46-2.3,5.15-4.55,12.08-8.6,17.63-12.76l-21.38-6.1c-.99-.67-2.92-.85-3.75-1.47-1.04-.78-.56-2.38-2.03-2.3l10.96-20.81c-3,1.37-6.02,2.75-9.11,3.9-4.98,1.86-11.21,3.18-15.78,5.64-4.22,2.27-7.65,7.88-12.91,10.83-.76.43-1.81-.04-2.54.61-.77.68-4.31,7.07-5.1,8.53-3,5.51-5.31,11.36-7.79,17.11-.11,1.72.66.44,1.06-.1,1.48-1.97,2.61-4.26,4.43-5.99l.28.85c-8.34,13.42-16.67,26.91-23.82,41.02-2.67,5.26-7.2,13.7-8.57,19.22-.08.32-.17.94.28.85ZM267.74,245.89l-.87.86,1.72,1.45v-2.31s-.85,0-.85,0ZM315.12,325.91c-.24-.87-2.77-4.26-3.46-4.7-1.73-1.09-8.66-.57-9.93.65-1.29,1.24-.12,6.77.73,6.8l4.92-3.46c.44,1.52-1.59,1.36-1.76,2.14-.38,1.69,1.02,4.22,1.2,5.96,2.46-2.21,5.06-2.08,8.09-1.16-.45-1.96.71-4.47.22-6.24ZM307.96,333.89c2.74-.18,4.83-.16,6.94,1.74.57-3.51-5.32-3.97-6.94-1.74ZM291.66,352.88l.68-2.77c-3.25-.33-3.94,4.66-.68,2.77ZM296.68,348.95c-2.28.99-4.78,2.31-4.35,5.2,1.41.32.93-.49,1.73-1.16-.42,1.87,3.06,1.35,4.05,1.73l-4.05-1.73c1.29-1.07,2.73-1.19,4.29-.05.86.63-.35,2.08,1.19,1.77.46-.09,7-2.94,7.67-3.33,1.8-1.06,6.11-4.25,4.51-6.49-2.45,2.69-6.91,5.73-10.29,7.08-1.1.44-2.5,1.16-2.16-.71,2.34-.77,5.72-2.23,7.72-3.58.87-.59,6.48-5.4,6.79-5.96,3.03-5.34-5.58-10.82-6.99-4.37l1.73.86c-2.5.99-3.1,3.74-4.67,5.18-2.64,2.42-6.78,3.18-5.75,8.43l-1.43-2.88ZM291.28,326.83c.05.11.86.16,1.04.53,1.48,2.92,1.64,5.72,2.33,8.84.89.06.71-1.16,1.41-1.76,1.34-1.13,3.55-1.87,4.94-.26l-4.38.84c-.84,1.93.64,2.38,1.49,3.5l-1.73.29c1.22,1.62,3.49,1.62,4.95.32,3.58-3.17-2.82-13.16-.32-17.39-1.45.42-3.19-.55-4.37-.51-1.84.06-6.26,3.64-5.36,5.61ZM277.86,324.05l-1.7-6.11-8.71-.83,10.41,6.94ZM239.37,252.83l5.5-5.2-5.76,1.18.26,4.03ZM230.01,352.28c.37.29,1.29-.15,1.57.52.71,1.69,1.01,5.31.57,7.15l1.15-.59c1.03,19.58,5.92,38.69,8.1,58.08l6.95,5.62c.99-3.36,2.1-6.85,4.41-9.53-4.9-13.78-6.3-28.21-8.46-42.57l-1.15,1.73c-1.54-9.91-3.34-20.84-6.35-30.41-.86-2.74-2.54-5.5-3.48-8.1-.6-1.65,1.77.51,1.14-1.14-.23-.6-2.46-4.77-2.88-4.35.14,1.1-.69,1.9-.97,2.8-.47,1.56-3.46,13.55-3.43,14.29.01.36,2.56,6.3,2.84,6.51ZM136.93,642.5l-.8,6.28,9.48,6.46,1.73-4.04,6.65,6.94c-1.97-8.2-11.4-10.42-17.07-15.63ZM145.33,645.39c7.92,2.43,8.55,12.22,13,16.82,8.08,8.36,17.57,8.81,28.32,6.85,9.2-1.67,9.2-3.21,6.14-12.09-1.29.52-.09,2.75-.86,4.05-.31.52-2.84,1.91-3.59,2.2-8.55,3.29-18.11.13-24.48-5.96l1.15-.57c-1.83-2.28-4.07-2.7-6.02-4.98-2.36-2.75-4.7-7.46-5.56-10.95l-8.1,4.62ZM180.62,637.29l-1.1.06c-.08.06.08.97-.43,1.1-1.02.27-2.54-.18-3.67,0,.37,1.41,4.01-.02,3.47,2.31-6.37-1.04-11.69-1.55-17.94.58,1.17-2.19,4.05-2.82,6.36-2.9.16-.99-1.39-.62-1.97-.53-3.67.62-6.74,2.74-10.14,4.05-.65.92,3.84,8.77,4.92,9.76,1.97,1.82,10.92,8.52,13.17,9.41,4.03,1.59,7.77,1.29,11.97,1.04l-5.78-1.15c2.59-.72,7.98-.03,10.03-1.26,1.85-1.11,2.33-5.56-.19-6.27-.55.67,2.38,3.51.58,4.05l-4.64-8.39c-4.79-.77-9.62-2.26-13.89-4.63,2.15-1.65,13.31,3.76,13.88,3.18l-4.64-10.42ZM224.03,433.48l-1.73.58c-1.38-3.78-.69-8.18-1.16-11.89-.11-.84-.44-1.79-1.16-.86.57,2.6-.64,5.48-.63,7.81.02,4.86,1.52,9.58,1.23,15.08-.66,12.66-3.09,25.47-3.5,38.18-.08,2.38-1.14,4.54.01,7.25.58-.25,1.41-.47,1.73-1.02.44-.77,2.29-6.37,2.65-7.63.16-.56.73-1.92-.32-1.77l-2.32,3.47,5.21-14.18v-35.03ZM51.05,326.3l6.87,1.8-6.94-4.04.06,2.25ZM55.61,324.04l-2.02-2.32,5.49,2.32c-.76-3.89-.5-6.26,1.16-9.83l-6.36-4.06c-.04,5.09-6.21,12.68,1.73,13.89ZM55.61,306.97l-1.73-.87c-1.03,2.3,1.13,4.21,2.93,5.46,2.66,1.85,6.8,2.99,9.8,4.37l-12.15-8.39,1.15-.57ZM63.73,239.51c1.95.35,1.4-3.58,1.72-4.63-2.14,1.15-2.73,2.37-1.72,4.63ZM125.64,279.47c-.34-.74-1.41,2.09-1.15,2.89.34.74,1.41-2.09,1.15-2.89ZM97,168.88c-1.39.49-.42,1.18-.06,1.79.76,1.31,1.9,2.67,3.24,3.42-.23-.65-2.89-5.31-3.17-5.21ZM102.64,176.26l-.59.59,3.19,3.16.59-.59-3.19-3.16ZM114.31,189.77l-7.18-8.16,9.27,13.59,6.92,7.83-9.01-13.27ZM125.38,205.15l-.7.46,5.28,8.05.7-.46-5.28-8.05ZM127.96,66.39c-.16.19.05,4.51,1.15,4.63l.33-3.45-1.48-1.18ZM134.04,69.28c-.29-.57-2.5-1.85-2.61-1.73l2.32,4.05c1.13.09.54-1.82.29-2.32ZM165.31,40.32c-.51-.78-.27-1.83-1.13-2.93-1.23-1.58-4.31-1.6-3.82-4-3.17,1.26.81,4.47.58,4.63l-1.73.29,2.34,1.18-1.19,3.16c.82,0,1.55.18,2.32-.28,1.13-.66-1.67-2.49.28-2.6.45-.03,2.48,2.3,3.76,1.72.18-.9-1.01-.53-1.42-1.17ZM169.05,43.23c-2.91,1.38-7.59-.65-9.26,2.31,3.11.1,6.35-1.15,9.26-.57v-1.73ZM194.24,78.56c.64-1.44,2.23-6.78,2.58-8.42.32-1.48-.71-.46-1.14-.27-.44-.81,1.59-4.57-.3-2.91-.61,2.15-.07,4.35-.41,6.53-.08.48-.85,2.72-1.6,2.74.81-2.91-.29-12.91,4.31-12.78.61.02-.1,1.45.89,1.2.47-4.41-1.69-4.14-3.78-1.18-2.48,3.51-1.72,12.86-2.58,17.39,1-.34,1.62-1.39,2.03-2.31ZM188.56,92.56c2.55-6.43,4.88-27.78,3.52-34.44-.35-1.72-2.25-3.49-2.27-5.54-5.85-1.06-11.63-1.43-17.59-1.27-8.9.24-20.6,1.38-29.34,3.08-4.8.93-7.2.92-7.41,6.53-.14,3.76-.04,9.65.02,13.58-.56-.39-1-.71-1.73-.58l1.72,4.34c-1.1,2.41-3.17-1.22-3.3-2.38-.26-2.21,1.79-4.62-1.6-6.59.07,5.34.31,12.18,5.79,15.04,1.3-.85.48-1.12.35-2.07-.32-2.38-1.19-5.49-1.22-7.76.78.54.79.44,1.15,1.44,1.9,5.23,2.07,12.49,4.35,17.67,1.22,2.79,13.47,16.03,16.2,17.95,5.03,3.54,14.5,2.81,18.81-1.46,1.71-1.69,11.81-15.63,12.57-17.54ZM185.25,113.01c-.07-.8-.91-7.8-1.72-6.66-.07,1.72.87,3.64.47,5.36-.86,3.68-11.19,12.9-14.65,14.92-.55.32-1.58,1.11-2.04.28,3.53-4.15,12.91-9.4,14.33-14.62.74-2.74.48-6.54,1.29-9.41-2.82,2.78-4.78,7.29-8.14,9.51-1.64,1.09-3.52,1.14-4.56,1.81-.69.45-.98,1.7-1.74,2.31-2.52,2-5.54,3.61-8.71,4.32l5.2,7.23c.09.44-.56.37-.85.28-2.09-.65-17.25-16.64-19.39-19.4-2.98-3.83-5.71-7.3-5.51-12.43-2.04,2.98-6.66,11.97-6.49,15.25.08,1.63,2.41,6.44,3.2,8.3,2.03,4.73,4.75,9.23,6.97,13.88.81,1.7,4.03,10.42,4.69,10.94.69.54,1,.28,1.48-.3,2.97-3.58,6.85-6.36,10.15-9.54,3.07-2.96,4.74-8.07,9.43-6.01,4.31,1.89,7.9,11.49,10.16,15.88.41.79.62,1.66.64,2.55.83.14.79-1.01.98-1.61,3.84-12.05,5.85-20.01,4.8-32.83ZM135.7,128.62l.82,2.82.94-.28-.82-2.82-.94.28ZM139.53,137.03l-.58-2.89h-.57c-.09,1.08-.16,2.54,1.15,2.89ZM144.35,145.82c.49,1.14,1.21,2.65,1.77,3.74,1.13,2.22,6.74,11.11,8.73,12.39.71.46,1.15.72,2.05.55l.88-9.87c-1.56-1.23-3.71-1.58-5.23-2.85-1.3-1.09-2-3.45-2.59-3.81-1.12-.69-2.27.5-3.21-.19-1.34-.98-2.75-4.55-4.03-5.85-.03,1.66.97,4.37,1.63,5.89ZM144.17,149.19v2.31s.57,0,.57,0l.58-2.31h-1.15ZM152.27,160.76c-1.03-1.22-2.31-4.31-3.19-5.25-.51-.55-1.36.08-1.4.02-.17-.25-.25-5.45-1.77-4.02-1.37,1.29,1.6,3.79,1.81,5.13l1.07-.51.06,2.29,1.65.07c-.4,1.64-.31,2.7,1.77,2.27ZM156.89,166.56l-.07-1.67-1.66-.64c-.47.61.96,2.14,1.72,2.32ZM158.63,149.77c.84-3.22.07-6.54-1.1-9.61-.23-.6.3-1-.93-.82l-5.93,4.92c-.12,1.44,7.64,5.9,7.95,5.51ZM151.69,147.46l1.45,1.73h.86s0-.85,0-.85c-.61-.91-1.24-1.01-2.31-.87ZM163.26,180.46l-1.72-1.15-.1,1.01-1.06-.45.31,8.08,20.81,27.81c1.27-3.97-1.06-7.84-.4-11.74-4.5-4.86-7.94-10.62-12.06-15.76-.57-.71-1.32-1-1.72-1.44-.82-1.33-.59-1.11-1.74-2.32-.74-1.17-.19-1.08-1.74-2.32,0-.39-.21-1.18.29-1.16l16.21,20.84c.93-3.39-.01-6.78-1.45-9.84.37.21.77.52,1.15.58.53-.7-6.15-9.42-7.51-10.42,1.45,3.74,4.64,6.17,6.36,9.84-1.97-1.15-12.59-15.95-13.89-18.53,1.79,1.72,3.36,3.56,5.2,5.21,0-1.36-5.37-8.47-6.36-7.52.62.69.78,1.56,1.16,2.31-1.65-1.59-2.92-3.5-5.2-4.05-.6.82.49,7.03,1.16,8.23.58,1.02,2.71,1.14,2.3,2.77ZM180.63,238.93c-3.07-2.79-5.08-5.96-8.1-8.68,1.44,3.29,4.58,5.86,6.62,8.71.27.38.2.96.32,1.13-6.26-6.39-11.16-14.54-17.2-20.68-.32-.33.03-1.15-1.32-.74l.88,8.67,23.42,27.8c-.61-2.32-.11-6.3-.69-8.28-.12-.41-4.28-5.61-5.09-6.77,1.51,1.54,3.13,3.06,4.62,4.63.34-2.73-3.23-3.34-3.47-5.79,1.09.99,2.3,1.99,3.47,2.89-.85-2.51-.1-5.65-1.01-7.96-1.01-2.55-11.52-15.17-14.06-18.36-2.58-3.25-5.17-6.62-8.08-9.58v8.4c0,1.58,18.61,20.68,19.68,24.61ZM162.25,218.54l2.61,2.58.59-.6-2.61-2.58-.59.6ZM161.52,268.8l.02,7.94,12.72,13.44-3.47,2.6h8.39s8.97-2.89,8.97-2.89c-2.99-.41-5.67,1.29-8.57,1.61-1.54.17-2.93-.79-4.44.12l-.59-1.15c2.61-2.79,3.78-2.14,2.03-5.79.33.26,2.22,1.85,2.31,1.74.16-.87-.09-1.35-.55-2.05-1.38-2.11-5.88-6.07-7.85-8.36-2.58-3.01-5.14-6.78-7.79-9.58-.44-.47-1.34-1.63-1.16,0,.88.49.83,1.42,1.15,2.04-.33-.09-1.23-.2-1.17.33ZM161.53,284.1l.08,2.81,3.97.66c-.28-.72-3.47-4.15-4.05-3.47ZM163.27,297.42l3.75.57,12.45-1.73c-5.64-1.29-10.77-.37-16.2,1.16ZM187.85,278.3c-1.13,2.45-5.72,5.62-7.22,8.11,2.88-.76,5.65-1.5,8.68-1.15l-.59-10.42c-1.13.29-.3,2.22-.87,3.46ZM161.54,231.41c.14,3.37-.77,6.94,1.48,9.81l23.4,27.25-.87-8.67-24-28.38ZM165.59,233.72c-.19,1.04.78,1.9,1.73,2.32.19-1.04-.78-1.9-1.73-2.32ZM165,233.14l-3.46-4.63c-.79,1.34,3.26,4.85,3.46,4.63ZM162.11,241.83c-.07,1.73,1.79,3.58,2.9,4.91,2.33,2.8,5.44,5.86,8.08,8.41-.56-1.7-2.31-3.48-3.48-4.91-2.36-2.87-4.87-5.79-7.5-8.41ZM174.84,257.75c1.77,2.09,3.68,4.31,5.78,6.08-.65-1.69-2.53-3.88-3.75-5.22-.92-1.01-2.02-2.16-3.19-2.89-.25,1.08.6,1.38,1.15,2.03ZM186.12,269.63c-.93-1.54-3.42-4.05-4.91-5.22l4.63,6.94c1.08.11.58-1.22.28-1.73ZM186.42,253.99h.58s0-5.21,0-5.21h-.58s0,5.21,0,5.21ZM176,289.89l1.77.32,4.59-2.06c-3.42-.92-3.67.38-6.36,1.74ZM161.97,264.26c.51,1.26,8.13,9.96,9.68,11.74,2.59,2.96,5.37,5.84,8.11,8.67.8-.92,1.88-1.64,2.63-2.59.61-.77.44-1.88.55-2.03.06-.08.99-.99,1.16-1.16.28-.28,1.45-.1,2.25-1.51,2.1-3.69-1.75-6.95-4-9.77-6.29-7.89-13.56-15.07-19.96-22.88-.04,2.69-1.43,5.81.03,8.07,6.18,7.82,14.08,14.75,19.36,23.19-3.87-2.73-6.74-8.63-10.42-11.29-.8-.58-.59-.18-.57.57l12.15,14.77c-8.31-6.97-13.54-16.87-21.41-24.32.26,2.65-.58,6.04.43,8.54ZM170.21,263.83c.19-1.04-.78-1.9-1.72-2.32-.19,1.04.78,1.9,1.72,2.32ZM167.61,261.18l.75-.66-6.5-7.4-.75.66,6.5,7.4ZM176.17,223.62l6.54,8.54.75-.57-6.54-8.54-.75.57ZM176.42,222.38l-3.63-4.5-.68.55,3.63,4.5.68-.55ZM170.22,215.2c-.19,1.04.78,1.9,1.72,2.32.19-1.04-.78-1.9-1.72-2.32ZM170.05,214.28l-5.94-7.4-.68.55,5.94,7.4.68-.55ZM161.6,202.67l21.34,26.42-.88-8.67-21.68-27.23,1.23,9.48ZM182.36,219.25c-.12-2.41-3.01-4.66-4.62-6.37l4.62,6.37ZM161.27,192.59l15.88,19.71-11.92-16.73-4.85-5.85.89,2.87ZM184.68,138.19c-.87.13-1.29,1.98-1.59,2.75-.5,1.29-2.05,7.29-2.54,7.63-.25.17-1.12-.44-1.67-.22-.76.3-4.84,4.53-6.24,5.26l3.37,10.64c2.45,1.91,10.17-23.65,8.67-26.05ZM177.74,165.4h1.14s1.16-2.02,1.16-2.02l-.86-.86c-.98.8-1.69,1.53-1.44,2.88ZM181.21,159.03l1.64-2.71-1.06-.77-.58,3.47ZM184.39,148.62c-1.22.02-.87,4.26-.86,5.2.89-.1,1.06-2.41,1.18-3.16.07-.42.92-2.05-.32-2.04ZM185.83,145.71l.58-2.89c-1.97-.13-2.52,2.16-.58,2.89ZM162.11,156.14l1.44,2.31c.49.03.34-.78.29-1.16,1.63,1.2,3.6,3.62,4.87,5.26,1.96,2.52,2.4,6.5,5.87,3.43,1.01-1.68-4.94-9.84-5.65-12.04l-7.99-.69c.85,1.64,2.6,2.07,2.89,4.05-.34-.25-1.63-1.29-1.73-1.16ZM172.53,168.87c.63-.06,1.44.15,2-.02,2.05-.62-.5-2.94-2,.02ZM167.85,151.38l.84-.62-2.67-3.63-.84.62,2.67,3.63ZM162.14,146.91c-2.4,4.67-.17,4.12,4.01,4.02.46-.41-2.44-5.1-4.01-4.02ZM169.63,150.64l1.16-.6-.58-4.33-4.05.59,3.47,4.34ZM170.51,153.25c-1.51.25-.26,1.32-.06,1.78.48,1.08,1.44,2.11,1.5,3.43,1.09.04.17-2.75.03-3.22-.22-.75-.17-2.21-1.47-1.99ZM160.96,139.92l2.89-4.34,4.63-4.92c-1.23.11-2.97-.36-4.05.29-.28.17-4.23,4.64-4.36,4.94-.71,1.57.76,2.5.9,4.03ZM162.97,145.7c1.57.1,9.03-7.05,9.46-8.51.55-1.85-1.51-5.73-3.3-4.71-1.64,4.2-9.18,8.46-6.16,13.22ZM171.95,150.35l5.17-3.25-4.32-4.84c-1.69,2.33-1.51,5.48-.86,8.09ZM174.56,170.04c-2.17.76,2.24,3.74,1.44,4.63l-1.73-1.16,3.46,5.21c.31-1.36-1.41-2.25-1.56-3.27-.12-.77,1.09-6.36-1.61-5.41ZM171.87,171.24l-5.13.54,12.73,17.36c-.96-2.4-.59-6.09-1.27-8.27-.59-1.89-5.92-6.71-6.32-9.63ZM170.79,169.46h-2.89s0,1.15,0,1.15l2.89-.58v-.57ZM164.42,169.45v-.57s-2.31-.58-2.31-.58v1.15s2.31,0,2.31,0ZM161.53,166.55c-.6-.78-.81-1.43-1.16-2.31,1.61.39,2.21,3.22,4.01,3.8.73.24,5.04,1.03,5.25-.05l-9.55-12.43c-.42,3.15-.86,5.8.29,8.68-.32-.08-.78.03-1.15,0-.26,1.78.53,2.57,2.31,2.31ZM221.15,226.19c1.01.13.54-1.31.57-2.02.29-6.48-1.47-13.17-1.16-19.69l-1.14-7.24c-1.66,3.47-.23,7.64-.01,11.29.36,6.06.32,11.62,1.75,17.65ZM224.13,346.84l.91-2.89-.88-.28-.91,2.89.88.28ZM193.95,291.04h.57s0-2.31,0-2.31h-1.15s.58,2.31.58,2.31ZM195.09,245.6c.64,10.97-.72,21.78,2.33,32.71,1.04.13.56-1.3.5-1.95-.11-1.2-1.42-4.25.06-4.99.66,14.04,4.76,27.57,8.12,41.1,2-1.23-2.01-5.13-.01-6.36l5.21,21.42-1.1-.35,4.33,21.81,6.62-.89.47-.68c.19-3.05.98-6.15,1.25-9.17.96-10.78,1.3-21.63,1.21-32.42-.07-8.17-4-15.44-4.67-23.17-.56-6.54,1.12-12.09,1.17-17.91.04-5.7-1.68-13.13-1.78-19.11-.11-6.68,1.25-13.68.6-20.28-.25-2.51-1.45-5-1.73-7.54-.48-4.3-.44-9.25-.59-13.6-5.17,7.15-7.98,15.92-11.65,23.95-3.1,6.78-8,12.67-8.03,20.63-.98.15-.63-1.4-.57-2.01.92-8.54,5.89-16.43,8.09-24.61l-2.41,4.24c-2.45,4.81-3.66,10.83-5.81,15.61-.31.68-1.06,1.84-1.02.14,4.98-16.45,13.83-31.06,20.83-46.62,1.07-.13.5,1.21.31,1.75-1.07,2.96-3.38,6.23-4.7,9.19-.43.97-.51,1.85.62.62,3.41-7,7.79-13.85,10.82-21.02.95-2.26,3.46-7.56,2.5-9.66-.31-.67-1.28-.9-1.45-1.15-5.41-7.94-13.56-14.02-19.39-21.42-.46-.58-1.12-.74-.86-1.74.24-.27.9.86,1.41.9,2.49.2,6.41-.44,9.32-.35,3.45.11,6.64.88,10.4.6.86-.06,1.68.45,1.43-.86-7.81-7.7-14.09-17.33-22.26-24.63-3.47-3.1-8.24-5.7-11.32-8.95-2.61-2.75-4.02-6.51-6.93-8.99.27,2.12-.3,5.73.15,7.67.46,2,2.28,4.87,3.03,7.39,1,3.37,1.45,8.52,2.56,11.33,1.1,2.78,7.24,7.09,8.14,10.96-.58.94-1.28-.19-1.74-.58-2.01-1.69-3.55-4.04-5.78-5.5l1.2,24.6-1.81,24.3c-1.75,18.78,1.84,37.15,2.91,55.61ZM190.45,149.45c.05-5.02.81-5.93-.72-11.39-.3-1.06-.66-3.4-1.57-3.92-.97,9.54-2.1,19.12-6.38,27.79l-1.72-1.73c-1.52,3.02,1.67,1.09,1.14,2.59-.9,2.54-4.18,4.12-4.1,6.95,4.18,20.01,6.34,40.4,7.58,60.81l1.73,13.61c.11-4.4.16-9.24.59-13.6.37-3.76,1.79-8.61,1.78-12.16,0-2.99-2.57-7.7-2.18-9.89.13-.72,1.71-.81,2.04-1.79.81-2.41,1.73-12.02,1.86-14.94.63-14.01-.19-28.19-.06-42.31ZM189.3,304.36c-.08-2.33.85-4.55-1.75-5.5v-1.14c2.41-.66.56-3.15.59-4.93l-6.94,1.16c5.34,3.78,2.57,8.43-1.16,12.15l9.25-1.74ZM180.63,300.31l-6.33.6-.03,3.45c2.91.64,5.58-1.3,6.37-4.05ZM165,311.3l-8.68-1.16c-.14-.99,1.37-.62,2.01-.57,1.15.09,2.08.54,3.39.54.42,0,3.28-.35,3.27-1.11-5.15,1.17-6.83-2.89-10.13-5.79-2.15,1.58-1.87,3.89-.29,5.77-3.76-.81-2.29-5.75.29-7.51l6.48,6.23c3.89-.47,10.25.22,13.76-.47.93-.18,1.75-.81,2.04-1.72l-3.47.57c-2.11-8,1.68-6.46,7.83-7.59l1.42,1.22-.84-2.18-24.62,2.75-.28-1.73c-12.04,8.36-3.29,14.1,7.8,12.73ZM151.11,310.15c-2.72-4.17-.65-7.54,2.29-10.73l5.81-3.74c-4.85.59-10.29,1.19-15.04-.01l-1.74,14.48h8.68ZM138.38,316.85l-2.03-1.48-.28,4.63,2.31-3.15ZM135.8,324.05c-1.35-2.61-4.92.34-3.72,2.25.8,1.28,5.08.37,3.72-2.25ZM130.27,310.73l-6.91-.55c-.14,1-.66,3.27-1.33,3.88-.15.13-3.43,1.65-3.63,1.66-1.25.07-3.78-2.85-4.88-2.07-.46,2.27-1.79,3.99-3.49,5.48,3.84,4.24,7.74,1.83,8.68-3.18,1.58.54-.2,4.55-.89,5.19-.19.18-4.5,2.17-4.77,2.22-2.57.54-7.24-5.38-7.65-5.1l-2.86,4.84c3.23,5.08,14.08,8.44,14.14-.21,2.56,4.42-1.33,8.36-6.05,7.55l-2.27,9.48c4.65,3.38,1.99,3.51.65,6.55-.86,1.95-1.45,4.38-1.92,6.47-1.64.41-2.75-.15-3.99-1.11-.07.86-.74,1.9-1.42,2.36-2.32,1.56-12.25-1.6-14.79-3.52-1,.86,1.98,9.09,3.76,9.84l.86-5.78.07,6.88c1.58,1.81,10.77-1.95,12.81-2.98,4.78-2.4,6.41-6.07,9.41-8.01.72-.47,3.78-.61,4.23-1.21.33-.43-.02-2.28.76-3.61,1.61-2.74,9.48-10.98,10.32-13.5.24-.73-.15-1.82.11-2.67.3-.96,1.96-1.07,2.14-1.87.44-1.93-2.11-4.52,3.02-5.81.67-3.16-.23-6.93-.11-9.81.06-1.36,1.7-.28,1.22-2l-2.81.08c-.38.24-2.28,7.07-2.87,8.42-2.49,5.67-7.05,11.18-13.26,12.79-.57.15-2.03.59-1.89-.44,9.24-2.37,13.14-11.97,15.62-20.27ZM119.27,303.78l.59-2.31-3.47-1.16c-.67.7,2.72,3.67,2.88,3.47ZM114.65,308.99c1.52,1.42,3.36-3.05,2.89-4.05-.85.15-3.35,3.62-2.89,4.05ZM118.71,305.52c1.16,3.09-3.04,4.67-3.4,5.28-1.42,2.45,4.11,4.55,6.01,2.25,1.31-2.86.06-6-2.61-7.53ZM111.01,314.67c-.6.84-3.97,1.94-3.88,2.14,3.34,2.88,3.81-1.75,5.74-3.55l-1.68-1.95c-.22.6-.04,3.18-.17,3.36ZM92.34,324.62c2.17,5.19,7.43,8.41,13.04,8.69.89-4.04-2.77-3.78-4.95-5.75-1.64-1.48-2.3-3.88-3.72-5.56-1.71-1.09-3.18,1.74-4.37,2.62ZM94.97,320.29c-1.32-1.82-2.82,1.87-4.61,1.46l.85,2.28,3.76-3.74ZM103.65,318.84c-.42-.42-3.43,1.79-3.46,2.02-.22,1.98,4.12-.42,3.46-2.02ZM107.2,346.41c.64-1.23,1.54-2.28,2.1-3.55l-2.16-1.44-3.98,9.07c-.31,1.19,2.96,2.19,2.23.19l-1.15-.58c2.4.52,2.06-1.96,2.96-3.7ZM87.69,358.72l-.82-2.82-.94.28.82,2.82.94-.28ZM86.87,359.37c.65,1.3,1.4,2.52,2.89,2.89.09-1.71-1.17-2.98-2.89-2.89ZM90.34,362.83c.12.13,3.09,1.58,3.47.3l-3.19-1.44-.28,1.14ZM94.39,363.99c1.13-.62,3.01.08,3.69-.02.42-.06.28-.94.74-1.09.36-.12,2.06.6,2.51-.33-1.24-1.58-5.73.28-6.94,1.44ZM106.26,359.93c.38,0,1.2-1.39.87-1.72-.87-.87-2.47,1.72-.87,1.72ZM110.02,357.05l2.31-2.03-1.68-.23-.63,2.26ZM112.92,353.57c.45.01.91.07,1.35-.09,3.3-1.14-.54-4.19-1.35.09ZM118.71,348.37l2.31-2.03-1.68-.23-.63,2.26ZM123.63,341.42c-.91.61-1.01,1.24-.87,2.31l1.73-1.46v-.86s-.85,0-.85,0ZM124.49,340.84l1.73-2.31c-1.46-.15-1.96.92-1.73,2.31ZM133.17,332.15l-.87-4.04c-1.78,1.62-2.32,4.35.87,4.04ZM130.86,336.6c.07-.25,2.12-1.11,1.14-3.29l-2.31,5.78c1.99.37.86-1.35,1.16-2.5ZM128.55,341.99h.57s.58-2.31.58-2.31h-1.15s0,2.31,0,2.31ZM127.96,335.05c-1.15.31-1.3,1.24-1.15,2.32,1.15-.31,1.3-1.24,1.15-2.32ZM127.96,342.58h-.57c-.03,1.23-1.03,2.46.57,2.89v-2.89ZM126.26,348.21c.07-.21,3.02-2.06-.03-2.16l-1.16,5.79c1.39-.27.88-2.69,1.19-3.62ZM84.56,375.58c.09,1.63-.79,4.64,1.73,4.63l-1.73-4.63ZM85.44,361.4c-.05,5.83.16,14.44,1.8,19.99.56,1.9,2.61,4.46,2.66,6.8l3.06,1.73,1.43-1.02v1.74s1.15-.02,1.15-.02c-.21-1.69,5.86-2.92,6.38-3.47l-.59-1.73c.99.05,1.8.05,2.66-.55.56-.39,5.89-6.41,6.37-7.21.66-1.11,1.26-2.52,1.4-3.82.84-.38.36,2.26,1.44.57.54-.84.56-1.92.89-2.43,3.26-4.95,7.08-9.52,8.97-15.5.35-1.12.91-2.73-.88-2.33.89,3.24-.8,3.07-1.42,4.07-1.74,2.83-3.38,7.11-5.33,10.32-.37.62-1.61,3.21-2.51,2.11,3.8-5.27,6.24-11.22,9.02-17.04.36-.75,1.4-1.26,1.85-2.2.78-1.63.93-4.14,1.28-5.95-4.93,5.03-9.33,10.58-15.2,14.61-2.33,1.6-10.91,6.26-13.38,6.2-1.81-.04-7.65-2.28-8.87-3.61-.64-.69-.65-2.11-1.62-2.72-.42.06-.56,1.09-.56,1.45ZM77.61,367.48l-6.95-1.16-1.16,7.53,6.94,1.16,1.16-7.52ZM70.18,375.74c1.18.37,2.94.83,4.15,1.1.95.21,1.17.98,2.11-.41l-7.51-2.02c-.26,1.55.27,1.01,1.25,1.32ZM64.3,357.05l-1.16,6.37c4.98-.22,9.66,1.96,14.47,2.9l.5-6.88-13.81-2.39ZM65.45,355.89l13.31,2.32c-.1-.9-2.14-1.25-2.88-1.45-3.43-.92-6.97-.54-10.15-2.01l-.28,1.14ZM71.82,311.31c-.12,1.68.74,3.22.62,4.91-.14,1.91-2.28,3.52-.05,4.35.37-.47-.96-3.84,1.38-2.82,1.81.79,2.18,4.18,3.83,5.14-.31-4.74-.7-9.68-5.78-11.57ZM72.41,324.9c-.25-.82.37-1.03-1.16-.86l-5.21,30.1,12.7,2.3,1.23-9.48-2.28-1.29c-1.7-6.92-3.21-13.96-5.28-20.78ZM78.77,316.52h-.58s0,6.94,0,6.94h.58s0-6.94,0-6.94ZM82.55,321.7c-.71-1.35.47-2.78-1.76-3.44l-.85,6.12c-3.53-.7-.89.94-.3,2.56.64,1.74,1.08,3.95,1.45,5.79l.58-2.31c3.58,2.48-1.36,8.45.27,11.04.35.56,1.32.41,1.46.54,4.6,4.32,6.15,3.21,11.58,4.63,1.3.34,7.15,3.08,8.07,2.28l4.08-12.7-3.54,7.74-1.07.09,4.63-10.72,1.14,1.73,1.11-5.14-2.28-.39-.65,4.88c-1.8-.08-3.13,1.95-4.41,2.29-.74.19-6.25-.46-7.12-.72-3.4-1.05-10.65-10.92-12.39-14.25ZM122.48,295.09c-1.48-1.31-5.41-2.87-7.44-4.14-1.7-1.07-3.18-3.16-5.2-3.84-3.25.03-18.58,14.19-18.84,17.07-.11,1.26,1.97,1.65,1.65,3.08l-2.02-1.73c-3.36,5.25-7.02,10.75-.58,15.48l4.34-3.05-2.3-2.6c3.41-.49,4.94,2.76,7.23,4.49l4.31-3.7-1.12-1.94c1.26-.99,3.77,3.82,6.64-.02,3.24-4.33-1.69-6.67-.85-7.51,2.07.32,2.22,2.43,4.8,1.64,7.56-6.19-3.61-9.52-4.22-16.12,1.85,1.01,2.28,3.16,3.84,4.54,3.1,2.74,13.06,7.19,15.83,2.41-4.27,1.35-3.97-2.22-6.06-4.07ZM128.54,298.57c-.47-1.09-2.96-1.48-4.05-1.73.68,1.76,2.34,1.93,4.05,1.73ZM129.61,300.51c-.97,2.76-6.55,1.66-8.21,2.21-2.99,1,.78,5.04,1.18,5.13.9.2,2.17-.12,3.29.06,3.22.52,6.38,1.38,9.62,1.67l1.74-14.47c-4.64.3-8.93-.23-13.31-1.74-.19,4.19,7.64,1.59,5.69,7.14ZM138.98,228.2c-.85-2.67-2.68-6.36-4.65-8.37,1.46,4.65,5.06,8.74,4.63,13.89,1.86-.84.47-4.09.02-5.52ZM130.91,133.18c.36,6.13,4.16,16.33,5.57,22.83,3.99,18.53,5.89,36.53,5.98,55.39.05,10.79.1,19.82-2.04,30.43-1.02,5.05-2.61,10-3.75,15.01,6.46,3.13,12.11,7.95,17.35,12.77-6.64.33-11.68-7.14-17.06-9.86-.56-.28-.44-.94-1.18.01l-7.8,25.48c2.93-.5,4.69-.35,7.33,1.06l11.76,7.04c-6.97-.51-14.03-1.37-20.57-3.91l-1.43,2.46c.01.62,11.44,2.36,12.14,2.34.95-.03,1.03-.66,1.76-.89l-2.31,21.43,4.63-.59c-1.5-2.04-.83-5.18-.51-7.74.25-1.96,2.05-11.1,3.08-12.01,4.5.54,8.78.16,13.34.07l8.4-1.72c-2.06-.03-2.86-1.23-4.34-2.32l-.86,1.73-.03-2.29c-3.05-.28-6.01-1.13-9.01-1.69-1.92-.36-3.49.86-4.27-1.52l13.89.3c1.37-4.68-3.04-6.88-4.32-10.46-1.13-3.17,1.84-4.97,1.96-7.82.13-3.13-1.71-7.73-1.75-10.96-.13-12.99,1.63-26.33,1.81-39.34.2-14.13-.66-28.27-1.76-42.3-.18-2.34.38-5.4-.02-7.51-.42-2.18-5.79-5.4-7.51-7.54-5.12-6.35-8.48-15.07-11.6-22.56l-6.34-18.26c.65,4.15-.76,9.02-.53,12.94ZM90.92,138.18c10.97,1.09,22.13,2.27,32.62,5.72.75-.14,5.75-8.05,6.02-9.04.72-2.72-1.26-7.97-.45-11.15-.16-.18-.96.59-1.46.53-2.43-.29-6.49-2.68-8.13-2.83-4.11-.39-11.64,3.26-16.16.13l-6.64,9.7,4.62-9.26-10.41,16.21Z"/>
  <path class="cls-3" d="M224.62,176.4c-.08-.22-1.9-1.78-2.61-.59-.72,1.21.13,2.33.31,3.48,1.88.54,2.86-1.36,2.31-2.89.75,1.87,1.14,3.21-1.45,4.07-2.32-.66-3.14-2.91-2.47-5.1,1.15-1,2.82-1.43,3.92-.12.13.15-.12.87,0,1.16Z"/>
  <path class="cls-3" d="M168.48,275.41c-.12-.16-.12-.89-.55-1.45-.74-.98-4.42-5.27-5.24-5.49,1.73,3.36,3.39,4.45,5.79,6.95Z"/>
  <path class="cls-3" d="M176.58,284.68c-1.76-3.67-5.31-6.35-8.1-9.26,2.47,3.23,4.73,6.59,8.1,9.26Z"/>
  <path class="cls-3" d="M91.5,344.89c.97.41,2.55,1.45,3.47,1.74,1.1.34,3.75.7,5.13.95.96.18,1.88.65.66-.66-2.95-1.08-6.25-1.26-9.27-2.02Z"/>
  <path class="cls-3" d="M83.4,342c1.72,1.31,5.94,2.35,8.1,2.9-2.93-1.26-5.82-2.74-8.4-4.63-.74.15.06,1.55.29,1.73Z"/>
  <path class="cls-3" d="M262.24,288.15c-.9-2.4-5.64-6.51-5.79-6.95,1.69,3.36,3.42,4.47,5.79,6.95Z"/>
  <path class="cls-3" d="M163.85,183.35c-.08-.18,0-.81,0-1.16-.48-.38-1.06-.64-1.45-1.16l-.29.29c-.22,1.15,1.43,1.56,1.74,2.02Z"/>
  <path class="cls-3" d="M163.85,183.35c3.67,5.46,7.56,12.3,12.14,17.09.45.47,1.33,1.63,1.17,0-3.79-4.17-6.91-8.89-9.83-13.61-1.09-1.19-.92-1.02-1.74-2.32-.36-.38-1.61-.89-1.74-1.16Z"/>
  <path class="cls-3" d="M184.1,278.89l-2.32-2.9c.55.88.72,2.49,2.32,2.9Z"/>
  <path class="cls-3" d="M162.69,388.9l-.58-1.16c.16,3.59-3.27,6.28-4.29,9.2-.58,1.66.3,3.25.12,4.82-1.41,12.21-8.47,26.54-9.71,38.97-.13,1.26-.06,2.77,0,4.05.03.7-.44,2.15.57,2.02.25-2.22.61-4.52,1.15-6.7.24-.98-.57-1.69,1.17-1.4.32,5.36.18,11.18.59,16.49.43,5.71,2.79,17.2,1.34,22.2-.25.87-3.18,6.83-3.75,7.83-3.94,6.9-11.42,12.49-14.39,20.06-.78.17-.65-.6-.85-1.16-.78-2.25-2.62-10.42-2.07-12.38l4.66-1.22c-3.54-2.7-7.38-1.66-8.05,2.94-.74,5.15-.25,18.23,3.14,22.23.75.88,1.39,1.26,2.6,1.18-2.13,11.2-2.61,21.92-1.74,33.28.06.78.28,3.5,1.14,3.77,1.21-5.2-.08-10.49-.02-15.94.05-4.65.89-10.28,1.21-15.01.34-5.09-.26-12.93,1.4-17.71,1.1-3.16,9.52-11.29,11.89-14.74,2.26-3.29,1.95-4.81,3.17-7.83,1.25-3.08,4.01-5.73,3.2-9.83l2.92,14.18c-1.17,13.69-7.35,27.23-9.23,40.6-1.92,13.64-1.34,24.71-5.59,38.41-2.25,7.25-6.04,14.12-7.79,21.45,2.54-1.92,3.61-5.78,4.9-8.7,2.22-5.04,6.68-16.19,7.7-21.24,1.59-7.85.69-18.39,1.91-26.46,2.05-13.46,9.57-29.29,10.35-42.98.21-3.68-3.66-15.77-4.03-21.34-.34-5-.54-23.61.69-27.67.27-.9,1.54-1.51,2.07-2.56,3.1-6.13.16-16.75,1.42-23.48.25-1.33,1.44-3.43,1.89-5.06s1.45-7.75,2.4-8.06c2.41-.79,19.83,5.99,21.62,3.42.21-2.84-3.48-4.2-5.63-5.06-5.16-2.06-10.87-2.88-16.35-3.32,4.17-1.66,8.4-3.08,12.54-4.82,1.99-.84,3.43-2.32,5.07-3.03,3.88-1.68,9.55-2.28,13.64-4.02.16-.96-1.44-.65-2.02-.58-3.61.46-6.42,1.65-9.68,2.48-6.35,1.63-12.67,3.29-18.97,5.05,1.36-4.5,4.33-8.5,5.52-13.29.15-.58.82-2.43-.31-2.34.56,1.79-6.15,15.14-6.95,14.47ZM153.43,456.06l-1.77-22.85,2.64-9c2.86,5.03.64,10.64.29,15.93-.3,4.63-.4,9.26-.58,13.9-.03.7.44,2.15-.57,2.02Z"/>
  <path class="cls-3" d="M76.46,489.64c-1.68,4.64.92,7.78,4.63,10.25.51,8.6.48,18.69,3.04,26.93.62,2,2.66,4.61,2.73,6.6.05,1.41-3,4.76-3.94,6.41-1.73,3.06-6.25,11.84-6.53,14.94-.37,4.14,3.56,8.62,1.8,12.73l.56.61c1.71-.41,2.47.44,3.48,1.73.44.56,3.26,6.09,3.32,6.44.21,1.28-.3,9.47-.42,11.49-.93,15.26-1.11,24.88,7.06,38.69,2.45,4.14,3.66,6.55,8.54,7.67,7.64,1.76,16.03-.34,18.97-8.3,1.68-4.54,2.85-15.86,2.5-20.7-.32-4.43-2.31-8.68-2.85-12.78-.79-6.01.59-13.03,2.54-18.75,2.23-6.55,5.48-6.58,8.97-11.29.54-.73,3.26-5.69,2.89-6.08-1.18-.15-1.89.99-2.61,1.73-7.36,7.55-6.45,9.21-17.26,14-5.27,2.34-11.29,3.56-16.01,6.56,2.63.88,7.1.5,10.12.28,3.69-.26,7.78-.67,11.29-1.73-1.61,5.81-1.48,8.93-6.99,12.4-2.97,1.86-5.76,3.08-9.36,2.52-11.75-1.85-14.86-13.6-18.95-23.01,3.78.88,7.62,2.19,11.47,2.76,1.51.22,2.71-.63,3.87.54,1.1-.43,1.74-1.83,1.49-2.96-.2-.91-11.89-3.57-13.65-3.81s-6.96.76-7.71-1.55c-.78-2.39-.35-7.35-1.72-10.19l9.73-18.09,2.05,3.18,1.41-.27c-3.39-4.96-1.66-8.93-1.67-13.9,0-4.38.08-8.95-.03-13.35-.11-4.68-.95-9.28-5.23-11.84.55,2.35,3.1,3.26,3.78,5.77,1.78,6.62-.61,12.85.87,19.39l-1.17,6.1c-1.7-4.59-2.66-9.44-3.38-14.28-.59-3.91-.83-14.86-2.41-17.28-.96-1.47-3.51-2.84-4.22-4.52-.46-1.1.14-2.64-.41-3.87,4.56,2.15,8.96,4.77,13.89,6.07,1.32.35,6.65,2.21,6.36-.28-3.22.79-19.76-7.89-20.83-6.95ZM117.54,588.07c-.71,4.74,1.36,9.07,1.73,13.62.59,7.16-.27,24.7-7.98,27.9-15.86,6.59-22.78-15.7-24.36-27.4-.99-7.32.76-13.76.52-21.06,2.81,1.92.97,5.35,1.12,8.42.42,8.44,3.91,27.14,9.29,33.56,3.19,3.8,10.79,5.55,14.71,2.55,2.4-1.84,5.32-15.99,5.54-19.35.36-5.51-1.36-10.9-1.61-16.38-.04-.93-.04-1.58,1.03-1.85ZM93.02,596.56c1.3-2.46-.96-6.29-.93-9.06,7.15,6.56,15.59,8.86,23.72,2.32-.64,3.94,1.14,8.12,1.2,11.86.07,4.11-2.43,19.94-5.61,22.23-2.32,1.67-9.42,1.89-11.62-.11-1.42-1.3-5.28-10.02-5.99-12.24-1.18-3.65-1.61-7.92-2.71-11.64,1.32-1.93,3.57-.63,5.31-.82,5.9-.64,12.11-2.25,17.99-.61l.28-1.14c-7.81-1.43-14.96-1.11-22.57,1.15-.59-1.69.77-1.63.93-1.94ZM101.33,632.07c-2.33.51-4.74-1.05-5.2-3.47.29-.31,2.34,2.29,2.9,2.59.88.48,2.37-.18,2.3.87Z"/>
  <path class="cls-3" d="M88.03,441.88c0-.18-1.5-1.84.25-1.42,2.74.66,6.47,3.4,9.3,3.46,1.6.03,3.54-.67,2.34-2.36-.87-1.25-17.44-5.34-19.98-7.25-.7-.15-1.19-.61-1.81.11-3.84,4.51-4.79,27.66-5.49,34.44-.62,6.02,1.06,11.29,2.06,17.61.14.86.03,1.79,1.16,2.02.78-5.9-2.16-12.55-2.25-18.18-.13-8.67,2.32-23.01,4.31-31.59.23-.97.32-1.93.27-2.92,2.09,1.89,4.69,2.94,7.45,3.54l-3.43,31.52,3.49,20.52c-.34-4.46,2.33-5.76,1.69-10.66-.43-3.31-4.58-10.47-4.61-11.6-.09-3.52,1.9-6.7,2.32-9.33.23-1.47-.2-2.98.17-4.46.24-.95,2.76-4.16,2.76-4.77,0-2.87.15-5.82,0-8.69Z"/>
  <path class="cls-3" d="M28,256.16c.06.14,2.01,1.82,2.42,1.89,4.45.86,15.62-4.5,19.59-7.06,12.35-7.96-7.67-8.28-12.75-5.81-.74.36-8.17,5.98-8.55,6.5-.85,1.16-1.28,3.11-.71,4.47Z"/>
  <path class="cls-3" d="M26.1,212.3l2.01-1.6c3.42,1.97,7.84.63,11.91,1.28,3.15.5,8.77,3,11.75,4.45,1.91.93,9.76,6.14,10.59,6.22,4.44.44-2.24-8.92-3.33-10-2.03-2.03-14.65-8.42-16.71-7.04-.51.34-.56,1.38-1.58,1.93-2.52,1.34-8.5.7-11.38.26-1.38,1.11-3.48,2.47-3.24,4.5Z"/>
  <path class="cls-3" d="M190.99,611.87l-2.26-.92,3.48.29c-.64-10-16.92-2.79-23.13-1.43-7.37,1.62-16.09,1.51-21.97,6.97-1.47,1.37-1.77,2.65.66,2.44,5.24-.44,13.64-5.8,19.26-6.26,2.32-.19,4.15.6,6.34.62,5.79.04,10.95-1.82,16.22,1.17l1.39-.99v-1.89Z"/>
  <path class="cls-3" d="M86.66,177.9c-3.9,3.27-1.45,3.04-.41,6.94.37,1.38.55,5.04.86,5.5.96,1.41,4.17.5,4.27-1.58.02-.5-2.11-3.3-.47-2.8l21.98,30.69-1.74.59c-6.42-9.43-12.17-19.46-19.66-28.09l6.34,10.73c3.08,6.12,10.8,13.15,13.64,18.84.27.54-.82,2.41.55,1.7.54-.28,4.41-3.35,3.76-4.05l-1.72,1.16-26.64-40.53c-.87-.23-.42.61-.77.91ZM85.72,182.19c-1.01-2.13-.09-3.62,2.3-3.46l.58,2.89-1.44-2.31-1.44,2.89ZM89.76,187.4l-2.04-.56-.27-3.49c2.19.44,1.86,2.16,2.31,4.05Z"/>
  <path class="cls-3" d="M105.71,425.12c-.14.2-.62.26-.85.71-.88,1.7-4.18,14.84-3.51,15.76l.87-.57,4.33-14.48c-.76,5.05-.64,10.27-1.16,15.34-.95,9.22-1.74,14.86-1.71,24.3.03,8.98-.31,18,.27,26.95,0-3.28.78-6.96.89-10.11.33-9.09-1.18-18.18-.63-27.26.28-4.64,1.71-9.47,1.77-14.16,1.01-.14.54,1.31.57,2.02.67,16.11.63,32.2,0,48.35,1.01.14.54-1.31.57-2.02.1-2.5-.11-5.02,0-7.53.05-1.12.56-2.22.6-3.46.54-17.58-1.31-35.19-.64-52.75.04-1.07.41-1.85.62-2.85-.64-.51-1.69,1.32-2.01,1.76Z"/>
  <path class="cls-3" d="M137.23,630.33l2.31.6-1.73,3.46c1.27,1.81,7.58-2.66,8.69-3.75,2.01-1.96,2.47-3.89,5.24-5.76,2.33-1.58,6.58-1.88,5.75-4.96-1-1.07-13.73,4.4-15.63,5.49-1.11.63-5.77,3.24-4.61,4.92Z"/>
  <path class="cls-3" d="M173.11,364.58l1.15-6.66-1.74-29.52-1.73-13.03c-1.95,16.5,3.43,32.67,2.32,49.21Z"/>
  <path class="cls-3" d="M93.23,149.77c-.82-.07-.94,1.28-1.24,1.94-2.43,5.4-5.59,13.04-7.45,18.6-.28.83-2.16,5.54-.28,5.5,1.48-.03,4.31-8.89,4.93-10.69,1.72-4.98,3.37-10.1,4.03-15.35Z"/>
  <path class="cls-3" d="M148.22,554.49l8.65-25.22,14.49,5.53c-3.9-3.15-9.65-4.94-14.45-6.38l2.29-25.45c-.8.34-.96,2.95-1.08,3.83-1.06,7.72-.62,15.36-2.32,23.11-1.85,8.44-5.99,16.16-7.59,24.58Z"/>
  <path class="cls-3" d="M191.05,476.32c-1.75-1.64-4.13-2.52-6.06-4.06-6.75-5.35-10.95-13.25-16.5-19.67.64,2.42,2.51,4.73,3.92,6.79,4.53,6.6,10.55,14.91,18.65,16.95Z"/>
  <path class="cls-3" d="M129.12,538.86l.56-2.01c-2.78-10.61-2.75-22.77-5.62-33.18-.31-1.13-.86-3.59-1.89-4.18l6.95,39.37Z"/>
  <path class="cls-3" d="M87.45,549.85c1.73,1.73,4.83-7.61,5.04-8.56.99-4.5,1.52-10.39-.7-14.59-.12,2.81.47,5.54.31,8.42-.28,5.2-2.19,10.22-4.65,14.74Z"/>
  <path class="cls-3" d="M130.85,619.34l1.15-6.66,1.75-19.09c-.76-.84-1.4,2.32-1.46,2.59-.65,2.64-.62,5.29-1.44,7.82v15.34Z"/>
  <path class="cls-3" d="M136.07,419.58c.97.97,13.13-6.3,13.89-8.68l-12.15,6.94,8.1-8.97c.09-.43-.61-.39-.86-.28-1.04.46-7.22,7.33-8.12,8.67-.53.78-1.14,1.11-.85,2.33Z"/>
  <rect class="cls-3" x="177.46" y="361.98" width=".83" height="28.65" transform="translate(318.11 -15.59) rotate(44.99)"/>
  <polygon class="cls-3" points="123.33 196.67 109.09 177.04 105.39 172.93 116.73 189.08 123.33 196.67"/>
  <path class="cls-3" d="M166.17,354.15c1.01.14.54-1.31.57-2.02.16-3.85-.1-7.73,0-11.58l-2.88-17.66c.84,10.47,3.14,20.67,2.32,31.26Z"/>
  <path class="cls-3" d="M133.75,610.07l3.76-12.15,2.02-10.42-1.69,4.38c-.9,6.17-3.62,11.98-4.09,18.19Z"/>
  <path class="cls-3" d="M88.6,392.95c-.83-.12-.91,1.6-1,2.19-.61,4.35-.68,8.34-2.48,12.57l1.16-.29.58,2.9c.3-1.82-.04-6.12.59-7.67.28-.68,1.15-.37,1.15-.43v-9.26Z"/>
  <path class="cls-3" d="M188.73,573.6c1.04-1.17-3.86-3.54-4.62-3.77-4.22-1.3-9.38.17-12.42-3.79-1.05-1.36-1.3-3.62-2.63-4.59,1.07,12.03,13.61,5.77,19.67,12.16Z"/>
  <polygon class="cls-3" points="115.23 286.99 117.94 275.52 119.85 262.1 115.39 283.97 115.23 286.99"/>
  <path class="cls-3" d="M98.44,564.33l17.63,2.34,2.63-.6c-3.27.73-7.85-1.74-10.7-1.74h-9.55Z"/>
  <path class="cls-3" d="M222.89,262.67c1.01.14.54-1.31.57-2.02.32-7.85-.32-15.67-.87-23.46-.89,8.49.89,16.94.3,25.48Z"/>
  <path class="cls-3" d="M103.08,163.09c-.01,1.2,1.94.14,2.65,1.11,1.28,1.77-1.21,3.98-2.87,3.49s-.19-3.22-1.51-3.44l.28,3.48c5.77,4.03,9.18-5.12,1.46-4.63Z"/>
  <path class="cls-3" d="M200.89,509.32c1.03.22,1.42-.53,2.03-1.14,3.13-3.1,6.05-8.13,8.96-11.58-1.28-.31-1.29.73-1.85,1.32-3.22,3.39-6.42,7.6-9.14,11.4Z"/>
  <path class="cls-3" d="M160.38,476.32c.99.15.62-1.37.57-2.01-.24-3.11-.97-6.77-1.15-9.86-.18-3.26.13-6.57,0-9.84-.03-.7.44-2.15-.57-2.02-.25,7.95.2,15.85,1.16,23.73Z"/>
  <path class="cls-3" d="M200.02,539.44c1.55-.13,3.97-1.32,5.78-1.16.95-.77-.7-.63-1.17-.6-3.03.16-6.25,1.04-9.22,1.21-4.57.26-9.09-.34-13.62-.6l4.34,1.15c4.52-.27,9.42.37,13.89,0Z"/>
  <path class="cls-3" d="M175.42,454.32c-2.88-6.21-7.03-11.81-10.99-17.37l9.36,15.82,1.63,1.55Z"/>
  <path class="cls-3" d="M86.29,416.12c.13.87,1.98,1.28,2.75,1.59,4.28,1.68,9.42,3.47,14.03,3.61l-16.78-5.2Z"/>
  <polygon class="cls-3" points="161.54 361.68 162.1 358.51 159.8 344.9 159.8 348.65 161.54 361.68"/>
  <rect class="cls-3" x="87.83" y="198.8" width="15.89" height="1.03" transform="translate(209.5 9.67) rotate(56.62)"/>
  <path class="cls-3" d="M93.81,288.72l7.71-5.3,1.55-1.63c-3.5,1.15-7,4.05-9.26,6.94Z"/>
  <rect class="cls-3" x="99.95" y="213.81" width="12.04" height="1.03" transform="translate(220.88 4.66) rotate(55.03)"/>
  <polygon class="cls-3" points="224.04 291.04 224.64 286.68 223.47 278.89 224.04 291.04"/>
  <rect class="cls-3" x="100.29" y="199.72" width="9.63" height=".84" transform="translate(214.65 2.4) rotate(56.69)"/>
  <path class="cls-3" d="M137.22,218.67c-2.31-5.66-5.67-11.7-9.83-16.21l9.83,16.21Z"/>
  <rect class="cls-3" x="116.5" y="149.42" width=".93" height="7.06" transform="translate(173.7 -31.05) rotate(54.54)"/>
  <rect class="cls-3" x="145" y="343.01" width="15.69" height=".82" transform="translate(474.15 148.32) rotate(82.72)"/>
  <path class="cls-3" d="M96.71,582.29c1.42,2.13,4.64,2.42,6.94,2.3l-6.94-2.3Z"/>
  <path class="cls-3" d="M163.27,321.15c2.67.28-.02-4.32.57-5.78l-.57,5.78Z"/>
  <path class="cls-3" d="M142.43,635.56c-.09,1.1,1.83.52,2.45.42.94-.15,3.54-.56,3.91-1.58l-6.36,1.16Z"/>
  <rect class="cls-3" x="107.58" y="207.83" width="5.45" height=".84" transform="translate(225.58 2.71) rotate(57.2)"/>
  <rect class="cls-3" x="97.4" y="191.88" width="4.97" height=".89" transform="translate(193.09 -3.33) rotate(52.92)"/>
  <rect class="cls-3" x="90.7" y="577.81" width="4.49" height=".84" transform="translate(434.13 102.23) rotate(44.76)"/>
  <path class="cls-3" d="M165,366.89v-.86s-2.31-2.03-2.31-2.03c-.32,1.04,1.59,3.63,2.31,2.89Z"/>
  <rect class="cls-3" x="99.69" y="431.68" width=".82" height="5.32" transform="translate(63.59 -9.89) rotate(8.28)"/>
  <polygon class="cls-3" points="78.19 475.17 78.63 472.7 76.46 468.22 78.19 475.17"/>
  <polygon class="cls-3" points="99.6 497.76 103.65 498.33 103.37 497.18 99.6 497.76"/>
  <rect class="cls-3" x="211.47" y="482.68" width=".82" height="8.15" transform="translate(53.98 -20.09) rotate(6.22)"/>
  <path class="cls-3" d="M107.13,421.9l1.73-2.31c-1.46-.15-1.96.92-1.73,2.31Z"/>
  <rect class="cls-3" x="121.33" y="147.7" width=".83" height="3.27" transform="translate(141.22 -42.35) rotate(44.99)"/>
  <path class="cls-3" d="M126.22,200.72c.19-1.04-.78-1.9-1.72-2.32-.19,1.04.78,1.9,1.72,2.32Z"/>
  <path class="cls-3" d="M112.91,582.86c1.04.19,1.9-.78,2.31-1.73-1.04-.19-1.9.78-2.31,1.73Z"/>
  <path class="cls-3" d="M146.48,408c1.04.19,1.9-.78,2.31-1.73-1.04-.19-1.9.78-2.31,1.73Z"/>
  <path class="cls-3" d="M181.21,590.39c.94-.42,1.91-1.27,1.72-2.32-.94.42-1.91,1.27-1.72,2.32Z"/>
  <path class="cls-3" d="M178.9,593.28c.94-.42,1.91-1.27,1.72-2.32-.94.42-1.91,1.27-1.72,2.32Z"/>
  <path class="cls-3" d="M153.43,631.51c-.08.08.03.38,0,.57.48.22,3.21-.38,2.89-1.15-.31-.14-2.71.41-2.89.58Z"/>
  <path class="cls-2" d="M224.62,175.24c-5.41-7.94-13.56-14.02-19.39-21.42-.46-.58-1.12-.74-.86-1.74.24-.27.9.86,1.41.9,2.49.2,6.41-.44,9.32-.35,3.45.11,6.64.88,10.4.6.86-.06,1.68.45,1.43-.86-7.81-7.7-14.09-17.33-22.26-24.63-3.47-3.1-8.24-5.7-11.32-8.95-2.61-2.75-4.02-6.51-6.93-8.99.27,2.12-.3,5.73.15,7.67.46,2,2.28,4.87,3.03,7.39,1,3.37,1.45,8.52,2.56,11.33s7.24,7.09,8.14,10.96c-.58.94-1.28-.19-1.74-.58-2.01-1.69-3.55-4.04-5.78-5.5l1.2,24.6-1.81,24.3c-1.75,18.78,1.84,37.15,2.91,55.61.64,10.97-.72,21.78,2.33,32.71,1.04.13.56-1.3.5-1.95-.11-1.2-1.42-4.25.06-4.99.66,14.04,4.76,27.57,8.12,41.1,2-1.23-2.01-5.13-.01-6.36l5.21,21.42-1.1-.35,4.33,21.81,6.62-.89.47-.68c.19-3.05.98-6.15,1.25-9.17.96-10.78,1.3-21.63,1.21-32.42-.07-8.17-4-15.44-4.67-23.17-.56-6.54,1.12-12.09,1.17-17.91.04-5.7-1.68-13.13-1.78-19.11-.11-6.68,1.25-13.68.6-20.28-.25-2.51-1.45-5-1.73-7.54-.48-4.3-.44-9.25-.59-13.6-5.17,7.15-7.98,15.92-11.65,23.95-3.1,6.78-8,12.67-8.03,20.63-.98.15-.63-1.4-.57-2.01.92-8.54,5.89-16.43,8.09-24.61l-2.41,4.24c-2.45,4.81-3.66,10.83-5.81,15.61-.31.68-1.06,1.84-1.02.14,4.98-16.45,13.83-31.06,20.83-46.62,1.07-.13.5,1.21.31,1.75-1.07,2.96-3.38,6.23-4.7,9.19-.43.97-.51,1.85.62.62,3.41-7,7.79-13.85,10.82-21.02.95-2.26,3.46-7.56,2.5-9.66-.31-.67-1.28-.9-1.45-1.15.13.15-.12.87,0,1.16-.08-.22-1.9-1.78-2.61-.59s.13,2.33.31,3.48c1.88.54,2.86-1.36,2.31-2.89.75,1.87,1.14,3.21-1.45,4.07-2.32-.66-3.14-2.91-2.47-5.1,1.15-1,2.82-1.43,3.92-.12ZM223.45,149.19c.06,4.44-5.88,2.02-4.62-1.74l2.61,3.46,2-1.73ZM205.52,150.35l9.54.58,4.92,1.15c-3.44-.19-7.31-.23-10.7-.58-.83-.09-3.48-.27-3.76-1.15ZM215.93,167.14l-5.5-5.2-4.33-5.8c2.86,2.71,6.16,5.98,8.68,8.97.55.65,1.4.94,1.15,2.03ZM196.26,256.88l.28-5.21c1.14.69.41,1.26.39,2.06-.02.73.26,3.16-.67,3.14Z"/>
  <path class="cls-2" d="M136.66,256.85c6.46,3.13,12.11,7.95,17.35,12.77-6.64.33-11.68-7.14-17.06-9.86-.56-.28-.44-.94-1.18.01l-7.8,25.48c2.93-.5,4.69-.35,7.33,1.06l11.76,7.04c-6.97-.51-14.03-1.37-20.57-3.91l-1.43,2.46c.01.62,11.44,2.36,12.14,2.34.95-.03,1.03-.66,1.76-.89l-2.31,21.43,4.63-.59c-1.5-2.04-.83-5.18-.51-7.74.25-1.96,2.05-11.1,3.08-12.01,4.5.54,8.78.15,13.34.07l8.4-1.72c-2.06-.03-2.86-1.23-4.34-2.32l-.86,1.73-.03-2.29c-3.05-.28-6.01-1.13-9.01-1.69-1.92-.36-3.49.86-4.27-1.52l13.89.3c1.37-4.68-3.04-6.88-4.32-10.46-1.13-3.17,1.84-4.97,1.96-7.82.13-3.13-1.71-7.73-1.75-10.96-.13-12.99,1.63-26.33,1.81-39.34.2-14.13-.66-28.27-1.76-42.3-.18-2.34.38-5.4-.02-7.51s-5.79-5.4-7.51-7.54c-5.12-6.35-8.48-15.07-11.6-22.56l-6.34-18.26c.65,4.15-.76,9.02-.53,12.94.36,6.13,4.16,16.33,5.57,22.83,3.99,18.53,5.89,36.53,5.98,55.39.05,10.79.1,19.82-2.04,30.43-1.02,5.05-2.61,10-3.75,15.01Z"/>
  <path class="cls-2" d="M132.17,75.88c.13,1.16,2.21,4.79,3.3,2.38l-1.72-4.34c.73-.14,1.18.19,1.73.58.04,2.27.91,5.38,1.22,7.76.13.95.95,1.22-.35,2.07-5.49-2.85-5.73-9.69-5.79-15.04,3.39,1.97,1.35,4.38,1.6,6.59Z"/>
  <path class="cls-2" d="M135.46,60.92c.21-5.61,2.61-5.6,7.41-6.53,8.73-1.69,20.44-2.83,29.34-3.08,5.96-.16,11.74.2,17.59,1.27.02,2.05,1.92,3.82,2.27,5.54,1.36,6.66-.97,28.01-3.52,34.44-.76,1.91-10.86,15.84-12.57,17.54-4.31,4.27-13.78,4.99-18.81,1.46-2.73-1.92-14.98-15.16-16.2-17.95-2.27-5.19-2.44-12.45-4.35-17.67-.36-.99-.38-.89-1.15-1.44-.06-3.93-.16-9.82-.02-13.58ZM162.11,84.92c-.15.84.14,1.31.96,1.56,3.13.98,2.34-1.89-.96-1.56ZM160.09,82.03c-2.04,1.84-.45,4.95,2.02,5.2-1.7-2.08-2.59-2.28-2.02-5.2ZM165.01,94.19v.57c1.35.34,2.47,1.13,3.47-.29l-3.47-.28ZM179.76,55.34c-2.12-.12-9.02,1.03-9.65,3.41l-1.05-.47c-.07.91-.17,2.6.91,2.85,1.39.32,8.78-3.13,11.04-3.25,1.97-.11,4.47,2.14,6.57,2.14-1.11-1.62-6-4.57-7.81-4.67ZM168.48,86.07l2.61-1.15.57,1.15c1.46-1,2.37-3.09.3-4.05v2.9c-1.55-.95-2.76-.51-3.48,1.15ZM174.27,61.77l5.46.02,3.22,1.13c-1.75-2.73-6.03-1.83-8.68-1.14ZM184.68,65.24c-3.8-.57-11.22-2.57-12.72,2.31l2.02-1.18c1.23,0,1.46,1.84,3.31,1.67,2.66-.24,2.54-3.19,5.66-2.22-2.12,3.77-6.79,2.88-10.42,2.32.18.67,2.74,1.62,3.22,1.7.94.15,1.86.09,2.8-.02,3.55-.43,4.25-2.04,6.12-4.57ZM162.69,103.73c.41,1.2,6.43-.2,8.1.29l-1.15-1.44,2.31-2.6c-3.59,1.35-6.56,2.36-10.42,1.16l2.31,2.02-1.15.57ZM163.55,97.6c1.39-.07,2.79.68,3.93.52,2.63-.36,4.12-1.37,8.24-1.62,1.16-.07,1.67.45,1.43-1.16-1.91.79-4.41-.16-5.93.09-1.15.19-2.28,1.52-3.67,1.64-1.28.11-2.37-.64-3.42-.58-2.65.14-5.54,1.07-8.39.59,1.57,2.36,5.38.64,7.81.52ZM158.06,71.61c-1.04-.19-1.9.78-2.31,1.73,1.04.19,1.9-.78,2.31-1.73ZM154.58,62.34c-1.19-.06-2.34-.03-3.5.26-.7.18-2.77.62-2.86,1.47,4.06-1.27,6.73-.51,9.26,2.9-2.69-.63-5.61-.85-8.39-.58-1.12.11-3.75.61-4.33,1.73,1.43-.08,1.13,1.37,2.07,2.26,2.33,2.2,8.67.27,11.4-1.1.38-.19.42-1.02.49-1.04.36-.13,1.24.61,1.88.45.94-.23.53-1.85,1.5-1.71l.08.39v1.34c0-.49,0-.92,0-1.34l1.08,5.4c.2-2.33-.16-4.82-1.08-7.04,0-1.2,0-2.33,0-3.91,0,1.58,0,2.71,0,3.91-.68-1.63-1.65-3.12-2.96-4.26l1.16-.65-.06-1.9c-.38-.46-10.54-2.45-11.67-2.27-2.18.35-6.13,3.78-7.38,5.69,2.6-.64,4.39-2.77,7.29-2.84.85-.02,7.65,1.5,6.02,2.84Z"/>
  <path class="cls-2" d="M230.01,352.28c.37.29,1.29-.15,1.57.52.71,1.69,1.01,5.31.57,7.15l1.15-.59c1.03,19.58,5.92,38.69,8.1,58.08l6.95,5.62c.99-3.36,2.1-6.85,4.41-9.53-4.9-13.78-6.3-28.21-8.47-42.57l-1.15,1.73c-1.54-9.91-3.34-20.84-6.35-30.41-.86-2.74-2.54-5.5-3.48-8.1-.6-1.65,1.77.51,1.14-1.14-.23-.6-2.46-4.77-2.88-4.35.14,1.1-.69,1.9-.97,2.8-.47,1.55-3.46,13.55-3.43,14.29.01.36,2.56,6.3,2.84,6.51ZM233.27,339.71c.22.22.08,2.38-.25,2.88l-1.66.49c-1.22-.32-2.09-2.27-1.26-3.41.34-.56,3.05-.07,3.16.04ZM234.46,348.95l1.74.34c.32,2.59-.03,3.43-2.65,2.01l.04-2.36,1.44,2.32-.57-2.31ZM236.2,358.79c2.08-.32,4.06,1.88,2.01,3.47-1.73-.19-2.25-2.02-2.01-3.47ZM237.93,372.1c-.18-.12-.75-2.94.57-2.89l.29,2.31,1.44-1.15c.41,1.19-1.42,2.3-2.3,1.73ZM240.24,378.48l.86,2.88-2.01-.88.56-1.43,1.16,1.73-.57-2.31Z"/>
  <path class="cls-2" d="M132.67,310.23c-.38.24-2.28,7.07-2.87,8.42-2.49,5.67-7.05,11.18-13.26,12.79-.57.15-2.03.59-1.89-.44,9.24-2.37,13.14-11.97,15.62-20.27l-6.91-.55c-.14,1-.66,3.27-1.33,3.88-.15.13-3.43,1.65-3.63,1.66-1.25.07-3.78-2.84-4.88-2.07-.46,2.27-1.79,3.99-3.49,5.48,3.84,4.24,7.74,1.83,8.68-3.18,1.58.54-.2,4.55-.89,5.19-.19.18-4.5,2.17-4.77,2.22-2.57.54-7.24-5.38-7.65-5.1l-2.86,4.84c3.23,5.08,14.08,8.44,14.14-.21,2.56,4.42-1.33,8.36-6.05,7.55l-2.27,9.48c4.65,3.38,1.99,3.51.65,6.55-.86,1.95-1.45,4.38-1.92,6.47-1.64.41-2.75-.15-3.99-1.11-.07.86-.74,1.9-1.42,2.36-2.32,1.56-12.25-1.6-14.79-3.52-1,.86,1.98,9.09,3.76,9.84l.86-5.78.07,6.88c1.58,1.81,10.77-1.95,12.81-2.98,4.78-2.4,6.41-6.07,9.41-8.01.72-.47,3.78-.61,4.23-1.21.33-.43-.02-2.28.76-3.61,1.61-2.74,9.48-10.98,10.32-13.5.24-.73-.15-1.82.11-2.67.3-.96,1.96-1.07,2.14-1.87.44-1.93-2.11-4.52,3.02-5.81.67-3.16-.23-6.93-.11-9.81.06-1.36,1.7-.28,1.22-2l-2.81.08ZM115.23,334.48c.18-.17,2.58-.72,2.89-.58.32.77-2.41,1.37-2.89,1.15.03-.19-.08-.49,0-.57Z"/>
  <path class="cls-2" d="M181.78,161.93l-1.72-1.73c-1.52,3.02,1.67,1.09,1.14,2.59-.9,2.54-4.18,4.12-4.1,6.95,4.18,20.01,6.34,40.4,7.58,60.81l1.73,13.61c.11-4.4.16-9.24.59-13.6.37-3.76,1.79-8.61,1.78-12.16,0-2.99-2.57-7.7-2.18-9.89.13-.72,1.71-.81,2.04-1.79.81-2.41,1.73-12.02,1.86-14.94.63-14.01-.19-28.19-.06-42.31.05-5.02.81-5.93-.72-11.39-.3-1.06-.66-3.4-1.57-3.92-.97,9.54-2.1,19.12-6.38,27.79Z"/>
  <path class="cls-2" d="M87.62,362.67c-.64-.69-.65-2.11-1.62-2.72-.42.06-.56,1.09-.56,1.45-.05,5.83.16,14.44,1.8,19.99.56,1.9,2.61,4.46,2.66,6.8l3.06,1.73,1.43-1.02v1.74s1.15-.02,1.15-.02c-.21-1.69,5.86-2.92,6.38-3.47l-.59-1.73c.99.05,1.8.05,2.66-.55.56-.39,5.89-6.41,6.37-7.21.66-1.11,1.26-2.52,1.4-3.82.84-.38.36,2.26,1.44.57.54-.84.56-1.92.89-2.43,3.26-4.95,7.08-9.52,8.97-15.5.35-1.12.91-2.73-.88-2.33.89,3.24-.8,3.07-1.42,4.07-1.75,2.83-3.38,7.11-5.33,10.32-.37.62-1.61,3.21-2.51,2.11,3.8-5.27,6.24-11.22,9.01-17.04.36-.75,1.4-1.26,1.85-2.2.78-1.63.93-4.14,1.28-5.95-4.93,5.03-9.33,10.58-15.2,14.61-2.33,1.6-10.91,6.26-13.38,6.2-1.81-.04-7.65-2.28-8.87-3.61ZM90.35,380.21c-.08-3.6.41-7.12.57-10.72.03-.7-.43-2.15.58-2.02v6.07s-1.15,6.66-1.15,6.66ZM89.18,367.48v7.52s-.58,0-.58,0v-7.52s.58,0,.58,0Z"/>
  <path class="cls-2" d="M179.48,147.45c.83.14.79-1.01.98-1.61,3.84-12.05,5.85-20.01,4.8-32.83-.07-.8-.91-7.8-1.72-6.66-.06,1.72.87,3.64.47,5.36-.86,3.68-11.19,12.9-14.65,14.92-.54.32-1.58,1.11-2.04.28,3.53-4.15,12.91-9.4,14.33-14.62.74-2.74.48-6.54,1.29-9.41-2.82,2.78-4.78,7.29-8.14,9.51-1.64,1.09-3.52,1.14-4.56,1.81-.69.45-.98,1.7-1.74,2.31-2.52,2-5.54,3.61-8.71,4.32l5.2,7.23c.09.44-.56.37-.85.28-2.09-.65-17.25-16.64-19.39-19.4-2.98-3.83-5.71-7.3-5.51-12.43-2.04,2.98-6.66,11.97-6.49,15.25.08,1.63,2.41,6.44,3.2,8.3,2.03,4.73,4.75,9.23,6.97,13.88.81,1.7,4.03,10.42,4.69,10.94s1,.28,1.48-.3c2.97-3.58,6.85-6.36,10.15-9.54,3.07-2.96,4.74-8.07,9.43-6.01,4.31,1.89,7.9,11.49,10.16,15.88.41.79.62,1.66.64,2.55Z"/>
  <path class="cls-2" d="M92.65,307.26l-2.02-1.73c-3.36,5.25-7.02,10.75-.58,15.48l4.34-3.05-2.31-2.6c3.41-.49,4.94,2.76,7.23,4.49l4.31-3.7-1.12-1.94c1.26-.99,3.77,3.82,6.64-.02,3.24-4.33-1.69-6.67-.85-7.51,2.07.32,2.22,2.43,4.8,1.64,7.56-6.19-3.61-9.52-4.22-16.12,1.85,1.01,2.28,3.16,3.84,4.54,3.1,2.74,13.06,7.19,15.83,2.41-4.27,1.35-3.97-2.22-6.06-4.07-1.48-1.31-5.41-2.87-7.44-4.14-1.7-1.07-3.18-3.16-5.2-3.84-3.25.03-18.58,14.19-18.84,17.07-.11,1.26,1.97,1.65,1.65,3.08ZM101.92,313.62c-1.25.65-4.13-2.13-3.47-2.89l3.47,2.89Z"/>
  <path class="cls-2" d="M96.71,131.24l4.62-9.26-10.41,16.21c10.97,1.09,22.13,2.27,32.62,5.72.75-.14,5.75-8.05,6.02-9.04.72-2.72-1.26-7.97-.45-11.15-.16-.18-.96.59-1.46.53-2.43-.29-6.49-2.68-8.13-2.83-4.11-.39-11.64,3.26-16.16.13l-6.64,9.7ZM99.6,132.98c5.2,1.09-.22,6.51-3.24,4.1l-.81-2.95c1.11-.16.16,1.22.91,1.8,1.21.93,3.54.64,4.17-.92l-1.04-2.03ZM109.44,139.35h3.47s0,.57,0,.57h-3.47s0-.57,0-.57ZM115.81,140.51c1.17-.16,2.25.14,3.38.37.76.16,2.88.41,2.98,1.35l-6.36-1.73Z"/>
  <path class="cls-2" d="M94.97,346.63c1.3.34,7.15,3.08,8.07,2.28l4.08-12.7-3.54,7.74-1.07.09,4.63-10.72,1.14,1.73,1.11-5.14-2.28-.39-.65,4.88c-1.8-.08-3.13,1.95-4.41,2.29-.74.19-6.25-.46-7.12-.72-3.4-1.05-10.65-10.92-12.39-14.25-.71-1.35.47-2.78-1.76-3.44l-.85,6.12c-3.53-.7-.89.94-.3,2.56.64,1.74,1.08,3.95,1.45,5.79l.58-2.31c3.58,2.48-1.36,8.45.27,11.04.35.56,1.32.41,1.46.54-.24-.18-1.03-1.58-.29-1.73,2.58,1.89,5.47,3.37,8.4,4.63,3.01.76,6.31.94,9.27,2.02,1.22,1.31.3.84-.66.66-1.38-.25-4.04-.61-5.13-.95Z"/>
  <path class="cls-2" d="M83.4,342c4.6,4.32,6.15,3.21,11.58,4.63-.92-.29-2.51-1.32-3.47-1.74-2.16-.55-6.38-1.58-8.1-2.9Z"/>
  <path class="cls-2" d="M71.24,324.05l-5.21,30.1,12.7,2.3,1.23-9.48-2.28-1.29c-1.7-6.92-3.21-13.96-5.28-20.78-.25-.82.37-1.03-1.16-.86Z"/>
  <path class="cls-2" d="M186.41,268.46l-.87-8.67-24-28.38c.14,3.37-.77,6.94,1.48,9.81l23.4,27.25Z"/>
  <path class="cls-2" d="M181.79,275.99l2.32,2.9c.28-.28,1.45-.1,2.25-1.51,2.1-3.69-1.75-6.95-4-9.77-6.29-7.89-13.56-15.07-19.96-22.88-.04,2.69-1.43,5.81.03,8.07,6.18,7.82,14.08,14.75,19.36,23.19Z"/>
  <path class="cls-2" d="M182.95,280.04c.06-.08.99-.99,1.16-1.16-1.6-.41-1.77-2.02-2.32-2.9-3.87-2.73-6.74-8.63-10.42-11.29-.8-.58-.59-.18-.57.57l12.15,14.77c-8.31-6.97-13.54-16.87-21.41-24.32.26,2.65-.58,6.04.43,8.54.51,1.26,8.13,9.96,9.68,11.74,2.59,2.96,5.37,5.84,8.11,8.67.8-.92,1.88-1.64,2.63-2.59.61-.77.44-1.88.55-2.03Z"/>
  <path class="cls-2" d="M180.63,238.93c-3.07-2.79-5.08-5.96-8.1-8.68,1.44,3.29,4.58,5.86,6.62,8.71.27.38.2.96.32,1.13-6.26-6.39-11.16-14.54-17.2-20.68-.32-.33.03-1.15-1.32-.74l.88,8.67,23.42,27.8c-.61-2.32-.11-6.3-.69-8.28-.12-.41-4.28-5.61-5.09-6.77,1.51,1.54,3.13,3.06,4.62,4.63.34-2.73-3.23-3.34-3.47-5.79,1.09.99,2.3,1.99,3.47,2.89-.85-2.51-.1-5.65-1.01-7.96-1.01-2.55-11.52-15.17-14.06-18.36s-5.17-6.62-8.08-9.58v8.4c0,1.58,18.61,20.68,19.68,24.61Z"/>
  <path class="cls-2" d="M163.85,183.35c.13.27,1.37.78,1.74,1.16-.74-1.17-.19-1.08-1.74-2.32,0,.35-.08.98,0,1.16Z"/>
  <path class="cls-2" d="M167.32,186.82c-.82-1.33-.59-1.11-1.74-2.32.82,1.29.64,1.13,1.74,2.32Z"/>
  <path class="cls-2" d="M165,173.51c-1.65-1.59-2.92-3.5-5.2-4.05-.6.82.49,7.03,1.16,8.23.58,1.02,2.71,1.14,2.3,2.77l-1.72-1.15-.1,1.01-1.06-.45.31,8.08,20.81,27.81c1.27-3.97-1.06-7.84-.4-11.74-4.5-4.86-7.94-10.62-12.06-15.76-.57-.71-1.32-1-1.72-1.44,2.93,4.72,6.04,9.45,9.83,13.61.17,1.64-.72.48-1.17,0-4.58-4.79-8.48-11.63-12.14-17.09-.31-.46-1.96-.87-1.74-2.02l.29-.29c.39.51.97.77,1.45,1.16,0-.39-.21-1.18.29-1.16l16.21,20.84c.93-3.39-.01-6.78-1.45-9.84.37.21.77.52,1.15.58.53-.7-6.15-9.42-7.51-10.42,1.45,3.74,4.64,6.17,6.36,9.84-1.97-1.15-12.59-15.95-13.89-18.53,1.79,1.72,3.36,3.56,5.2,5.21,0-1.36-5.37-8.47-6.36-7.52.62.69.78,1.56,1.16,2.31ZM177.88,201.74l2.61,2.58-.59.6-2.61-2.58.59-.6Z"/>
  <polygon class="cls-2" points="182.94 229.09 182.06 220.43 160.38 193.19 161.6 202.67 182.94 229.09"/>
  <path class="cls-2" d="M294.07,353c1.29-1.07,2.73-1.19,4.29-.05.86.63-.35,2.08,1.18,1.77.46-.09,7-2.94,7.67-3.33,1.8-1.06,6.11-4.25,4.51-6.49-2.45,2.69-6.91,5.73-10.29,7.08-1.1.44-2.5,1.16-2.16-.71,2.34-.77,5.72-2.23,7.72-3.58.87-.59,6.48-5.4,6.79-5.96,3.03-5.34-5.58-10.82-6.99-4.37l1.73.86c-2.5.99-3.1,3.74-4.67,5.18-2.64,2.42-6.78,3.18-5.75,8.43l-1.43-2.88c-2.28.99-4.78,2.31-4.35,5.2,1.41.32.93-.49,1.73-1.16-.42,1.87,3.06,1.35,4.05,1.73l-4.05-1.73ZM299.28,349.52c.35-1.31,1.81-1.24,2.89-1.15v.57s-2.89.58-2.89.58Z"/>
  <path class="cls-2" d="M123.91,293.36c-.19,4.19,7.64,1.59,5.69,7.14-.97,2.76-6.55,1.66-8.21,2.21-2.99,1,.78,5.04,1.18,5.13.9.2,2.17-.12,3.29.06,3.22.52,6.38,1.38,9.62,1.67l1.74-14.47c-4.64.3-8.93-.23-13.31-1.74Z"/>
  <path class="cls-2" d="M291.28,326.83c.05.11.86.16,1.04.53,1.48,2.92,1.64,5.72,2.33,8.84.89.06.71-1.16,1.41-1.76,1.34-1.13,3.55-1.87,4.94-.26l-4.38.84c-.84,1.93.64,2.38,1.49,3.5l-1.73.29c1.22,1.62,3.49,1.62,4.95.32,3.58-3.17-2.82-13.16-.32-17.39-1.45.42-3.19-.55-4.37-.51-1.84.06-6.26,3.64-5.36,5.61Z"/>
  <path class="cls-2" d="M162.69,268.46c-.33-.09-1.23-.2-1.17.33l.02,7.94,12.72,13.44-3.47,2.6h8.39s8.97-2.89,8.97-2.89c-2.99-.41-5.67,1.29-8.57,1.61-1.54.17-2.93-.79-4.44.12l-.59-1.15c2.61-2.79,3.78-2.14,2.03-5.79-3.37-2.68-5.63-6.03-8.1-9.26-2.4-2.5-4.06-3.58-5.79-6.95Z"/>
  <path class="cls-2" d="M162.69,268.46c.83.23,4.5,4.51,5.24,5.49.43.57.43,1.3.55,1.45,2.8,2.91,6.34,5.59,8.1,9.26.33.26,2.22,1.85,2.31,1.74.16-.87-.09-1.35-.55-2.05-1.37-2.11-5.88-6.07-7.85-8.36-2.58-3.01-5.14-6.78-7.79-9.58-.44-.47-1.34-1.63-1.16,0,.88.49.83,1.42,1.15,2.04Z"/>
  <path class="cls-2" d="M301.73,321.87c-1.29,1.24-.12,6.77.73,6.8l4.92-3.46c.44,1.52-1.59,1.36-1.76,2.14-.38,1.69,1.02,4.22,1.2,5.96,2.46-2.21,5.06-2.08,8.09-1.16-.45-1.96.71-4.47.22-6.24-.24-.87-2.77-4.26-3.46-4.7-1.73-1.09-8.66-.57-9.93.65Z"/>
  <path class="cls-2" d="M157.48,300.3l-.28-1.73c-12.04,8.36-3.29,14.1,7.8,12.73l-8.68-1.16c-.14-.99,1.37-.62,2.01-.57,1.15.09,2.08.54,3.39.54.42,0,3.28-.35,3.27-1.11-5.15,1.17-6.83-2.89-10.13-5.79-2.15,1.58-1.87,3.89-.29,5.77-3.76-.81-2.29-5.75.29-7.51l6.48,6.23c3.89-.47,10.25.22,13.76-.47.93-.18,1.75-.81,2.04-1.72l-3.47.57c-2.11-8,1.68-6.46,7.83-7.59l1.42,1.22-.84-2.18-24.62,2.75ZM169.55,306.02c-4.24,1.93-8.08.26-7.78-4.58,2.36-1.05,5.34-2.34,7.78-1.04v5.62Z"/>
  <path class="cls-2" d="M144.17,295.67l-1.74,14.48h8.68c-2.72-4.17-.65-7.55,2.29-10.73l5.81-3.74c-4.85.59-10.29,1.19-15.04-.01Z"/>
  <path class="cls-2" d="M146.12,149.57c1.13,2.22,6.74,11.11,8.73,12.39.71.46,1.15.72,2.05.55l.88-9.87c-1.56-1.23-3.71-1.58-5.23-2.85-1.3-1.09-2-3.45-2.59-3.81-1.12-.69-2.27.5-3.21-.19-1.34-.98-2.75-4.55-4.03-5.85-.03,1.66.97,4.37,1.63,5.89.49,1.14,1.21,2.65,1.77,3.74Z"/>
  <path class="cls-2" d="M180.55,148.57c-.25.17-1.12-.44-1.67-.22-.76.3-4.84,4.53-6.24,5.26l3.37,10.64c2.45,1.91,10.17-23.65,8.67-26.05-.87.13-1.29,1.98-1.59,2.75-.5,1.29-2.05,7.29-2.54,7.63Z"/>
  <path class="cls-2" d="M64.3,357.05l-1.16,6.37c4.98-.22,9.66,1.96,14.47,2.9l.5-6.87-13.81-2.39Z"/>
  <path class="cls-2" d="M55.61,324.04l-2.02-2.32,5.49,2.32c-.76-3.89-.5-6.26,1.16-9.83l-6.36-4.06c-.04,5.09-6.21,12.68,1.73,13.89Z"/>
  <path class="cls-2" d="M163.85,157.3c1.63,1.2,3.6,3.62,4.87,5.26,1.96,2.52,2.4,6.5,5.87,3.43,1.01-1.68-4.94-9.84-5.65-12.04l-7.99-.69c.85,1.64,2.6,2.07,2.89,4.05-.34-.25-1.63-1.29-1.73-1.16l1.44,2.31c.49.03.34-.78.29-1.16Z"/>
  <path class="cls-2" d="M166.74,171.78l12.73,17.36c-.96-2.4-.59-6.09-1.27-8.27-.59-1.89-5.92-6.71-6.32-9.63l-5.13.54Z"/>
  <path class="cls-2" d="M181.21,293.95c5.34,3.78,2.57,8.43-1.16,12.15l9.25-1.74c-.08-2.33.85-4.55-1.75-5.5v-1.14c2.41-.66.56-3.15.59-4.93l-6.94,1.16Z"/>
  <path class="cls-2" d="M105.39,333.31c.89-4.04-2.77-3.78-4.95-5.75-1.64-1.48-2.3-3.88-3.72-5.56-1.71-1.09-3.18,1.74-4.37,2.62,2.17,5.19,7.43,8.41,13.04,8.69Z"/>
  <path class="cls-2" d="M169.13,132.48c-1.64,4.2-9.18,8.46-6.16,13.22,1.57.1,9.03-7.05,9.46-8.51.55-1.85-1.51-5.73-3.3-4.71Z"/>
  <path class="cls-2" d="M160.37,164.24c-.32-.08-.78.03-1.15,0-.26,1.78.53,2.57,2.31,2.31-.6-.78-.81-1.43-1.16-2.31,1.61.39,2.21,3.22,4.01,3.8.73.24,5.04,1.03,5.25-.05l-9.55-12.43c-.42,3.15-.86,5.8.29,8.68Z"/>
  <path class="cls-2" d="M158.63,149.77c.84-3.22.07-6.54-1.1-9.61-.23-.6.3-1-.93-.82l-5.93,4.92c-.12,1.44,7.64,5.9,7.95,5.51Z"/>
  <polygon class="cls-2" points="70.66 366.31 69.5 373.84 76.45 375 77.61 367.48 70.66 366.31"/>
  <path class="cls-2" d="M221.15,226.19c1.01.13.54-1.31.57-2.02.29-6.48-1.47-13.17-1.16-19.69l-1.14-7.24c-1.66,3.47-.23,7.64-.01,11.29.36,6.06.32,11.62,1.75,17.65Z"/>
  <path class="cls-2" d="M180.63,286.41c2.88-.76,5.65-1.5,8.68-1.15l-.59-10.42c-1.13.29-.3,2.22-.87,3.46-1.13,2.45-5.72,5.62-7.22,8.11Z"/>
  <path class="cls-2" d="M115.31,310.8c-1.42,2.45,4.11,4.55,6.01,2.25,1.31-2.86.06-6-2.61-7.53,1.16,3.09-3.04,4.67-3.4,5.28Z"/>
  <path class="cls-2" d="M192.21,80.87c1-.34,1.62-1.39,2.03-2.31.64-1.44,2.23-6.78,2.58-8.42.32-1.48-.71-.46-1.14-.27-.44-.81,1.59-4.57-.3-2.91-.61,2.15-.07,4.35-.41,6.53-.08.48-.85,2.72-1.6,2.74.81-2.91-.29-12.91,4.31-12.78.61.02-.1,1.45.89,1.2.47-4.41-1.69-4.14-3.78-1.18-2.48,3.51-1.72,12.86-2.58,17.39Z"/>
  <path class="cls-2" d="M71.82,311.31c-.12,1.68.74,3.22.62,4.91-.14,1.91-2.28,3.52-.05,4.35.37-.47-.96-3.84,1.38-2.82,1.81.79,2.18,4.18,3.83,5.14-.31-4.74-.7-9.68-5.78-11.57Z"/>
  <path class="cls-2" d="M160.96,139.92l2.89-4.34,4.63-4.92c-1.23.11-2.97-.36-4.05.29-.28.17-4.23,4.64-4.36,4.94-.71,1.57.76,2.5.9,4.03Z"/>
  <path class="cls-2" d="M171.95,150.35l5.17-3.25-4.32-4.84c-1.69,2.33-1.51,5.48-.86,8.09Z"/>
  <path class="cls-1" d="M160.95,38.01l-1.73.29,2.34,1.18-1.19,3.16c.82,0,1.55.18,2.32-.28,1.13-.66-1.67-2.49.28-2.6.45-.03,2.48,2.3,3.76,1.72.18-.9-1.01-.53-1.42-1.17-.51-.78-.27-1.83-1.13-2.93-1.23-1.58-4.31-1.6-3.82-4-3.17,1.26.81,4.47.58,4.63Z"/>
  <polygon class="cls-2" points="267.45 317.11 277.86 324.05 276.16 317.93 267.45 317.11"/>
  <polygon class="cls-2" points="123.33 203.04 114.31 189.77 107.13 181.61 116.4 195.2 123.33 203.04"/>
  <path class="cls-2" d="M107.13,341.42l-3.98,9.07c-.31,1.19,2.96,2.19,2.23.19l-1.15-.58c2.4.52,2.06-1.96,2.96-3.7.64-1.23,1.54-2.28,2.1-3.55l-2.16-1.44Z"/>
  <polygon class="cls-2" points="177.15 212.3 165.23 195.57 160.38 189.72 161.27 192.59 177.15 212.3"/>
  <path class="cls-2" d="M163.27,297.42l3.75.57,12.45-1.73c-5.64-1.29-10.77-.37-16.2,1.16Z"/>
  <path class="cls-2" d="M53.88,306.1c-1.03,2.3,1.13,4.21,2.93,5.46,2.66,1.85,6.8,2.99,9.8,4.37l-12.15-8.39,1.15-.57-1.73-.87Z"/>
  <path class="cls-2" d="M174.29,300.92l-.03,3.45c2.91.64,5.58-1.3,6.37-4.05l-6.33.6Z"/>
  <path class="cls-2" d="M173.1,255.15c-.56-1.7-2.31-3.48-3.48-4.91-2.36-2.87-4.87-5.79-7.5-8.41-.07,1.73,1.79,3.58,2.9,4.91,2.33,2.8,5.44,5.86,8.08,8.41Z"/>
  <path class="cls-2" d="M162.14,146.91c-2.4,4.67-.17,4.12,4.01,4.02.46-.41-2.44-5.1-4.01-4.02Z"/>
  <polygon class="cls-2" points="166.16 146.3 169.63 150.64 170.79 150.05 170.21 145.71 166.16 146.3"/>
  <path class="cls-2" d="M132.07,326.3c.8,1.28,5.08.37,3.72-2.25-1.35-2.61-4.92.34-3.72,2.25Z"/>
  <path class="cls-2" d="M138.96,233.72c1.86-.84.47-4.09.02-5.52-.85-2.67-2.68-6.36-4.65-8.37,1.46,4.65,5.06,8.74,4.63,13.89Z"/>
  <polygon class="cls-2" points="239.11 248.8 239.37 252.83 244.87 247.63 239.11 248.8"/>
  <path class="cls-1" d="M159.79,45.54c3.11.1,6.35-1.15,9.26-.57v-1.73c-2.91,1.38-7.59-.65-9.26,2.31Z"/>
  <path class="cls-2" d="M65.45,355.89l13.31,2.32c-.1-.9-2.14-1.25-2.88-1.45-3.43-.92-6.97-.54-10.15-2.01l-.28,1.14Z"/>
  <polygon class="cls-2" points="50.99 324.05 51.05 326.3 57.93 328.1 50.99 324.05"/>
  <path class="cls-1" d="M307.96,333.89c2.74-.18,4.83-.16,6.94,1.74.57-3.51-5.32-3.97-6.94-1.74Z"/>
  <path class="cls-2" d="M68.93,374.42c-.26,1.55.27,1.01,1.25,1.32,1.18.37,2.94.83,4.15,1.1.95.21,1.17.98,2.11-.41l-7.51-2.02Z"/>
  <path class="cls-2" d="M90.36,321.75l.85,2.28,3.76-3.74c-1.32-1.82-2.82,1.87-4.61,1.46Z"/>
  <path class="cls-2" d="M161.53,284.1l.08,2.81,3.97.66c-.28-.72-3.47-4.15-4.05-3.47Z"/>
  <rect class="cls-2" x="122.86" y="208.98" width="9.63" height=".84" transform="translate(232.57 -12.29) rotate(56.69)"/>
  <path class="cls-2" d="M133.17,332.15l-.87-4.04c-1.78,1.62-2.32,4.35.87,4.04Z"/>
  <path class="cls-2" d="M94.39,363.99c1.13-.62,3.01.08,3.69-.02.42-.06.28-.94.74-1.09.36-.12,2.06.6,2.51-.33-1.24-1.58-5.74.28-6.94,1.44Z"/>
  <path class="cls-2" d="M176,289.89l1.77.32,4.59-2.06c-3.42-.92-3.67.38-6.36,1.74Z"/>
  <path class="cls-2" d="M63.73,239.51c1.95.35,1.4-3.58,1.72-4.63-2.14,1.15-2.73,2.37-1.72,4.63Z"/>
  <polygon class="cls-2" points="136.07 320 138.38 316.85 136.35 315.37 136.07 320"/>
  <path class="cls-2" d="M185.85,271.35c1.08.11.58-1.22.28-1.73-.93-1.54-3.42-4.05-4.91-5.22l4.63,6.94Z"/>
  <path class="cls-2" d="M175.99,174.66l-1.72-1.16,3.46,5.21c.31-1.36-1.41-2.25-1.56-3.27-.12-.77,1.09-6.36-1.61-5.41-2.17.76,2.24,3.74,1.44,4.63Z"/>
  <path class="cls-2" d="M111.01,314.67c-.6.84-3.97,1.94-3.88,2.14,3.34,2.88,3.81-1.75,5.74-3.55l-1.68-1.95c-.22.6-.04,3.18-.17,3.36Z"/>
  <path class="cls-2" d="M114.65,308.99c1.52,1.42,3.36-3.05,2.89-4.05-.85.15-3.35,3.62-2.89,4.05Z"/>
  <path class="cls-2" d="M171.96,158.45c1.09.04.17-2.75.03-3.22-.22-.75-.17-2.21-1.47-1.99-1.51.25-.26,1.32-.06,1.78.48,1.08,1.44,2.11,1.5,3.43Z"/>
  <path class="cls-2" d="M291.66,352.88l.68-2.77c-3.25-.33-3.94,4.66-.68,2.77Z"/>
  <path class="cls-2" d="M100.17,174.09c-.23-.65-2.89-5.31-3.17-5.21-1.39.49-.42,1.18-.06,1.79.76,1.31,1.9,2.67,3.24,3.42Z"/>
  <path class="cls-2" d="M145.91,151.51c-1.37,1.29,1.6,3.79,1.81,5.13l1.07-.51.06,2.29,1.65.07c-.4,1.64-.31,2.7,1.77,2.27-1.03-1.22-2.31-4.31-3.19-5.25-.51-.55-1.36.08-1.4.02-.17-.25-.25-5.45-1.77-4.02Z"/>
  <path class="cls-2" d="M119.27,303.78l.59-2.31-3.47-1.16c-.67.7,2.72,3.67,2.88,3.47Z"/>
  <path class="cls-2" d="M183.53,153.82c.89-.1,1.06-2.41,1.18-3.16.07-.42.92-2.05-.32-2.04s-.87,4.26-.86,5.2Z"/>
  <path class="cls-2" d="M86.29,380.21l-1.73-4.63c.09,1.63-.79,4.64,1.73,4.63Z"/>
  <path class="cls-2" d="M103.65,318.84c-.42-.42-3.43,1.79-3.46,2.02-.22,1.98,4.12-.42,3.46-2.02Z"/>
  <path class="cls-2" d="M133.76,71.6c1.13.09.54-1.82.29-2.32-.29-.57-2.5-1.85-2.6-1.73l2.32,4.05Z"/>
  <path class="cls-2" d="M180.62,263.83c-.65-1.69-2.53-3.88-3.75-5.22-.92-1.01-2.02-2.16-3.19-2.89-.25,1.08.6,1.38,1.15,2.03,1.77,2.09,3.68,4.31,5.78,6.08Z"/>
  <path class="cls-2" d="M165,233.14l-3.46-4.63c-.79,1.35,3.26,4.85,3.46,4.63Z"/>
  <path class="cls-2" d="M127.96,66.39c-.16.19.05,4.51,1.15,4.63l.33-3.45-1.48-1.18Z"/>
  <path class="cls-2" d="M112.92,353.57c.45.01.91.07,1.35-.09,3.3-1.14-.54-4.19-1.35.09Z"/>
  <rect class="cls-2" x="75" y="319.7" width="6.94" height=".58" transform="translate(398.45 241.44) rotate(89.99)"/>
  <rect class="cls-2" x="159.81" y="256.66" width="9.85" height="1" transform="translate(249.11 -36.35) rotate(48.68)"/>
  <path class="cls-2" d="M182.36,219.25c-.12-2.41-3.01-4.66-4.62-6.37l4.62,6.37Z"/>
  <path class="cls-2" d="M86.87,359.37c.65,1.3,1.4,2.52,2.89,2.89.09-1.71-1.17-2.98-2.89-2.89Z"/>
  <rect class="cls-2" x="164.68" y="148.74" width="4.51" height="1.04" transform="translate(188.01 -73.68) rotate(53.6)"/>
  <path class="cls-2" d="M177.74,165.4h1.14s1.16-2.02,1.16-2.02l-.86-.86c-.98.8-1.69,1.53-1.44,2.88Z"/>
  <path class="cls-2" d="M124.49,296.84c.68,1.76,2.34,1.93,4.05,1.73-.47-1.09-2.96-1.48-4.05-1.73Z"/>
  <rect class="cls-2" x="174.43" y="227.13" width="10.76" height=".94" transform="translate(251.01 -53.59) rotate(52.52)"/>
  <path class="cls-2" d="M126.23,346.05l-1.16,5.79c1.39-.27.88-2.69,1.19-3.62.07-.21,3.02-2.06-.03-2.16Z"/>
  <polygon class="cls-2" points="181.79 155.56 181.21 159.03 182.85 156.32 181.79 155.56"/>
  <rect class="cls-2" x="101.7" y="177.72" width="4.49" height=".84" transform="translate(155.58 -21.54) rotate(44.76)"/>
  <path class="cls-2" d="M185.83,145.71l.58-2.89c-1.97-.13-2.52,2.16-.58,2.89Z"/>
  <path class="cls-2" d="M90.34,362.83c.12.13,3.09,1.58,3.47.3l-3.19-1.44-.28,1.14Z"/>
  <rect class="cls-2" x="184.1" y="251.09" width="5.2" height=".58" transform="translate(438.02 64.58) rotate(89.98)"/>
  <path class="cls-2" d="M172.53,168.87c.63-.06,1.44.15,2-.02,2.05-.62-.5-2.94-2,.02Z"/>
  <rect class="cls-2" x="162" y="210.42" width="9.49" height=".87" transform="translate(226.69 -51.19) rotate(51.22)"/>
  <path class="cls-2" d="M129.7,339.1c1.99.37.86-1.35,1.16-2.5.07-.25,2.12-1.11,1.14-3.29l-2.31,5.78Z"/>
  <path class="cls-2" d="M151.69,147.46l1.45,1.73h.86s0-.85,0-.85c-.61-.91-1.24-1.01-2.31-.87Z"/>
  <polygon class="cls-2" points="110.65 354.79 110.02 357.05 112.33 355.02 110.65 354.79"/>
  <rect class="cls-2" x="162.01" y="219.12" width="3.67" height=".84" transform="translate(201.58 -51.79) rotate(44.65)"/>
  <polygon class="cls-2" points="268.6 248.2 268.6 245.89 267.74 245.89 266.88 246.75 268.6 248.2"/>
  <path class="cls-2" d="M122.76,343.73l1.73-1.46v-.86s-.85,0-.85,0c-.91.61-1.01,1.24-.87,2.31Z"/>
  <polygon class="cls-2" points="167.9 169.46 167.9 170.61 170.79 170.03 170.79 169.46 167.9 169.46"/>
  <polygon class="cls-2" points="119.33 346.11 118.71 348.37 121.01 346.34 119.33 346.11"/>
  <path class="cls-2" d="M124.49,340.84l1.73-2.31c-1.46-.15-1.96.92-1.73,2.31Z"/>
  <rect class="cls-2" x="85.33" y="356.96" width="2.94" height=".98" transform="translate(405.47 173.72) rotate(73.68)"/>
  <rect class="cls-2" x="135.11" y="129.41" width="2.94" height=".98" transform="translate(222.88 -37.67) rotate(73.68)"/>
  <path class="cls-2" d="M156.89,166.56l-.07-1.67-1.66-.64c-.47.61.96,2.14,1.72,2.32Z"/>
  <path class="cls-2" d="M171.94,217.51c.19-1.04-.78-1.9-1.72-2.32-.19,1.04.78,1.9,1.72,2.32Z"/>
  <path class="cls-2" d="M170.21,263.83c.19-1.04-.78-1.9-1.72-2.32-.19,1.04.78,1.9,1.72,2.32Z"/>
  <path class="cls-2" d="M126.81,337.37c1.15-.31,1.3-1.24,1.15-2.32-1.15.31-1.3,1.24-1.15,2.32Z"/>
  <rect class="cls-1" x="223.68" y="343.74" width=".93" height="3.03" transform="translate(114.05 -51.38) rotate(17.48)"/>
  <path class="cls-2" d="M127.96,345.47v-2.89s-.57,0-.57,0c-.03,1.23-1.03,2.46.57,2.89Z"/>
  <path class="cls-2" d="M107.12,358.21c-.87-.87-2.47,1.72-.87,1.72.38,0,1.2-1.39.87-1.72Z"/>
  <polygon class="cls-2" points="162.11 168.3 162.11 169.45 164.42 169.45 164.42 168.88 162.11 168.3"/>
  <path class="cls-2" d="M139.53,137.03l-.58-2.89h-.57c-.09,1.08-.16,2.54,1.15,2.89Z"/>
  <path class="cls-2" d="M167.31,236.04c.19-1.04-.78-1.9-1.72-2.32-.19,1.04.78,1.9,1.72,2.32Z"/>
  <polygon class="cls-2" points="144.17 149.19 144.17 151.5 144.74 151.5 145.32 149.19 144.17 149.19"/>
  <polygon class="cls-2" points="128.54 339.68 128.55 341.99 129.11 341.99 129.69 339.68 128.54 339.68"/>
  <polygon class="cls-2" points="193.37 288.73 193.95 291.04 194.51 291.04 194.52 288.73 193.37 288.73"/>
  <path class="cls-2" d="M124.49,282.36c.34.74,1.41-2.09,1.15-2.89-.34-.74-1.41,2.09-1.15,2.89Z"/>
  <rect class="cls-2" x="171.37" y="219.97" width="5.78" height=".87" transform="translate(236.45 -53.6) rotate(51.12)"/>
  <path class="cls-2" d="M179.52,637.35c-.08.06.08.97-.43,1.1-1.02.27-2.54-.18-3.67,0,.37,1.41,4.01-.02,3.47,2.31-6.37-1.04-11.69-1.55-17.94.58,1.17-2.19,4.05-2.82,6.36-2.9.16-.99-1.39-.62-1.97-.53-3.67.62-6.74,2.74-10.14,4.05-.65.92,3.84,8.77,4.92,9.76,1.97,1.82,10.92,8.52,13.17,9.41,4.03,1.59,7.77,1.29,11.97,1.04l-5.78-1.15c2.59-.72,7.98-.03,10.03-1.26,1.85-1.11,2.33-5.56-.19-6.27-.55.67,2.38,3.51.58,4.05l-4.64-8.39c-4.79-.77-9.62-2.26-13.89-4.63,2.15-1.65,13.31,3.76,13.88,3.18l-4.64-10.42-1.1.06ZM160.95,650.02c.14-2.23,9.33-5.03,9.84-4.62.3,1.49-.32,1.01-1.13,1.45-2.47,1.33-5.96,2.51-8.71,3.17Z"/>
  <path class="cls-2" d="M145.33,645.39c7.92,2.43,8.55,12.22,13,16.82,8.08,8.36,17.57,8.81,28.32,6.85,9.2-1.67,9.2-3.21,6.14-12.09-1.29.52-.09,2.75-.86,4.05-.31.52-2.84,1.91-3.59,2.2-8.55,3.29-18.11.13-24.48-5.96l1.15-.57c-1.83-2.28-4.07-2.7-6.02-4.98-2.36-2.75-4.7-7.46-5.56-10.95l-8.1,4.62Z"/>
  <path class="cls-2" d="M219.99,421.32c.57,2.6-.64,5.48-.63,7.81.02,4.86,1.52,9.58,1.23,15.08-.66,12.66-3.09,25.47-3.5,38.18-.08,2.38-1.14,4.54.01,7.25.58-.25,1.41-.47,1.73-1.02.44-.77,2.29-6.37,2.65-7.63.16-.56.73-1.91-.32-1.77l-2.32,3.47,5.2-14.18v-35.03s-1.73.58-1.73.58c-1.38-3.78-.69-8.18-1.16-11.89-.11-.84-.44-1.79-1.16-.86Z"/>
  <path class="cls-2" d="M136.13,648.78l9.48,6.46,1.73-4.04,6.65,6.94c-1.97-8.2-11.4-10.42-17.07-15.63l-.8,6.28Z"/>
  <path class="cls-2" d="M93.02,596.56c-.16.31-1.52.25-.93,1.94,7.61-2.27,14.76-2.59,22.57-1.15l-.28,1.14c-5.88-1.64-12.09-.03-17.99.61-1.74.19-3.98-1.12-5.31.82,1.1,3.72,1.53,7.99,2.71,11.64.72,2.22,4.57,10.95,5.99,12.24,2.2,2.01,9.3,1.78,11.62.11,3.17-2.29,5.67-18.12,5.61-22.23-.06-3.74-1.84-7.93-1.2-11.86-8.12,6.55-16.57,4.24-23.72-2.32-.03,2.77,2.23,6.6.93,9.06ZM100.18,600.24c3.54.54,7.71.53,11.14,1.32,1.06.24,1.92.21,1.59,1.56-4.69,2.1-9.03,2.2-14.01,1-2.16-.52-4.65-.58-3.86-2.94s6.53,1.73,8.61.79l-3.47-1.72Z"/>
  <path class="cls-2" d="M117.54,588.07c-1.07.27-1.07.91-1.03,1.85.25,5.49,1.96,10.87,1.61,16.38-.22,3.36-3.14,17.51-5.54,19.35-3.92,3-11.52,1.25-14.71-2.55-5.38-6.42-8.87-25.11-9.29-33.56-.15-3.07,1.68-6.5-1.12-8.42.24,7.31-1.5,13.74-.52,21.06,1.57,11.7,8.5,33.99,24.36,27.4,7.71-3.2,8.57-20.74,7.98-27.9-.38-4.55-2.44-8.88-1.73-13.62Z"/>
  <path class="cls-3" d="M101.33,632.07c.07-1.05-1.42-.4-2.3-.87-.56-.31-2.61-2.91-2.9-2.59.46,2.42,2.87,3.98,5.2,3.47Z"/>
  <path class="cls-2" d="M89.76,187.4c-.45-1.89-.12-3.61-2.31-4.05l.27,3.49,2.04.56Z"/>
  <path class="cls-2" d="M85.72,182.19l1.44-2.89,1.44,2.31-.58-2.89c-2.39-.16-3.31,1.33-2.3,3.46Z"/>
  <path class="cls-3" d="M215.93,167.14c.25-1.09-.6-1.38-1.15-2.03-2.52-2.99-5.82-6.26-8.68-8.97l4.33,5.8,5.5,5.2Z"/>
  <path class="cls-3" d="M205.52,150.35c.29.88,2.94,1.06,3.76,1.15,3.39.35,7.26.39,10.7.58l-4.92-1.15-9.54-.58Z"/>
  <path class="cls-3" d="M223.45,149.19l-2,1.73-2.61-3.46c-1.26,3.75,4.68,6.18,4.62,1.74Z"/>
  <path class="cls-3" d="M196.26,256.88c.93.02.65-2.41.67-3.14.02-.81.75-1.37-.39-2.06l-.28,5.21Z"/>
  <path class="cls-3" d="M250.95,231.41c-3.74.5-7.35,3.12-10.13,5.5,1.99,1,3.77-2.02,5.25-2.85,1.66-.93,6.45-2.11,8.35-2.12,1.94,0,4.87,1.84,6.07-.53-3.01.29-6.63-.39-9.55,0Z"/>
  <polygon class="cls-3" points="306.8 314.21 302.94 313.27 298.7 314.21 306.8 314.21"/>
  <path class="cls-3" d="M286.55,328.68c1.51-.59.71-3.38,1.15-4.63-1.51.59-1.1,3.34-1.15,4.63Z"/>
  <rect class="cls-3" x="265.58" y="271.26" width=".84" height="3.67" transform="translate(268.7 -108.13) rotate(44.65)"/>
  <path class="cls-3" d="M268.03,271.35c1.04.19,1.9-.78,2.31-1.73-1.04-.19-1.9.78-2.31,1.73Z"/>
  <path class="cls-3" d="M269.18,297.41c.19-1.04-.78-1.9-1.72-2.32-.19,1.04.78,1.9,1.72,2.32Z"/>
  <path class="cls-3" d="M148.65,56.65c1.13-.18,11.29,1.81,11.67,2.27l.06,1.9c-.24.31-.47.63-.71.94-1.87-.53-3.73-1.06-5.6-1.59-1.18-.39-3.12-.87-5.51-.67-3.66.3-6.22,2.02-7.29,2.84,1.25-1.91,5.21-5.34,7.38-5.69Z"/>
  <path class="cls-3" d="M163.26,72.76l-1.08-5.4v-1.62c.92,2.2,1.28,4.69,1.08,7.02Z"/>
  <path class="cls-3" d="M148.22,64.07c.09-.85,2.16-1.3,2.86-1.47.98-.25,1.95-.3,2.94-.28,1.62-.04,2.46.08,2.52.37.05.22-.38.55-1.28.98-.66-.19-1.5-.37-2.46-.41-2-.09-3.61.42-4.57.82Z"/>
  <path class="cls-3" d="M149.08,66.39c2.78-.27,5.71-.06,8.39.58-.04-.05-.07-.08-.11-.13.65.3,1.2.71,1.63,1.26-.12.06-.23.12-.28.14-.07.02-.11.85-.49,1.04-2.73,1.37-9.07,3.3-11.4,1.1-.94-.89-.64-2.34-2.07-2.26.58-1.12,3.21-1.62,4.33-1.73ZM157.47,68.7c.06-.94-2.31-1.34-2.78-1.05-.62.38-.57,2.09-3.41,2.05-1.68-.02-2.97-2.46-4.79-1.28,3.46,3.34,7.13,1.88,10.99.28Z"/>
  <path class="cls-3" d="M170.11,58.76l-1.05-.47c-.07.91-.17,2.6.91,2.85,1.39.32,8.78-3.13,11.04-3.25,1.97-.11,4.47,2.14,6.57,2.14-1.11-1.62-6-4.57-7.81-4.67-2.12-.12-9.02,1.03-9.65,3.41Z"/>
  <path class="cls-3" d="M171.95,67.55l2.02-1.18c1.23,0,1.46,1.84,3.31,1.67,2.66-.24,2.54-3.19,5.66-2.22-2.12,3.77-6.79,2.88-10.42,2.32.18.67,2.74,1.62,3.22,1.7.94.15,1.86.09,2.8-.02,3.55-.43,4.25-2.04,6.12-4.57-3.8-.57-11.22-2.57-12.72,2.31Z"/>
  <path class="cls-3" d="M161.53,101.14l2.31,2.02-1.15.57c.41,1.2,6.43-.2,8.1.29l-1.15-1.44,2.31-2.6c-3.59,1.35-6.56,2.36-10.42,1.16Z"/>
  <path class="cls-3" d="M155.74,97.08c1.57,2.36,5.38.64,7.81.52,1.39-.07,2.79.68,3.93.52,2.63-.36,4.12-1.37,8.24-1.62,1.16-.07,1.67.45,1.43-1.16-1.91.79-4.41-.16-5.93.09-1.15.19-2.28,1.52-3.67,1.64-1.28.11-2.37-.64-3.42-.58-2.65.14-5.54,1.07-8.39.59Z"/>
  <path class="cls-3" d="M174.27,61.77l5.46.02,3.22,1.13c-1.75-2.73-6.03-1.83-8.68-1.14Z"/>
  <path class="cls-3" d="M162.11,87.23c-1.7-2.08-2.59-2.28-2.02-5.2-2.04,1.84-.45,4.95,2.02,5.2Z"/>
  <path class="cls-3" d="M162.11,84.92c-.15.84.14,1.31.96,1.56,3.13.98,2.34-1.89-.96-1.56Z"/>
  <path class="cls-3" d="M165.01,94.19v.57c1.35.34,2.47,1.13,3.47-.29l-3.47-.28Z"/>
  <path class="cls-3" d="M155.74,73.33c1.04.19,1.9-.78,2.31-1.73-1.04-.19-1.9.78-2.31,1.73Z"/>
  <path class="cls-3" d="M233.27,339.71c-.11-.11-2.83-.6-3.16-.04-.83,1.14.03,3.08,1.26,3.41l1.66-.49c.33-.5.47-2.66.25-2.88Z"/>
  <path class="cls-3" d="M236.2,358.79c-.24,1.45.29,3.27,2.01,3.47,2.04-1.59.07-3.79-2.01-3.47Z"/>
  <path class="cls-3" d="M234.46,348.95l.57,2.31-1.44-2.32-.04,2.36c2.62,1.42,2.97.58,2.65-2.01l-1.74-.34Z"/>
  <polygon class="cls-3" points="240.24 378.48 240.82 380.79 239.66 379.06 239.1 380.49 241.11 381.36 240.24 378.48"/>
  <path class="cls-3" d="M237.93,372.1c.89.56,2.72-.54,2.3-1.73l-1.44,1.15-.29-2.31c-1.32-.05-.75,2.77-.57,2.89Z"/>
  <path class="cls-3" d="M115.23,334.48c-.08.08.03.38,0,.57.48.22,3.21-.38,2.89-1.15-.31-.14-2.71.41-2.89.58Z"/>
  <path class="cls-3" d="M90.35,380.21l1.15-6.66v-6.07c-1.01-.14-.54,1.31-.58,2.02-.16,3.6-.65,7.12-.57,10.72Z"/>
  <rect class="cls-3" x="85.13" y="370.95" width="7.52" height=".58" transform="translate(460.11 282.26) rotate(89.99)"/>
  <path class="cls-3" d="M101.92,313.62l-3.47-2.89c-.67.76,2.22,3.54,3.47,2.89Z"/>
  <path class="cls-3" d="M99.6,132.98l1.04,2.03c-.63,1.56-2.96,1.85-4.17.92-.75-.58.2-1.95-.91-1.8l.81,2.95c3.02,2.41,8.44-3.01,3.24-4.1Z"/>
  <path class="cls-3" d="M115.81,140.51l6.36,1.73c-.1-.94-2.22-1.19-2.98-1.35-1.13-.23-2.21-.53-3.38-.37Z"/>
  <rect class="cls-3" x="109.44" y="139.35" width="3.47" height=".57"/>
  <rect class="cls-3" x="177.06" y="202.91" width="3.67" height=".84" transform="translate(194.53 -67.04) rotate(44.65)"/>
  <path class="cls-3" d="M299.28,349.52l2.89-.58v-.57c-1.08-.09-2.54-.16-2.89,1.15Z"/>
  <path class="cls-3" d="M169.55,306.02v-5.62c-2.43-1.29-5.41,0-7.78,1.04-.3,4.84,3.54,6.51,7.78,4.58ZM162.69,302.05l5.79-.58-.25,3.51c-3.3,1.58-5.06.6-5.54-2.93Z"/>
  <path class="cls-3" d="M160.95,650.02c2.75-.67,6.24-1.84,8.71-3.17.81-.44,1.42.04,1.13-1.45-.51-.4-9.7,2.39-9.84,4.62Z"/>
  <path class="cls-3" d="M100.18,600.24l3.47,1.72c-2.07.93-7.79-3.26-8.61-.79s1.7,2.42,3.86,2.94c4.97,1.2,9.32,1.1,14.01-1,.33-1.35-.53-1.32-1.59-1.56-3.43-.79-7.6-.77-11.14-1.32Z"/>
  <path class="cls-2" d="M154.69,67.65c-.62.38-.57,2.09-3.41,2.05-1.68-.02-2.97-2.46-4.79-1.28,3.46,3.34,7.13,1.88,10.99.28.06-.94-2.31-1.34-2.78-1.05Z"/>
  <path class="cls-2" d="M162.69,302.05c.48,3.53,2.24,4.51,5.54,2.93l.25-3.51-5.79.58Z"/>
  <path class="cls-3" d="M169.93,87.32c1.7-2.08,2.59-2.28,2.02-5.2,2.04,1.84.45,4.95-2.02,5.2Z"/>
  <path class="cls-3" d="M169.92,85.01c.15.84-.14,1.31-.96,1.56-3.13.98-2.34-1.89.96-1.56Z"/>
</svg>