<?xml version="1.0" encoding="UTF-8"?>
<svg id="Layer_1" data-name="Layer 1" xmlns="http://www.w3.org/2000/svg" viewBox="0 0 156.52 179.2">
  <rect x="21.19" y="27.11" width="116.98" height="128.25" fill="none"/>
  <path d="M1.04,142.02H0c.17-.61.46-1,.84-1.17.39-.17.67-.35.85-.52-.09-.17-.13-.3-.13-.39s-.04-.17-.13-.26l.78-.39v-.65l.13-.52c1.73-2.95,3.81-5.72,6.24-8.32l-.13-.26h.13l.26-.26c.09-.09.17-.15.26-.2.09-.04.17-.2.26-.46l-.52.13-.26-.26c-.43.87-1.04,1.69-1.82,2.47-1.12.87-1.86,1.86-2.21,2.99-.08,0-.22.02-.39.07-.17.04-.26.11-.26.19h.26v.13h-.52c.26-.95.82-1.86,1.69-2.73.61-.43,1.04-1.08,1.3-1.95l.39-1.04c.09.09.17.15.26.2.09.04.22.06.39.06l.13-.26.52-.78-.39-.13-.13-.26v-.13l.52-.52v-.26l.39.13.39-.26c0-.08.04-.13.13-.13l-.26-.13c-.08,0-.13-.04-.13-.13l-.13-.26c.35-.09.61-.35.78-.78v-.13h.26v.13l.26.13v-.26c.09-.17.13-.3.13-.39s.04-.17.13-.26v-.52h.39v.13h.13l.13-.26-.26-.13v-.13c.09-.08.24-.13.45-.13s.35-.04.39-.13c.04-.08.11-.17.19-.26.35-.52.65-1.17.91-1.95l.39-.78h-.39l-.26.13-.13-.26v-.26h-.26l-.13.26h-.26c.17-.52.41-1.02.72-1.5.3-.47.54-1.02.71-1.62h-.39l-.13.26h-.13v.26c-.09.09-.2.17-.33.26-.13.09-.19.22-.19.39v1.04l-.39.52c-.69.69-1.17,1.34-1.43,1.95h-.39l.39-1.3c.44-.26.65-.65.65-1.17l.78-.13v-1.04c.09-.17.35-.34.78-.52-.17,0-.26-.04-.26-.13h.39c0-.26.09-.48.26-.65v-.13h-.13v-.26c0-.09.04-.15.13-.2.09-.04.13-.08.13-.13s.02-.09.07-.13c.04-.04.11-.11.19-.2.09.09.15.15.19.2.04.04.15.09.33.13.17.04.35.06.52.06v-.52c-.35,0-.61.04-.78.13l.65-1.3-.13-.52c.17-.08.52-.32,1.04-.71.52-.39.78-.8.78-1.23l-.13-.26c.35-.26.63-.5.85-.71.22-.21.33-.54.33-.97h.65l.52-1.17c.17-.09.3-.26.39-.52h-.39v-.13h.65c-.09-.08-.13-.2-.13-.33s-.04-.28-.13-.46l.26.13h.39c0-.08.02-.19.06-.32.04-.13.15-.28.32-.46h-.26c-.17,0-.26-.04-.26-.13h.52c0-.09.04-.13.13-.13v-.13l.26-.26h-.13v-.13c-.17,0-.26-.04-.26-.13.69-.43,1.13-.91,1.3-1.43l-.26-.13v-.13c.09-.34.3-.67.65-.97.35-.3.6-.5.78-.58-.09,0-.13-.17-.13-.52l.39-.13c.09-.08.15-.15.2-.19.04-.04.06-.11.06-.2l.13-.52h.13c.26,0,.39-.04.39-.13v-.13c.17-.17.3-.43.39-.78.52-1.04,1.08-1.65,1.69-1.82.26-.95.74-1.95,1.43-2.99.87-1.56,1.86-2.99,2.99-4.29-.26,0-.39-.04-.39-.13h-.26c.17-.09.3-.24.39-.46.08-.22.22-.37.39-.46l-.13.39c0,.09.09.13.26.13.17-.34.48-.63.91-.84.43-.21.65-.54.65-.97v-.65c0-.08.11-.15.33-.2.22-.04.41-.15.58-.32v-.52c.09-.08.13-.21.13-.39-.43,0-1.08.09-1.95.26-.87.17-1.69.3-2.47.39h-1.82v-.26l1.04-.52h-.65v.13c-.09,0-.13-.04-.13-.13l.13-.26h.13c-.43,0-1.17.13-2.21.39v.13l1.04.13c0-.08.02-.15.06-.2.04-.04.11-.11.19-.19h.39v.13l-.52.39-.52.13h-.65l.13.39h-.13c0,.09-.09.13-.26.13-.17-.17-.35-.26-.52-.26s-.26-.04-.26-.13l.91-.39v-.13c-.69,0-1.13-.04-1.3-.13.35,0,.63-.04.85-.13.22-.09.41-.17.58-.26.17-.08.3-.17.39-.26v-.26h-.39c-.52.26-1.28.5-2.27.71-1,.22-1.97.37-2.93.46-.95,0-1.56-.04-1.82-.13.35-.26.61-.52.78-.78.17-.26.35-.48.52-.65.17-.17.48-.3.91-.39v-.26c-.09.09-.26.13-.52.13v-.39c-.09,0-.13-.04-.13-.13v-.13h.65v.13l-.26.13.26.13c.09-.17.22-.33.39-.46.17-.13.35-.24.52-.33h.13v.26h.26l.26-.26h.26v-.26l-.91.26c0-.08.04-.13.13-.13.61-.43,1.19-.69,1.75-.78.56-.08,1.1-.26,1.62-.52v-.13h-.78c-.35.17-1.39.43-3.12.78l-.13-.26h-.26l-.13-.26c.43-.08.95-.35,1.56-.78l-.13.13v-.26h.13v.13c.09.09.3.13.65.13l.26-.52h.91c.35-.17.52-.39.52-.65l.52-.13c.17,0,.3.04.39.13.6,0,1.04-.08,1.3-.26-3.64.17-7.28,1-10.92,2.47-1.04.52-2.04.78-2.99.78v-.13c-.08-.08-.15-.17-.19-.26-.04-.09-.19-.13-.46-.13-.17.17-.41.3-.71.39-.3.09-.58.17-.85.26,0-.08.04-.13.13-.13.69-.52,2.6-1.34,5.72-2.47,1.82-.69,2.84-1.06,3.06-1.11.22-.04.39-.06.52-.06s.24-.09.32-.26h-.26c.09,0,.13-.04.13-.13h.13c-.26,0-.43-.04-.52-.13-.26,0-.41.04-.45.13-.04.09-.11.15-.2.2-.08.04-.17.15-.26.33-.17,0-.26-.09-.26-.26v-.13l-.26-.13c-.26.17-.56.3-.91.39-.43,0-.74-.04-.91-.13h.26c.35-.17.74-.26,1.17-.26.78-.26,1.3-.52,1.56-.78h-.52l-4.16.91.52-.65c.44,0,1.43-.26,2.99-.78l2.21-.78v-.26h.13v-.13l-1.56.13c-.78,0-1.54.15-2.27.46-.74.3-1.5.5-2.27.58l.52-.52v-.39h.91l.13-.52h-1.56l.39-.13v-.26l.13-.13c-.17,0-.33-.02-.46-.06-.13-.04-.24-.11-.33-.19.17-.09.52-.2,1.04-.33s1.06-.3,1.62-.52c.56-.22.93-.41,1.1-.58h-.65l-.13.13h-.52v-.26c.09,0,.13-.04.13-.13.61,0,1.08.17,1.43.52.26-.08.46-.15.58-.19.13-.04.3-.15.52-.32.22-.17.32-.28.32-.33s.04-.06.13-.06h.91c.35,0,1.3-.35,2.86-1.04l2.6-.91c.35-.09.72-.13,1.1-.13s.69-.13.91-.39c.22-.26.39-.41.52-.46.13-.04.98-.06,2.54-.06.09-.17.17-.3.26-.39.09-.09.13-.17.13-.26,1.65-.69,3.21-1.04,4.68-1.04v.26l-.26.13.78.26c.09,0,.13-.04.13-.13.43-.17.74-.43.91-.78l-.65.13-.52-.13,2.08-.52c.35,0,.65.04.91.13h-.52l-.13.26h.39l.26-.26h.39v-.52l.13-.26-.13-.13h-.26c-.26.09-.56.15-.91.2-.35.04-.65.09-.91.13-.26.04-.5.09-.71.13-.22.04-.33.09-.33.13,0,.04-.04.06-.13.06v.13c-.09.09-.17.15-.26.19-.09.04-.22.06-.39.06l-.13-.26c0-.26.04-.39.13-.39s.17-.04.26-.13l.26-.13c.69,0,1.91-.22,3.64-.65l1.82-.39v.26h-.13c-.26.09-.5.15-.72.19-.22.04-.41.15-.58.33.09.09.17.15.26.19.09.04.3.07.65.07.52-.26,1.17-.39,1.95-.39h1.04c.17,0,.35-.13.52-.39-.78,0-1.43-.17-1.95-.52h.52c.26-.26.52-.46.78-.58.26-.13.52-.19.78-.19.17.17.39.3.65.39l.52-.39h.65v-.78c-.26,0-.52-.08-.78-.26.87-.35,1.56-1.13,2.08-2.34h.26v.13l.39-.13c.26-.26.43-.48.52-.65.08-.17.22-.26.39-.26.09.09.22.13.39.13s.35-.09.52-.26l.26-.13v-.13c-.17-.17-.28-.33-.33-.46-.04-.13-.06-.37-.06-.71.43-.26.89-.76,1.36-1.5.48-.74.89-1.5,1.24-2.27l-.26.13v-.26c-.43.43-.74.65-.91.65v-.26c.61-.43,1.04-.95,1.3-1.56h.39v.39c-.17.09-.28.17-.33.26-.04.09-.06.17-.06.26l-.13.13h.78c0-.26-.09-.48-.26-.65h.39l.52-1.3c.09.09.15.15.2.19.04.04.06.11.06.2.08-.09.15-.22.19-.39.04-.17.11-.39.19-.65.09-.26.17-.43.26-.52,0,.26.13.48.39.65v-.13c.43-.35.74-.82.91-1.43h-.39c0,.09-.07.15-.2.19-.13.04-.26.09-.39.13-.13.04-.24.06-.33.06l.26-.52h.13c0-.09-.04-.13-.13-.13v-.26l.52-.52h.39c.09.17.17.26.26.26.17,0,.32-.09.45-.26.13-.17.2-.35.2-.52l-.13-.39c0-.43.04-.78.13-1.04v-.13h.13c0-.08.04-.15.13-.19.09-.04.13-.15.13-.33h.39c.26,0,.39-.06.39-.19s.02-.22.06-.26c.04-.04.09-.08.13-.13.04-.04.11-.11.2-.19-.09-.09-.17-.15-.26-.2-.09-.04-.13-.11-.13-.19h-.39c-.95.69-2.12,1.04-3.51,1.04-.87,0-1.82.09-2.86.26-.69.17-1.47.3-2.34.39-1.39.26-2.51.52-3.38.78h-.91c-.61,0-1.34.17-2.21.52-3.29.95-5.2,1.43-5.72,1.43-.35,0-.61-.04-.78-.13h-.26c-.17.09-.28.17-.33.26-.04.09-.06.17-.06.26-.17-.09-.26-.17-.26-.26l-.52.26v.13c-.26,0-.48.04-.65.13v-.26l-.39-.13c-.17.17-.48.3-.91.39v-.39l1.04-.52c-.26-.17-.48-.26-.65-.26l1.95-.52v.26h-.39v.13l-.39-.13v.13h.13l-.13.13v.13h.26c.17-.17.37-.28.58-.33.22-.04.37-.11.46-.19-.09,0-.13-.04-.13-.13h-.26v-.13l.39-.26h-.26v-.13l-1.3.26v-.26c.69-.08,1.21-.26,1.56-.52l-.13-.26h.13v-.26l.13.13h.78l.52-.26-.26-.13c0-.17.69-.48,2.08-.91,1.04-.17,1.86-.48,2.47-.91-.09-.09-.35-.13-.78-.13-.35.17-.71.28-1.1.33-.39.04-.71.11-.98.19-.61.44-1.99.96-4.16,1.56v-.26h.13c1.82-.61,2.9-1,3.25-1.17l-1.04.26c-1.04.35-1.91.52-2.6.52v-.26l-.52-.26h-.65c-.09,0-.13-.04-.13-.13h.65l.26.13v-.39l.13-.13c.35,0,.84-.06,1.5-.19.65-.13,1.15-.33,1.49-.58h-1.56c-.09.09-.22.13-.39.13v-.13l.52-.26.13-.26h-.26c-.09.09-.26.17-.52.26-.26.09-.56.13-.91.13l.13-.52-.26-.13c-.17.17-.44.26-.78.26l-1.3-.13v.26l-.39.26v.13c.17,0,.35.02.52.06.17.04.3.11.39.19h-.13c-.43.26-1.26.52-2.47.78h-.52c.35-.17.74-.33,1.17-.46.43-.13.78-.24,1.04-.33v-.13c-.26,0-.46-.02-.58-.06-.13-.04-.22-.09-.26-.13-.04-.04-.09-.11-.13-.2-.04-.09-.11-.13-.19-.13l1.95-.78v-.26h-.39v.26c-.09.09-.3.13-.65.13,0-.26.02-.43.06-.52.04-.09.11-.17.19-.26.09-.08.13-.17.13-.26.35-.17.74-.26,1.17-.26l.13.13v.26h.26c.09-.09.22-.15.39-.19.17-.04.39-.11.65-.2v-.13h-.65l-.39.26.13-.26v-.13h.39l.13-.26-.13-.13.13-.26h-.52l.26-.13h1.04l.26-.52h-.13v-.13l-1.3.13v-.39h.26v-.13h-.39l-.91.39.13-.52c.43-.08.8-.24,1.1-.46.3-.22.63-.37.98-.45v-.26l-.52.13c-.52,0-.82-.04-.91-.13.26-.26.87-.48,1.82-.65v.26h.13v.13h-.39l-.13.13,1.82-.13c.17,0,.26-.04.26-.13l-.13-.13h.39l.13-.13-.52-.13-.13-.26c.61,0,1.17-.11,1.69-.32.52-.22.91-.37,1.17-.46l.26-.13v-.13h-.65c-.26.17-1,.35-2.21.52v-.26c-.09,0-.13-.04-.13-.13h.52l.13-.26h.26v-.26h-.39c-.43,0-.74-.04-.91-.13.78-.17,1.32-.39,1.62-.65.3-.26.45-.69.45-1.3h-.39c1.56-1.39,4.29-2.43,8.19-3.12.17-.17.26-.35.26-.52h-.52c.95,0,1.78-.09,2.47-.26v-.39c.52,0,.87-.04,1.04-.13.17-.09.39-.17.65-.26v.13l-.65.13-.26.13v.13h.13l1.17-.13c0-.09.09-.13.26-.13v-.39l.52-.13c.17.17.35.26.52.26.09,0,.22-.04.39-.13.17-.09.35-.13.52-.13v-.52c1.13,0,1.71-.04,1.75-.13.04-.08.09-.17.13-.26.04-.09.11-.13.2-.13.08.09.3.13.65.13.43,0,.69-.06.78-.19.09-.13.17-.22.26-.26.09-.04.22-.09.39-.13.17-.04.26.02.26.19h.39c.17-.09.43-.24.78-.46.35-.22.74-.32,1.17-.32h.78c.26,0,.52-.13.78-.39h.65c.26,0,.43-.04.52-.13v-.13l.26-.13c.09,0,.13.02.13.06,0,.04.04.11.13.2h.26c0,.09.04.13.13.13.35-.09.61-.22.78-.39s.39-.3.65-.39c.26-.09.56-.15.91-.2.35-.04.65-.11.91-.19v.52l.26-.26v-.13h.26l.26-.13c.17,0,.69-.04,1.56-.13.87-.09,1.56-.22,2.08-.39v-.39h-.52c-.26.26-.65.39-1.17.39h-.26c.43-.43,1.04-.65,1.82-.65l3.12-.78,2.21-.65c1.65-.43,2.56-.74,2.73-.91.17.09.3.15.39.2.08.04.21.06.39.06l.52-.13v-.78l-.52.13v-.65l1.04-.52v.13c-.17.26-.26.52-.26.78s.04.48.13.65h.26v.13h.26c0-.08.02-.17.07-.26.04-.09.11-.15.2-.19.08-.04.21-.15.39-.33l.78.13c1.12,0,1.99-.13,2.6-.39.09-.35.22-.65.39-.91.17-.26.32-.5.45-.72.13-.21.24-.32.33-.32s.13.04.13.13h.13v-.26l.13-.13-.13-.26c-.09,0-.13-.04-.13-.13l.46-.46c.13-.13.41-.28.85-.46v-.26h.13v.13c0,.09.04.13.13.13h-.26l-.13,1.04c-.26.35-.48.82-.65,1.43-.43.09-.69.15-.78.19-.09.04-.17.11-.26.19,0,.09.04.17.13.26.08.09.22.13.39.13l.39-.13h.52l.26-.52c.09.17.13.28.13.32,0,.04.13.07.39.07l1.95-.52c1.73-.35,2.99-.52,3.77-.52.35,0,.56.04.65.13h-.13c-.35.17-.7.26-1.04.26h-1.04v.39h.13l-.13.13c-.52.26-.98.39-1.37.39s-.76.09-1.1.26l.13.26v.52c.17-.09.3-.17.39-.26.08-.08.2-.15.33-.19.13-.04.33-.11.58-.19l-.39.91c.09.09.3.13.65.13l.26-.52h.65c.43-.17,1.3-.39,2.6-.65,3.64-.78,5.63-1.17,5.98-1.17,1.04,0,1.78-.11,2.21-.32.43-.22.74-.33.91-.33.34,0,.61.04.78.13,0-.35-.04-.56-.13-.65h-1.04c-.52.35-1.26.56-2.21.65-2.08.35-3.6.52-4.55.52v-.26c2.86-.26,5.35-.63,7.48-1.1,2.12-.48,4.44-.8,6.95-.98v-.26l-.65-.13c-.26.17-.61.26-1.04.26h-.13v-.39c.95,0,1.86-.04,2.73-.13.87-.09,2.08-.13,3.64-.13l.26.13v-.13h.13v-.13l.13-.13c0-.09.04-.15.13-.19.09-.04.26-.11.52-.2h.91v.13l-1.17.13v.39c3.47-.17,6.46-.43,8.97-.78,2.86-.43,6.63-.74,11.31-.91v.13c-.09.09-.24.13-.46.13s-.46.04-.71.13v.26c.17,0,.26-.04.26-.13.26,0,.43.04.52.13-.17.09-.43.3-.78.65l1.69-.13v.13h.26l.26-.65h-1.43c.17,0,.3-.04.39-.13l.78-.39-.52-.13c.52,0,.87-.04,1.04-.13h.65l-.13.26v.39c.34-.17.65-.26.91-.26v-.13h.39l3.9-.26v.13l.52-.13v.13l-.13.26h-.39l-.26.13c0-.09.04-.13.13-.13v-.13h.13v-.13c-.35.17-.52.35-.52.52v.13c0,.09.07.13.2.13s.24.04.33.13l-1.56.13v-.13h-.39l-.13.13,2.08.26c.26-.09.39-.15.39-.2,0-.04.04-.11.13-.19l.39-.13.26.13v.13h-.39l-.26.13c.26,0,.52.04.78.13.26.09.48.17.65.26v.13l-.26.26.13.26c.26,0,.48.02.65.06.17.04.39.11.65.19l-.13-.26v-.13h-.13v-.26c.26.09.43.19.52.32.08.13.17.28.26.46l.39-.13,1.17.26c.69.17,1.34.26,1.95.26.17.09.26.17.26.26h-.26c-.35.17-.78.26-1.3.26s-1.06-.04-1.62-.13c-.56-.09-1.02-.13-1.37-.13h-.13v.13h.39c.43.26,2.29.52,5.59.78l2.6.26c0,.09-.04.13-.13.13-.35.26-.54.41-.58.46-.04.04-.11.06-.2.06-.69-.52-2.34-.78-4.94-.78l-1.82.13v.13l1.82.39v.26l-1.3-.13h-.91l-.13-.26h-.26c0-.17-.09-.3-.26-.39-.09.17-.15.3-.2.39-.04.09-.32.13-.84.13l-.91-.13-1.43.13c0,.09.04.13.13.13.52.26,1.73.39,3.64.39.78,0,1.39.04,1.82.13h-.13c0,.09-.09.13-.26.13v.26l-.39.26-.91-.13-1.56.26v.13c.17.09.35.15.52.2.17.04.3.11.39.19-.61.09-1.6.13-2.99.13v.65c-.35,0-.61.04-.78.13h-.13v.13h.78c.52.09,1.11.06,1.75-.06.65-.13,1.13-.19,1.43-.19s.67-.09,1.1-.26c1.04-.35,2.82-.52,5.33-.52h2.08l-.13.26c-1.39.09-2.1.15-2.15.19-.04.04-.11.06-.19.06l-.13-.13c-.17,0-.3.04-.39.13v.13c0,.26-.13.39-.39.39l-.26-.13-.26.13c.17,0,.35.04.52.13.17.09,1.12.13,2.86.13.61.09,1.15.13,1.62.13s.85.04,1.11.13h-.26c-.7.43-2.08.78-4.16,1.04-.87,0-1.6.09-2.21.26l.13.26.39.26c.78.26,1.43.39,1.95.39s.91.04,1.17.13c-.61,0-1.13.09-1.56.26h.26c.26.09.65.13,1.17.13l.39-.39.78-.13v.26c0,.09.04.13.13.13v.26l.78-.13c0,.09.04.13.13.13s.17.04.26.13l-.26.13v.13h.13v.26c-.87,0-1.47.09-1.82.26l1.04.26h-.26c-.17.17-.43.3-.78.39l.13.26c0,.17.04.26.13.26v.39c-.35-.17-.67-.35-.98-.52-.3-.17-.5-.35-.58-.52v.26l-.39.26v-.13l-.26.13v.39c-.78.43-2.43.74-4.94.91l-2.73.26v.13l.26.13v.13c0,.26-.04.48-.13.65l-.26-.13v-.13h-.52l.13.26-.91.39h.39c0,.09.04.13.13.13-.17,0-.26.04-.26.13h-.13l-.52.26v-.52c.08,0,.13-.04.13-.13.08-.09.22-.15.39-.19.17-.04.35-.11.52-.2v-.13h-.91l.26-.52h-.65c0,.09-.04.13-.13.13,0,.09.04.13.13.13v.26l-.13.13c-.17.17-.44.3-.78.39.08.17.13.28.13.33s.04.06.13.06v.13c0,.09.04.13.13.13-.52,0-.95.04-1.3.13-1.3.26-2.86.39-4.68.39v-.26l.39-.13v-.13h.13l-1.04.26.13.39-.39.78h.26v-.13c.09,0,.13-.02.13-.06s.04-.11.13-.2l.13-.26h1.95l1.17.13c.87,0,1.69-.13,2.47-.39v.39c-1.04.26-2.12.39-3.25.39l-1.56-.13v.13c0,.17.09.24.26.19.17-.04.3-.06.39-.06s.15.02.2.06c.04.04.11.15.19.33-1.56,0-2.64.22-3.25.65l3.12-.39c0,.09-.06.17-.2.26-.13.09-.8.26-2.01.52-1.21.26-2.04.39-2.47.39.08,0,.13-.04.13-.13s.07-.15.2-.19c.13-.04.3-.11.52-.2.22-.08.41-.17.58-.26-.17-.09-.48-.13-.91-.13l-.26.26h-.26c-.17-.17-.35-.26-.52-.26v.13h-.13v.13l-.52.13h-.13c0-.08.04-.17.13-.26.08-.09.13-.22.13-.39h-.26v.26c-.09.09-.15.15-.2.19-.04.04-.11.11-.2.19-.09.09-.22.13-.39.13-.09-.09-.22-.13-.39-.13h-.26c-.17,0-.35.09-.52.26l-.13-.26v-.13l-1.82-.13v.52c.17,0,.33-.02.46-.06.13-.04.24-.11.33-.2v.39l-1.04.13v-.13c.08-.09.13-.3.13-.65h-.78c-.26.09-.48.15-.65.19-.17.04-.44.06-.78.06v.39c.26,0,.48-.04.65-.13h.13l.26-.26h.13c.17,0,.35.09.52.26v.13l-.13.26c-.69.26-2.77.52-6.24.78-1.74.09-3.08.22-4.03.39v.13l-.26.13-.91-.13h-1.04c-4.33.95-8.71,1.69-13.13,2.21-3.38.35-6.37.78-8.97,1.3-1.21.26-2.4.39-3.57.39s-2.23.09-3.19.26c-.87,1.39-1.82,2.69-2.86,3.9-1.21,1.56-2.25,3.08-3.12,4.55h-.13l-.13-.26h-.26c0,.17-.04.3-.13.39-.09.09-.17.22-.26.39l.52.13-.39.78c.08,0,.13.04.13.13h-.13v.39c-.35.52-.78,1.04-1.3,1.56l-1.17,1.56v.26c.08,0,.13.04.13.13-.17,0-.33.04-.46.13-.13.09-.24.13-.33.13-.26.35-.48.65-.65.91-.17.26-.28.5-.32.71-.04.22-.11.37-.2.46.87,0,1.39.04,1.56.13l-1.95.39v.26l1.3-.13h1.95c0,.09.04.13.13.13h-.26c-.17.17-.28.28-.32.33-.04.04-.11.09-.2.13-.09.04-.26.06-.52.06h-.13c-.52.26-1.04.41-1.56.46-.52.04-1,.11-1.43.19l.39.39h.26c.78-.52,2.64-.87,5.59-1.04,1.13-.09,2.08-.22,2.86-.39,5.29-.95,12-1.65,20.15-2.08,0,.09-.04.13-.13.13v.39l-.52-.13-.78.26-.52-.13v.26l-.13.13c-.35,0-.57-.04-.65-.13l-.52-.26c-.09.09-.15.15-.2.19-.04.04-.07.11-.07.19l-.26.13c-.35,0-.61-.04-.78-.13v.39l.13-.13c.08.09.28.17.58.26.3.09.67.13,1.1.13.26,0,.46-.02.58-.06.13-.04.46-.19.98-.46l.39.13v.13c0,.09.02.15.06.19.04.04.24.06.59.06v-.52l.52-.13c0,.35.17.52.52.52.43,0,.65-.04.65-.13l.13-.26c.26-.17.74-.26,1.43-.26,0,.09.04.13.13.13l-.13.26h-.13c0,.26.04.43.13.52.69-.17,1.69-.26,2.99-.26h-.26v.13h-.26c0,.26-.09.39-.26.39v.13c-.09,0-.15-.02-.2-.06-.04-.04-.11-.11-.2-.19l-.39.26c0,.09.08.13.26.13v.13l-.26.13c-1.04,0-1.58-.02-1.62-.06-.04-.04-.07-.11-.07-.19v-.13c-.17,0-.3.07-.39.2-.09.13-.17.19-.26.19l-.26-.13v-.26l-.52-.13c0,.09-.04.15-.13.2-.09.04-.17.09-.26.13-.09.04-.13.11-.13.19v-.52c-.69.35-1.56.65-2.6.91v-.39h-.26c0-.09-.04-.13-.13-.13v-.13h.13-.13l-.13.26-.13.13h-.26c-.26.09-.39.26-.39.52l.13.39-.13.26v-.26c-.09,0-.13-.04-.13-.13-.09,0-.13.09-.13.26l-.78.39v-.26h-.13c-.09,0-.13-.04-.13-.13,0,.09-.02.22-.07.39-.04.17-.15.35-.33.52l2.99-.26h2.34l.26-.26.65-.26c.35,0,.52-.04.52-.13h.13l.13-.52.13-.13h.78c.17-.17.43-.26.78-.26l.52.13c-.7,0-1.34.09-1.95.26v.52h.65l-.78.13-.13.26h1.17c.26-.09.56-.17.91-.26.34-.09.89-.2,1.62-.33.74-.13,1.45-.19,2.14-.19s1.17.09,1.43.26h-.91l-.13.91c-.26,0-.48.04-.65.13-.09-.26-.2-.46-.33-.58s-.46-.19-.97-.19c-.17.17-.43.26-.78.26-.96,0-1.52.02-1.69.06-.17.04-.28.11-.32.19-.04.09-.33.26-.85.52v.13c-.09.09-.15.15-.19.19-.04.04-.11.06-.2.06v.13c-.17,0-.3.04-.39.13v-.13l.39-.39v-.13h-.65v.52c0,.09-.39.22-1.17.39l-1.43-.39v.26l-.26.13-.39.13c-.17-.17-.3-.26-.39-.26s-.17.06-.26.19c-.09.13-.17.2-.26.2h-.65v.39c-.35-.17-.74-.26-1.17-.26-.09.09-.13.15-.13.19,0,.04-.04.06-.13.06v.13l-.13.26h1.17c.87,0,1.91-.15,3.12-.46,1.21-.3,2.38-.46,3.51-.46l.78.39c.26,0,.5-.11.72-.33s.5-.41.84-.58c.95,0,1.62.04,2.01.13.39.09.8.17,1.24.26v-.52h.65v.13h-.39v.26c0,.09.13.13.39.13v.52c-.17,0-.35-.02-.52-.06-.17-.04-.35-.09-.52-.13-.17-.04-.28,0-.33.13-.04.13-.07.24-.07.33l-.78.13h-1.04c-.17-.09-.39-.13-.65-.13,0,.43-.09.65-.26.65s-.39.04-.65.13v-.13h-.13v-.13l.39-.26v-.13l.26-.13h-.52l-.26.13h-.26v.65c0,.09-.02.19-.07.33-.04.13-.11.24-.2.32-.69,0-1.13-.09-1.3-.26l-1.3.65v.26h.26c.43-.17.78-.26,1.04-.26.61,0,1-.04,1.17-.13.17-.09.26-.15.26-.2,0-.04.02-.08.07-.13.04-.04.08-.09.13-.13.04-.04.11-.11.2-.2v.26l-.13.26c.08.09.13.26.13.52-1.04,0-1.91.22-2.6.65h.39v.13c.26,0,.43-.04.52-.13h.52v.52h.39v-.39h.26c.09.09.22.13.39.13s.3.04.39.13c.08-.17.15-.28.2-.32.04-.04.08-.11.13-.2.04-.08.15-.17.33-.26h.39l.26-.13-.26.26v.26l.39-.52.26.13h.39c-.09.09-.13.15-.13.19,0,.04-.04.06-.13.06l-.26.39c.17,0,.3-.09.39-.26l.39-.13c0,.09.04.13.13.13-.17.17-.32.28-.46.32-.13.04-.28.06-.45.06l-.26-.13c-.09,0-.26.04-.52.13-.26.09-.41.17-.46.26-.04.09-.09.17-.13.26-.04.09-.15.17-.33.26v-.26l.13-.26v-.13l-.78.13c-1.21.26-2.47.43-3.77.52v.26h-.13v.13l3.64-.52.78-.13v.26h-.26l-.13.39,2.86-.13v.26l-1.3.26c-.78.26-1.78.43-2.99.52l.13-.26h.13v-.26c-.09.09-.22.13-.39.13l-.26.13c-.17.17-.28.3-.33.39-.04.09-.11.22-.2.39l.52-.13c.69,0,1.08.04,1.17.13-.87,0-1.39.17-1.56.52h1.04l-.26.26c-1.04.17-2.38.3-4.03.39v.13l-.13.26,1.04-.13h1.17c0,.09.07.15.2.19.13.04.24.11.33.19l-.13.52h-.26c0-.26-.04-.43-.13-.52l-.91.52c-.35,0-.61-.04-.78-.13v.39h.13l-.13.13h-.52c-.43.17-1.08.3-1.95.39h-2.08l-.13.65c-2.86.43-5.63,1.04-8.32,1.82-2.25.61-3.95,1-5.07,1.17-.69,0-1.43.13-2.21.39-2.43.61-4.94,1.13-7.54,1.56l-6.11,1.3c-.78.17-1.84.35-3.19.52-1.34.17-2.56.37-3.64.58-1.08.22-1.75.5-2.01.84l-.26.13h.13v.26l.26-.13.52.13h-.26v.13l-.26.13h-.39l-.26.39c.35,0,.6.04.78.13-1.13.17-1.78.78-1.95,1.82-.26.69-.89,1.5-1.89,2.41-1,.91-1.75,1.97-2.27,3.18h-.52c-.26.26-.39.5-.39.71s-.04.37-.13.46h-.26c-.17,0-.43.3-.78.91l-1.04,2.47h-.13.13v-.13l-.39-.26v-.13h-.78l-.13.78h.39l.13.26-.91.13v1.04c.09.09.13.3.13.65h-.26v-.39h-.52c-.17.61-.56,1.3-1.17,2.08-1.48,2.08-2.56,3.38-3.25,3.9,0,.09.04.13.13.13v.13h.13l-.13.13c-.26.44-.69.96-1.3,1.56v.13c-.09,0-.13-.04-.13-.13h.13v-.13h-.26l-.13.26v.13h.39c0,.09-.11.15-.32.2-.22.04-.37.11-.46.19-.09.09-.22.17-.39.26l.13-.52-.26.13h-.26c-.09.09-.15.13-.2.13s-.06.04-.06.13l-.13.65.39-.13.13.26c-.43.35-.78.8-1.04,1.37-.26.56-.78.97-1.56,1.24-.17.78-.65,1.71-1.43,2.79-.78,1.08-1.52,1.88-2.21,2.4l-.26-.26v.13c-.35.43-.61.87-.78,1.3h-.26l1.04-2.08c.52-1.21,1.08-2.04,1.69-2.47.09,0,.13.04.13.13l.26.13c0-.43.06-.67.19-.72.13-.04.24-.11.33-.19v-.13h.13c-.09-.09-.15-.17-.2-.26-.04-.08-.06-.21-.06-.39l.13-.26h.26c.09-.09.13-.22.13-.39s.04-.34.13-.52c-.09,0-.13.04-.13.13-.43.43-.82.74-1.17.91l-.13.13c0,.52-.61,1.69-1.82,3.51h-.26c-.09.09-.22.15-.39.2-.17.04-.28.09-.32.13-.04.04-.06.11-.06.2l.13.52h.13c-.09.09-.17.13-.26.13s-.13.04-.13.13h-.26l-.13.26h.26v.13h.13-.13.13v.13h-.52c-.17,0-.3.09-.39.26-.44.35-.91.96-1.43,1.82-1.47,2.08-2.3,3.51-2.47,4.29h.65c0,.09.02.15.06.2.04.04.19.11.46.19-.17.17-.28.28-.33.33-.04.04-.09.11-.13.2-.04.09-.11.26-.2.52l.52-.13.13.26h-.13c-.09.26-.26.48-.52.65-.17-.17-.35-.26-.52-.26h-.13v-.52l-.13-.13c-.52.43-1.04.78-1.56,1.04,0,.43-.13.91-.39,1.43l-1.3,1.82c-.17,0-.26-.04-.26-.13l-.13-.13h-.26c0,.17-.17.43-.52.78-.43,0-.65-.08-.65-.26h.26v-.13l.39.13v-.13h-.13l.26-.13v-.26l-.52.13v-.26l.26-.13.13-.52-.39.13.13.26c-.43.44-.89,1.11-1.36,2.02-.48.91-.93,1.71-1.37,2.4-.43.69-.87,1.13-1.3,1.3v-.13c-.09-.09-.15-.2-.19-.33-.04-.13-.07-.46-.07-.98l-.13-.13.39-.13c.09,0,.13-.02.13-.06,0-.04.02-.09.06-.13.04-.04.11-.15.2-.32l-.91.13c-.09-.09-.13-.3-.13-.65.26,0,.43-.04.52-.13v-.13l.26-.26v-.26c0-.6.48-1.38,1.43-2.34.17-.08.3-.21.39-.39h-.52v.13l-.13-.13h-.26c-.35.78-.74,1.39-1.17,1.82-.43.43-.82.87-1.17,1.3h.26v.13l.26.13h-.65l.13.78c-.35.26-.65.56-.91.91-.61.6-1.13.95-1.56,1.04-.17.69-.56,1.25-1.17,1.69h-.39l-.13.26h.26l-1.04.65-1.17,1.3-.26-.13h-.39c.17-.26.26-.52.26-.78.78-.52,1.21-.95,1.3-1.3h-.26v-.26l.26.13c.17,0,.26-.04.26-.13h.13l-.52-.26.26-.78v-.52c0-.09.04-.17.13-.26.26-.43.56-.78.91-1.04.35-.26.69-.69,1.04-1.3h-.39l.26-.13c.26-.26.52-.58.78-.97.26-.39.56-.72.91-.98l-.39-.39c.09-.09.2-.15.33-.2.13-.04.19-.15.19-.33-.09,0-.13-.04-.13-.13l-.26.13c-.52.43-1.04,1.26-1.56,2.47l-1.3.13.65-1.17-1.3-.13c0,.26-.04.44-.13.52-.09.09-.17.22-.26.39-.08.17-.13.39-.13.65h-.65c-.35,1.13-1,2.12-1.95,2.99-.52.52-.93,1.02-1.23,1.5-.3.47-.46.84-.46,1.1-.26.43-.61.82-1.04,1.17-.95.95-1.52,1.73-1.69,2.34-.17.61-.43,1.13-.78,1.56l-.26.39c-.26.52-.78,1.17-1.56,1.95h-.26c-.09.08-.2.13-.33.13s-.28.13-.46.39h.26v.13Z" fill="#861634"/>
</svg>