<?xml version="1.0" encoding="UTF-8"?>
<svg id="Layer_1" data-name="Layer 1" xmlns="http://www.w3.org/2000/svg" viewBox="0 0 391.7 425.53">
  <defs>
    <style>
      .cls-1 {
        fill: #871633;
      }
    </style>
  </defs>
  <g>
    <path class="cls-1" d="M200.55,305.13c.95.98,1.25,1.93,1.19,3.28-.07,1.62,1.36,3,2.85,3,1.6,0,2.78-1.37,2.85-3,.12-2.81-.96-5.56-2.86-7.52-2.62-2.7-6.65,1.53-4.03,4.24h0Z"/>
    <path class="cls-1" d="M212.82,312.48c3.66,0,3.67-5.99,0-5.99s-3.67,5.99,0,5.99h0Z"/>
    <path class="cls-1" d="M209.74,322.19c3.66,0,3.67-5.99,0-5.99s-3.67,5.99,0,5.99h0Z"/>
    <path class="cls-1" d="M218.44,329.39c1.91-3.9,2.99-7.99,3.34-12.36.3-3.84-5.4-3.82-5.7,0-.26,3.27-1.13,6.41-2.56,9.33-1.67,3.42,3.24,6.46,4.92,3.02h0Z"/>
    <path class="cls-1" d="M217.94,297.38c3.66,0,3.67-5.99,0-5.99s-3.67,5.99,0,5.99h0Z"/>
    <path class="cls-1" d="M218.97,310.33c3.66,0,3.67-5.99,0-5.99s-3.67,5.99,0,5.99h0Z"/>
    <path class="cls-1" d="M201.54,326.09c1.83,0,1.84-3,0-3s-1.84,3,0,3h0Z"/>
    <path class="cls-1" d="M208.71,315.3c1.83,0,1.84-3,0-3s-1.84,3,0,3h0Z"/>
    <path class="cls-1" d="M205.64,316.38c1.83,0,1.84-3,0-3s-1.84,3,0,3h0Z"/>
    <path class="cls-1" d="M200.51,317.46c1.83,0,1.84-3,0-3s-1.84,3,0,3h0Z"/>
    <path class="cls-1" d="M195.39,316.38c1.83,0,1.84-3,0-3s-1.84,3,0,3h0Z"/>
    <path class="cls-1" d="M191.29,306.67c1.83,0,1.84-3,0-3s-1.84,3,0,3h0Z"/>
    <path class="cls-1" d="M199.49,299.12c1.83,0,1.84-3,0-3s-1.84,3,0,3h0Z"/>
    <path class="cls-1" d="M161.56,313.14c1.83,0,1.84-3,0-3s-1.84,3,0,3h0Z"/>
    <path class="cls-1" d="M184.11,362.76c1.83,0,1.84-3,0-3s-1.84,3,0,3h0Z"/>
    <path class="cls-1" d="M230.24,366c1.83,0,1.84-3,0-3s-1.84,3,0,3h0Z"/>
    <path class="cls-1" d="M237.42,336.88c1.83,0,1.84-3,0-3s-1.84,3,0,3h0Z"/>
    <path class="cls-1" d="M252.8,350.9c1.83,0,1.84-3,0-3s-1.84,3,0,3h0Z"/>
    <path class="cls-1" d="M225.12,351.98c1.83,0,1.84-3,0-3s-1.84,3,0,3h0Z"/>
    <path class="cls-1" d="M228.19,345.51c1.83,0,1.84-3,0-3s-1.84,3,0,3h0Z"/>
    <path class="cls-1" d="M228.19,339.27h-1.03c-.74,0-1.46.69-1.42,1.5.03.81.63,1.5,1.42,1.5h1.03c.74,0,1.46-.69,1.42-1.5-.03-.81-.63-1.5-1.42-1.5h0Z"/>
    <path class="cls-1" d="M209.74,335.8c1.83,0,1.84-3,0-3s-1.84,3,0,3h0Z"/>
    <path class="cls-1" d="M205.64,335.8c1.83,0,1.84-3,0-3s-1.84,3,0,3h0Z"/>
    <path class="cls-1" d="M206.36,331.28c1.37-.72,2.73-1.44,4.1-2.16,1.64-.86.2-3.45-1.44-2.59-1.37.72-2.73,1.44-4.1,2.16-1.64.86-.2,3.45,1.44,2.59h0Z"/>
    <path class="cls-1" d="M211.79,327.17c1.83,0,1.84-3,0-3s-1.84,3,0,3h0Z"/>
    <path class="cls-1" d="M213.82,322.45c-.34-.36-.68-.72-1.03-1.08-.53-.55-1.49-.6-2.01,0-.52.6-.56,1.53,0,2.12.34.36.68.72,1.03,1.08.53.55,1.49.6,2.01,0,.52-.6.56-1.53,0-2.12h0Z"/>
    <path class="cls-1" d="M205.64,321.77c1.83,0,1.84-3,0-3s-1.84,3,0,3h0Z"/>
    <path class="cls-1" d="M203.02,320.77c.7,1.79,1.41,3.58,2.11,5.37.3.75.94,1.27,1.75,1.05.67-.19,1.29-1.1.99-1.84-.7-1.79-1.41-3.58-2.11-5.37-.3-.75-.94-1.27-1.75-1.05-.67.19-1.29,1.1-.99,1.84h0Z"/>
    <path class="cls-1" d="M207.69,330.4c1.83,0,1.84-3,0-3s-1.84,3,0,3h0Z"/>
    <path class="cls-1" d="M209.74,334.72c1.83,0,1.84-3,0-3s-1.84,3,0,3h0Z"/>
    <path class="cls-1" d="M215.89,337.95c1.83,0,1.84-3,0-3s-1.84,3,0,3h0Z"/>
    <path class="cls-1" d="M223.07,331.48c1.83,0,1.84-3,0-3s-1.84,3,0,3h0Z"/>
    <path class="cls-1" d="M225.12,331.48c1.83,0,1.84-3,0-3s-1.84,3,0,3h0Z"/>
    <path class="cls-1" d="M224.09,321.44c2.75,0,2.75-4.49,0-4.49s-2.75,4.49,0,4.49h0Z"/>
    <path class="cls-1" d="M226.14,326.84c2.75,0,2.75-4.49,0-4.49s-2.75,4.49,0,4.49h0Z"/>
    <path class="cls-1" d="M215.89,320.36c2.75,0,2.75-4.49,0-4.49s-2.75,4.49,0,4.49h0Z"/>
    <path class="cls-1" d="M212.82,313.89c2.75,0,2.75-4.49,0-4.49s-2.75,4.49,0,4.49h0Z"/>
    <path class="cls-1" d="M211.79,304.18c2.75,0,2.75-4.49,0-4.49s-2.75,4.49,0,4.49h0Z"/>
    <path class="cls-1" d="M225.12,311.74c2.75,0,2.75-4.49,0-4.49s-2.75,4.49,0,4.49h0Z"/>
    <path class="cls-1" d="M230.24,317.13c2.75,0,2.75-4.49,0-4.49s-2.75,4.49,0,4.49h0Z"/>
    <path class="cls-1" d="M223.07,318.21c2.75,0,2.75-4.49,0-4.49s-2.75,4.49,0,4.49h0Z"/>
    <path class="cls-1" d="M224.18,315.96v-1.08c0-.58-.24-1.18-.63-1.59-.37-.39-.98-.68-1.51-.66-.55.03-1.13.22-1.51.66-.38.44-.63.98-.63,1.59v1.08c0,.58.24,1.18.63,1.59.37.39.98.68,1.51.66.55-.03,1.13-.22,1.51-.66.38-.44.63-.98.63-1.59h0Z"/>
    <path class="cls-1" d="M221.02,313.89c2.75,0,2.75-4.49,0-4.49s-2.75,4.49,0,4.49h0Z"/>
    <path class="cls-1" d="M214.87,313.89c2.75,0,2.75-4.49,0-4.49s-2.75,4.49,0,4.49h0Z"/>
    <path class="cls-1" d="M206.66,312.81c2.75,0,2.75-4.49,0-4.49s-2.75,4.49,0,4.49h0Z"/>
    <path class="cls-1" d="M197.44,313.89c2.75,0,2.75-4.49,0-4.49s-2.75,4.49,0,4.49h0Z"/>
    <path class="cls-1" d="M217.94,302.36h1.03c.74,0,1.46-.69,1.42-1.5-.03-.81-.63-1.5-1.42-1.5h-1.03c-.74,0-1.46.69-1.42,1.5.03.81.63,1.5,1.42,1.5h0Z"/>
    <path class="cls-1" d="M223.07,301.28c1.83,0,1.84-3,0-3s-1.84,3,0,3h0Z"/>
    <path class="cls-1" d="M214.87,307.75c1.83,0,1.84-3,0-3s-1.84,3,0,3h0Z"/>
    <path class="cls-1" d="M205.15,302.72c3.99,1.21,7.37,3.76,9.68,7.4,1.01,1.6,3.48.1,2.46-1.51-2.73-4.3-6.66-7.35-11.38-8.78-1.76-.53-2.52,2.36-.76,2.89h0Z"/>
    <path class="cls-1" d="M215.49,310.59c2.05-1.09,4.09-2.18,6.14-3.26,1.64-.87.2-3.46-1.44-2.59-2.05,1.09-4.09,2.18-6.14,3.26-1.64.87-.2,3.46,1.44,2.59h0Z"/>
    <path class="cls-1" d="M229.22,303.43c1.83,0,1.84-3,0-3s-1.84,3,0,3h0Z"/>
    <path class="cls-1" d="M230.24,307.75c1.83,0,1.84-3,0-3s-1.84,3,0,3h0Z"/>
    <path class="cls-1" d="M236.39,308.83c1.83,0,1.84-3,0-3s-1.84,3,0,3h0Z"/>
    <path class="cls-1" d="M235.37,327.17c1.83,0,1.84-3,0-3s-1.84,3,0,3h0Z"/>
    <path class="cls-1" d="M228.19,317.46c1.83,0,1.84-3,0-3s-1.84,3,0,3h0Z"/>
    <path class="cls-1" d="M228.19,313.38c-1.21,0-2.42,0-3.64,0-.7,0-1.32.57-1.4,1.3-.08.67.31,1.53,1.02,1.64,1.86.3,3.57-.18,5-1.48.58-.53.52-1.58,0-2.12-.58-.61-1.43-.53-2.01,0-.59.54-1.45.84-2.23.71-.13.98-.25,1.96-.38,2.94,1.21,0,2.42,0,3.64,0,1.83,0,1.84-2.99,0-3h0Z"/>
    <path class="cls-1" d="M231.27,312.06c1.83,0,1.84-3,0-3s-1.84,3,0,3h0Z"/>
    <path class="cls-1" d="M231.27,308.83c1.83,0,1.84-3,0-3s-1.84,3,0,3h0Z"/>
    <path class="cls-1" d="M225.12,306.67c1.83,0,1.84-3,0-3s-1.84,3,0,3h0Z"/>
    <path class="cls-1" d="M222.04,306.67c1.83,0,1.84-3,0-3s-1.84,3,0,3h0Z"/>
    <path class="cls-1" d="M201.54,338.7c2.75,0,2.75-4.49,0-4.49s-2.75,4.49,0,4.49h0Z"/>
    <path class="cls-1" d="M213.84,345.18c2.75,0,2.75-4.49,0-4.49s-2.75,4.49,0,4.49h0Z"/>
    <path class="cls-1" d="M243.57,324.68h1.03c.55,0,1.12-.25,1.51-.66.37-.39.65-1.03.63-1.59-.02-.58-.21-1.18-.63-1.59-.42-.4-.93-.66-1.51-.66h-1.03c-.55,0-1.12.25-1.51.66-.37.39-.65,1.03-.63,1.59.02.58.21,1.18.63,1.59.42.4.93.66,1.51.66h0Z"/>
    <path class="cls-1" d="M254.85,311.74c2.75,0,2.75-4.49,0-4.49s-2.75,4.49,0,4.49h0Z"/>
    <path class="cls-1" d="M239.47,317.13c2.75,0,2.75-4.49,0-4.49s-2.75,4.49,0,4.49h0Z"/>
    <path class="cls-1" d="M230.24,325.76c2.75,0,2.75-4.49,0-4.49s-2.75,4.49,0,4.49h0Z"/>
    <path class="cls-1" d="M205.64,295.55c2.75,0,2.75-4.49,0-4.49s-2.75,4.49,0,4.49h0Z"/>
    <path class="cls-1" d="M194.36,283.69c2.75,0,2.75-4.49,0-4.49s-2.75,4.49,0,4.49h0Z"/>
    <path class="cls-1" d="M226.14,288c2.75,0,2.75-4.49,0-4.49s-2.75,4.49,0,4.49h0Z"/>
    <path class="cls-1" d="M256.9,331.48c1.83,0,1.84-3,0-3s-1.84,3,0,3h0Z"/>
    <path class="cls-1" d="M277.4,325.01c1.83,0,1.84-3,0-3s-1.84,3,0,3h0Z"/>
    <path class="cls-1" d="M177.28,345.15c1.83,0,1.84-3,0-3s-1.84,3,0,3h0Z"/>
    <path class="cls-1" d="M180.01,332.92c1.83,0,1.84-3,0-3s-1.84,3,0,3h0Z"/>
    <path class="cls-1" d="M222.38,341.52c.92,0,.92-1.5,0-1.5s-.92,1.5,0,1.5h0Z"/>
    <path class="cls-1" d="M215.55,331.45c.92,0,.92-1.5,0-1.5s-.92,1.5,0,1.5h0Z"/>
    <path class="cls-1" d="M218.28,336.49c.92,0,.92-1.5,0-1.5s-.92,1.5,0,1.5h0Z"/>
    <path class="cls-1" d="M225.8,337.21c.92,0,.92-1.5,0-1.5s-.92,1.5,0,1.5h0Z"/>
    <path class="cls-1" d="M227.85,333.61c.92,0,.92-1.5,0-1.5s-.92,1.5,0,1.5h0Z"/>
    <path class="cls-1" d="M210.08,345.83c.92,0,.92-1.5,0-1.5s-.92,1.5,0,1.5h0Z"/>
    <path class="cls-1" d="M180.69,362.38c.92,0,.92-1.5,0-1.5s-.92,1.5,0,1.5h0Z"/>
    <path class="cls-1" d="M178.64,354.46h2.05c.92,0,.92-1.5,0-1.5h-2.05c-.92,0-.92,1.5,0,1.5h0Z"/>
    <path class="cls-1" d="M187.85,351.42c.46-.24.91-.48,1.37-.72.34-.18.44-.69.26-1.02-.2-.37-.63-.45-.97-.27-.46.24-.91.48-1.37.72-.34.18-.44.69-.26,1.02.2.37.63.45.97.27h0Z"/>
    <path class="cls-1" d="M212.82,365.97c.92,0,.92-1.5,0-1.5s-.92,1.5,0,1.5h0Z"/>
    <path class="cls-1" d="M205.3,369.57c.92,0,.92-1.5,0-1.5s-.92,1.5,0,1.5h0Z"/>
    <path class="cls-1" d="M196.41,363.81c.92,0,.92-1.5,0-1.5s-.92,1.5,0,1.5h0Z"/>
    <path class="cls-1" d="M208.71,349.43c.92,0,.92-1.5,0-1.5s-.92,1.5,0,1.5h0Z"/>
    <path class="cls-1" d="M242.2,348.65h-2.05c-.92,0-.92,1.5,0,1.5h2.05c.92,0,.92-1.5,0-1.5h0Z"/>
    <path class="cls-1" d="M231.27,337.21c.92,0,.92-1.5,0-1.5s-.92,1.5,0,1.5h0Z"/>
    <path class="cls-1" d="M235.89,324.08c1.37.24,2.73.47,4.1.71.9.15,1.28-1.29.38-1.44-1.37-.24-2.73-.47-4.1-.71-.9-.15-1.28,1.29-.38,1.44h0Z"/>
    <path class="cls-1" d="M231.99,326.71c-.46.72-.91,1.44-1.37,2.16-.51.8.72,1.56,1.23.76.46-.72.91-1.44,1.37-2.16.51-.8-.72-1.56-1.23-.76h0Z"/>
    <path class="cls-1" d="M227.15,321.81c4.11-.19,8.21-.05,12.3.41.91.1.9-1.4,0-1.5-4.1-.46-8.19-.6-12.3-.41-.91.04-.92,1.54,0,1.5h0Z"/>
  </g>
  <g>
    <path class="cls-1" d="M296.19,171.76c.95.98,1.25,1.93,1.19,3.28-.07,1.62,1.36,3,2.85,3,1.6,0,2.78-1.37,2.85-3,.12-2.81-.96-5.56-2.86-7.52-2.62-2.7-6.65,1.53-4.03,4.24h0Z"/>
    <path class="cls-1" d="M308.45,179.12c3.66,0,3.67-5.99,0-5.99s-3.67,5.99,0,5.99h0Z"/>
    <path class="cls-1" d="M305.38,188.82c3.66,0,3.67-5.99,0-5.99s-3.67,5.99,0,5.99h0Z"/>
    <path class="cls-1" d="M314.08,196.02c1.91-3.9,2.99-7.99,3.34-12.35.3-3.84-5.4-3.82-5.7,0-.26,3.27-1.13,6.41-2.56,9.33-1.67,3.42,3.24,6.46,4.92,3.02h0Z"/>
    <path class="cls-1" d="M313.58,164.01c3.66,0,3.67-5.99,0-5.99s-3.67,5.99,0,5.99h0Z"/>
    <path class="cls-1" d="M314.6,176.96c3.66,0,3.67-5.99,0-5.99s-3.67,5.99,0,5.99h0Z"/>
    <path class="cls-1" d="M297.17,192.72c1.83,0,1.84-3,0-3s-1.84,3,0,3h0Z"/>
    <path class="cls-1" d="M304.35,181.93c1.83,0,1.84-3,0-3s-1.84,3,0,3h0Z"/>
    <path class="cls-1" d="M301.28,183.01c1.83,0,1.84-3,0-3s-1.84,3,0,3h0Z"/>
    <path class="cls-1" d="M296.15,184.09c1.83,0,1.84-3,0-3s-1.84,3,0,3h0Z"/>
    <path class="cls-1" d="M291.02,183.01c1.83,0,1.84-3,0-3s-1.84,3,0,3h0Z"/>
    <path class="cls-1" d="M286.92,173.3c1.83,0,1.84-3,0-3s-1.84,3,0,3h0Z"/>
    <path class="cls-1" d="M295.12,165.75c1.83,0,1.84-3,0-3s-1.84,3,0,3h0Z"/>
    <path class="cls-1" d="M257.19,179.77c1.83,0,1.84-3,0-3s-1.84,3,0,3h0Z"/>
    <path class="cls-1" d="M279.75,229.4c1.83,0,1.84-3,0-3s-1.84,3,0,3h0Z"/>
    <path class="cls-1" d="M325.88,232.63c1.83,0,1.84-3,0-3s-1.84,3,0,3h0Z"/>
    <path class="cls-1" d="M333.06,203.51c1.83,0,1.84-3,0-3s-1.84,3,0,3h0Z"/>
    <path class="cls-1" d="M348.43,217.53c1.83,0,1.84-3,0-3s-1.84,3,0,3h0Z"/>
    <path class="cls-1" d="M320.75,218.61c1.83,0,1.84-3,0-3s-1.84,3,0,3h0Z"/>
    <path class="cls-1" d="M323.83,212.14c1.83,0,1.84-3,0-3s-1.84,3,0,3h0Z"/>
    <path class="cls-1" d="M323.83,205.9h-1.03c-.74,0-1.46.69-1.42,1.5.03.81.63,1.5,1.42,1.5h1.03c.74,0,1.46-.69,1.42-1.5-.03-.81-.63-1.5-1.42-1.5h0Z"/>
    <path class="cls-1" d="M305.38,202.43c1.83,0,1.84-3,0-3s-1.84,3,0,3h0Z"/>
    <path class="cls-1" d="M301.28,202.43c1.83,0,1.84-3,0-3s-1.84,3,0,3h0Z"/>
    <path class="cls-1" d="M301.99,197.91c1.37-.72,2.73-1.44,4.1-2.16,1.64-.86.2-3.45-1.44-2.59-1.37.72-2.73,1.44-4.1,2.16-1.64.86-.2,3.45,1.44,2.59h0Z"/>
    <path class="cls-1" d="M307.43,193.8c1.83,0,1.84-3,0-3s-1.84,3,0,3h0Z"/>
    <path class="cls-1" d="M309.46,189.08c-.34-.36-.68-.72-1.03-1.08-.53-.55-1.49-.6-2.01,0-.52.6-.56,1.53,0,2.12.34.36.68.72,1.03,1.08.53.55,1.49.6,2.01,0,.52-.6.56-1.53,0-2.12h0Z"/>
    <path class="cls-1" d="M301.28,188.4c1.83,0,1.84-3,0-3s-1.84,3,0,3h0Z"/>
    <path class="cls-1" d="M298.66,187.4c.7,1.79,1.41,3.58,2.11,5.37.3.75.94,1.27,1.75,1.05.67-.19,1.29-1.1.99-1.84l-2.11-5.37c-.3-.75-.94-1.27-1.75-1.05-.67.19-1.29,1.1-.99,1.84h0Z"/>
    <path class="cls-1" d="M303.33,197.03c1.83,0,1.84-3,0-3s-1.84,3,0,3h0Z"/>
    <path class="cls-1" d="M305.38,201.35c1.83,0,1.84-3,0-3s-1.84,3,0,3h0Z"/>
    <path class="cls-1" d="M311.53,204.59c1.83,0,1.84-3,0-3s-1.84,3,0,3h0Z"/>
    <path class="cls-1" d="M318.7,198.11c1.83,0,1.84-3,0-3s-1.84,3,0,3h0Z"/>
    <path class="cls-1" d="M320.75,198.11c1.83,0,1.84-3,0-3s-1.84,3,0,3h0Z"/>
    <path class="cls-1" d="M319.73,188.07c2.75,0,2.75-4.49,0-4.49s-2.75,4.49,0,4.49h0Z"/>
    <path class="cls-1" d="M321.78,193.47c2.75,0,2.75-4.49,0-4.49s-2.75,4.49,0,4.49h0Z"/>
    <path class="cls-1" d="M311.53,187c2.75,0,2.75-4.49,0-4.49s-2.75,4.49,0,4.49h0Z"/>
    <path class="cls-1" d="M308.45,180.52c2.75,0,2.75-4.49,0-4.49s-2.75,4.49,0,4.49h0Z"/>
    <path class="cls-1" d="M307.43,170.82c2.75,0,2.75-4.49,0-4.49s-2.75,4.49,0,4.49h0Z"/>
    <path class="cls-1" d="M320.75,178.37c2.75,0,2.75-4.49,0-4.49s-2.75,4.49,0,4.49h0Z"/>
    <path class="cls-1" d="M325.88,183.76c2.75,0,2.75-4.49,0-4.49s-2.75,4.49,0,4.49h0Z"/>
    <path class="cls-1" d="M318.7,184.84c2.75,0,2.75-4.49,0-4.49s-2.75,4.49,0,4.49h0Z"/>
    <path class="cls-1" d="M319.81,182.59v-1.08c0-.58-.24-1.18-.63-1.59-.37-.39-.98-.68-1.51-.66-.55.03-1.13.22-1.51.66-.38.44-.63.98-.63,1.59v1.08c0,.58.24,1.18.63,1.59.37.39.98.68,1.51.66.55-.03,1.13-.22,1.51-.66.38-.44.63-.98.63-1.59h0Z"/>
    <path class="cls-1" d="M316.65,180.52c2.75,0,2.75-4.49,0-4.49s-2.75,4.49,0,4.49h0Z"/>
    <path class="cls-1" d="M310.5,180.52c2.75,0,2.75-4.49,0-4.49s-2.75,4.49,0,4.49h0Z"/>
    <path class="cls-1" d="M302.3,179.45c2.75,0,2.75-4.49,0-4.49s-2.75,4.49,0,4.49h0Z"/>
    <path class="cls-1" d="M293.07,180.52c2.75,0,2.75-4.49,0-4.49s-2.75,4.49,0,4.49h0Z"/>
    <path class="cls-1" d="M313.58,168.99h1.03c.74,0,1.46-.69,1.42-1.5-.03-.81-.63-1.5-1.42-1.5h-1.03c-.74,0-1.46.69-1.42,1.5.03.81.63,1.5,1.42,1.5h0Z"/>
    <path class="cls-1" d="M318.7,167.91c1.83,0,1.84-3,0-3s-1.84,3,0,3h0Z"/>
    <path class="cls-1" d="M310.5,174.38c1.83,0,1.84-3,0-3s-1.84,3,0,3h0Z"/>
    <path class="cls-1" d="M300.79,169.35c3.99,1.21,7.37,3.76,9.68,7.4,1.01,1.6,3.48.1,2.46-1.51-2.73-4.3-6.66-7.35-11.38-8.78-1.76-.53-2.52,2.36-.76,2.89h0Z"/>
    <path class="cls-1" d="M311.13,177.22c2.05-1.09,4.09-2.18,6.14-3.26,1.64-.87.2-3.46-1.44-2.59-2.05,1.09-4.09,2.18-6.14,3.26-1.64.87-.2,3.46,1.44,2.59h0Z"/>
    <path class="cls-1" d="M324.85,170.07c1.83,0,1.84-3,0-3s-1.84,3,0,3h0Z"/>
    <path class="cls-1" d="M325.88,174.38c1.83,0,1.84-3,0-3s-1.84,3,0,3h0Z"/>
    <path class="cls-1" d="M332.03,175.46c1.83,0,1.84-3,0-3s-1.84,3,0,3h0Z"/>
    <path class="cls-1" d="M331.01,193.8c1.83,0,1.84-3,0-3s-1.84,3,0,3h0Z"/>
    <path class="cls-1" d="M323.83,184.09c1.83,0,1.84-3,0-3s-1.84,3,0,3h0Z"/>
    <path class="cls-1" d="M323.83,180.01c-1.21,0-2.42,0-3.64,0-.7,0-1.32.57-1.4,1.3-.08.67.31,1.53,1.02,1.64,1.86.3,3.57-.18,5-1.48.58-.53.52-1.58,0-2.12-.58-.61-1.43-.53-2.01,0-.59.54-1.45.84-2.23.71-.13.98-.25,1.96-.38,2.94,1.21,0,2.42,0,3.64,0,1.83,0,1.84-2.99,0-3h0Z"/>
    <path class="cls-1" d="M326.9,178.7c1.83,0,1.84-3,0-3s-1.84,3,0,3h0Z"/>
    <path class="cls-1" d="M326.9,175.46c1.83,0,1.84-3,0-3s-1.84,3,0,3h0Z"/>
    <path class="cls-1" d="M320.75,173.3c1.83,0,1.84-3,0-3s-1.84,3,0,3h0Z"/>
    <path class="cls-1" d="M317.68,173.3c1.83,0,1.84-3,0-3s-1.84,3,0,3h0Z"/>
    <path class="cls-1" d="M297.17,205.33c2.75,0,2.75-4.49,0-4.49s-2.75,4.49,0,4.49h0Z"/>
    <path class="cls-1" d="M309.48,211.81c2.75,0,2.75-4.49,0-4.49s-2.75,4.49,0,4.49h0Z"/>
    <path class="cls-1" d="M339.21,191.31h1.03c.55,0,1.12-.25,1.51-.66.37-.39.65-1.03.63-1.59-.02-.58-.21-1.18-.63-1.59-.42-.4-.93-.66-1.51-.66h-1.03c-.55,0-1.12.25-1.51.66-.37.39-.65,1.03-.63,1.59.02.58.21,1.18.63,1.59.42.4.93.66,1.51.66h0Z"/>
    <path class="cls-1" d="M350.48,178.37c2.75,0,2.75-4.49,0-4.49s-2.75,4.49,0,4.49h0Z"/>
    <path class="cls-1" d="M335.11,183.76c2.75,0,2.75-4.49,0-4.49s-2.75,4.49,0,4.49h0Z"/>
    <path class="cls-1" d="M325.88,192.39c2.75,0,2.75-4.49,0-4.49s-2.75,4.49,0,4.49h0Z"/>
    <path class="cls-1" d="M301.28,162.19c2.75,0,2.75-4.49,0-4.49s-2.75,4.49,0,4.49h0Z"/>
    <path class="cls-1" d="M290,150.32c2.75,0,2.75-4.49,0-4.49s-2.75,4.49,0,4.49h0Z"/>
    <path class="cls-1" d="M321.78,154.63c2.75,0,2.75-4.49,0-4.49s-2.75,4.49,0,4.49h0Z"/>
    <path class="cls-1" d="M352.53,198.11c1.83,0,1.84-3,0-3s-1.84,3,0,3h0Z"/>
    <path class="cls-1" d="M373.04,191.64c1.83,0,1.84-3,0-3s-1.84,3,0,3h0Z"/>
    <path class="cls-1" d="M272.91,211.78c1.83,0,1.84-3,0-3s-1.84,3,0,3h0Z"/>
    <path class="cls-1" d="M275.65,199.55c1.83,0,1.84-3,0-3s-1.84,3,0,3h0Z"/>
    <path class="cls-1" d="M318.02,208.15c.92,0,.92-1.5,0-1.5s-.92,1.5,0,1.5h0Z"/>
    <path class="cls-1" d="M311.19,198.08c.92,0,.92-1.5,0-1.5s-.92,1.5,0,1.5h0Z"/>
    <path class="cls-1" d="M313.92,203.12c.92,0,.92-1.5,0-1.5s-.92,1.5,0,1.5h0Z"/>
    <path class="cls-1" d="M321.44,203.84c.92,0,.92-1.5,0-1.5s-.92,1.5,0,1.5h0Z"/>
    <path class="cls-1" d="M323.49,200.24c.92,0,.92-1.5,0-1.5s-.92,1.5,0,1.5h0Z"/>
    <path class="cls-1" d="M305.72,212.47c.92,0,.92-1.5,0-1.5s-.92,1.5,0,1.5h0Z"/>
    <path class="cls-1" d="M276.33,229.01c.92,0,.92-1.5,0-1.5s-.92,1.5,0,1.5h0Z"/>
    <path class="cls-1" d="M274.28,221.1h2.05c.92,0,.92-1.5,0-1.5h-2.05c-.92,0-.92,1.5,0,1.5h0Z"/>
    <path class="cls-1" d="M283.49,218.05c.46-.24.91-.48,1.37-.72.34-.18.44-.69.26-1.02-.2-.37-.63-.45-.97-.27-.46.24-.91.48-1.37.72-.34.18-.44.69-.26,1.02.2.37.63.45.97.27h0Z"/>
    <path class="cls-1" d="M308.45,232.6c.92,0,.92-1.5,0-1.5s-.92,1.5,0,1.5h0Z"/>
    <path class="cls-1" d="M300.93,236.2c.92,0,.92-1.5,0-1.5s-.92,1.5,0,1.5h0Z"/>
    <path class="cls-1" d="M292.05,230.44c.92,0,.92-1.5,0-1.5s-.92,1.5,0,1.5h0Z"/>
    <path class="cls-1" d="M304.35,216.06c.92,0,.92-1.5,0-1.5s-.92,1.5,0,1.5h0Z"/>
    <path class="cls-1" d="M337.84,215.28h-2.05c-.92,0-.92,1.5,0,1.5h2.05c.92,0,.92-1.5,0-1.5h0Z"/>
    <path class="cls-1" d="M326.9,203.84c.92,0,.92-1.5,0-1.5s-.92,1.5,0,1.5h0Z"/>
    <path class="cls-1" d="M331.52,190.71c1.37.24,2.73.47,4.1.71.9.15,1.28-1.29.38-1.44-1.37-.24-2.73-.47-4.1-.71-.9-.15-1.28,1.29-.38,1.44h0Z"/>
    <path class="cls-1" d="M327.63,193.34c-.46.72-.91,1.44-1.37,2.16-.51.8.72,1.56,1.23.76.46-.72.91-1.44,1.37-2.16.51-.8-.72-1.56-1.23-.76h0Z"/>
    <path class="cls-1" d="M322.79,188.45c4.11-.19,8.21-.05,12.3.41.91.1.9-1.4,0-1.5-4.1-.46-8.19-.6-12.3-.41-.91.04-.92,1.54,0,1.5h0Z"/>
  </g>
  <g>
    <path class="cls-1" d="M340.83,161.52c.62.64.81,1.25.77,2.13-.04,1.05.88,1.95,1.85,1.95,1.04,0,1.81-.89,1.85-1.95.08-1.83-.62-3.61-1.86-4.89-1.7-1.76-4.32,1-2.62,2.76h0Z"/>
    <path class="cls-1" d="M348.81,166.3c2.38,0,2.39-3.9,0-3.9s-2.39,3.9,0,3.9h0Z"/>
    <path class="cls-1" d="M346.81,172.61c2.38,0,2.39-3.9,0-3.9s-2.39,3.9,0,3.9h0Z"/>
    <path class="cls-1" d="M352.47,177.3c1.24-2.54,1.95-5.19,2.17-8.03.2-2.5-3.51-2.49-3.7,0-.17,2.13-.74,4.17-1.66,6.07-1.09,2.23,2.11,4.2,3.2,1.97h0Z"/>
    <path class="cls-1" d="M352.14,156.48c2.38,0,2.39-3.9,0-3.9s-2.39,3.9,0,3.9h0Z"/>
    <path class="cls-1" d="M352.81,164.9c2.38,0,2.39-3.9,0-3.9s-2.39,3.9,0,3.9h0Z"/>
    <path class="cls-1" d="M341.47,175.15c1.19,0,1.19-1.95,0-1.95s-1.19,1.95,0,1.95h0Z"/>
    <path class="cls-1" d="M346.14,168.13c1.19,0,1.19-1.95,0-1.95s-1.19,1.95,0,1.95h0Z"/>
    <path class="cls-1" d="M344.14,168.84c1.19,0,1.19-1.95,0-1.95s-1.19,1.95,0,1.95h0Z"/>
    <path class="cls-1" d="M340.81,169.54c1.19,0,1.19-1.95,0-1.95s-1.19,1.95,0,1.95h0Z"/>
    <path class="cls-1" d="M337.47,168.84c1.19,0,1.19-1.95,0-1.95s-1.19,1.95,0,1.95h0Z"/>
    <path class="cls-1" d="M334.81,162.52c1.19,0,1.19-1.95,0-1.95s-1.19,1.95,0,1.95h0Z"/>
    <path class="cls-1" d="M340.14,157.61c1.19,0,1.19-1.95,0-1.95s-1.19,1.95,0,1.95h0Z"/>
    <path class="cls-1" d="M315.48,166.73c1.19,0,1.19-1.95,0-1.95s-1.19,1.95,0,1.95h0Z"/>
    <path class="cls-1" d="M330.14,199c1.19,0,1.19-1.95,0-1.95s-1.19,1.95,0,1.95h0Z"/>
    <path class="cls-1" d="M360.14,201.1c1.19,0,1.19-1.95,0-1.95s-1.19,1.95,0,1.95h0Z"/>
    <path class="cls-1" d="M364.8,182.16c1.19,0,1.19-1.95,0-1.95s-1.19,1.95,0,1.95h0Z"/>
    <path class="cls-1" d="M374.8,191.28c1.19,0,1.19-1.95,0-1.95s-1.19,1.95,0,1.95h0Z"/>
    <path class="cls-1" d="M356.81,191.98c1.19,0,1.19-1.95,0-1.95s-1.19,1.95,0,1.95h0Z"/>
    <path class="cls-1" d="M358.81,187.77c1.19,0,1.19-1.95,0-1.95s-1.19,1.95,0,1.95h0Z"/>
    <path class="cls-1" d="M358.81,183.72h-.67c-.48,0-.95.45-.93.97.02.53.41.97.93.97h.67c.48,0,.95-.45.93-.97-.02-.53-.41-.97-.93-.97h0Z"/>
    <path class="cls-1" d="M346.81,181.46c1.19,0,1.19-1.95,0-1.95s-1.19,1.95,0,1.95h0Z"/>
    <path class="cls-1" d="M344.14,181.46c1.19,0,1.19-1.95,0-1.95s-1.19,1.95,0,1.95h0Z"/>
    <path class="cls-1" d="M344.61,178.52c.89-.47,1.78-.94,2.67-1.4,1.07-.56.13-2.24-.93-1.68-.89.47-1.78.94-2.67,1.4-1.07.56-.13,2.24.93,1.68h0Z"/>
    <path class="cls-1" d="M348.14,175.85c1.19,0,1.19-1.95,0-1.95s-1.19,1.95,0,1.95h0Z"/>
    <path class="cls-1" d="M349.46,172.78c-.22-.23-.44-.47-.67-.7-.34-.36-.97-.39-1.31,0-.34.39-.37.99,0,1.38.22.23.44.47.67.7.34.36.97.39,1.31,0,.34-.39.37-.99,0-1.38h0Z"/>
    <path class="cls-1" d="M344.14,172.34c1.19,0,1.19-1.95,0-1.95s-1.19,1.95,0,1.95h0Z"/>
    <path class="cls-1" d="M342.44,171.69c.46,1.16.91,2.33,1.37,3.49.19.49.61.83,1.14.68.44-.12.84-.71.65-1.2-.46-1.16-.91-2.33-1.37-3.49-.19-.49-.61-.83-1.14-.68-.44.12-.84.71-.65,1.2h0Z"/>
    <path class="cls-1" d="M345.47,177.95c1.19,0,1.19-1.95,0-1.95s-1.19,1.95,0,1.95h0Z"/>
    <path class="cls-1" d="M346.81,180.76c1.19,0,1.19-1.95,0-1.95s-1.19,1.95,0,1.95h0Z"/>
    <path class="cls-1" d="M350.81,182.86c1.19,0,1.19-1.95,0-1.95s-1.19,1.95,0,1.95h0Z"/>
    <path class="cls-1" d="M355.47,178.65c1.19,0,1.19-1.95,0-1.95s-1.19,1.95,0,1.95h0Z"/>
    <path class="cls-1" d="M356.81,178.65c1.19,0,1.19-1.95,0-1.95s-1.19,1.95,0,1.95h0Z"/>
    <path class="cls-1" d="M356.14,172.13c1.79,0,1.79-2.92,0-2.92s-1.79,2.92,0,2.92h0Z"/>
    <path class="cls-1" d="M357.47,175.63c1.79,0,1.79-2.92,0-2.92s-1.79,2.92,0,2.92h0Z"/>
    <path class="cls-1" d="M350.81,171.43c1.79,0,1.79-2.92,0-2.92s-1.79,2.92,0,2.92h0Z"/>
    <path class="cls-1" d="M348.81,167.22c1.79,0,1.79-2.92,0-2.92s-1.79,2.92,0,2.92h0Z"/>
    <path class="cls-1" d="M348.14,160.91c1.79,0,1.79-2.92,0-2.92s-1.79,2.92,0,2.92h0Z"/>
    <path class="cls-1" d="M356.81,165.82c1.79,0,1.79-2.92,0-2.92s-1.79,2.92,0,2.92h0Z"/>
    <path class="cls-1" d="M360.14,169.32c1.79,0,1.79-2.92,0-2.92s-1.79,2.92,0,2.92h0Z"/>
    <path class="cls-1" d="M355.47,170.02c1.79,0,1.79-2.92,0-2.92s-1.79,2.92,0,2.92h0Z"/>
    <path class="cls-1" d="M356.19,168.56v-.7c0-.37-.15-.77-.41-1.03-.24-.25-.64-.44-.98-.43-.36.02-.73.14-.98.43-.25.29-.41.64-.41,1.03v.7c0,.37.15.77.41,1.03.24.25.64.44.98.43.36-.02.73-.14.98-.43.25-.29.41-.64.41-1.03h0Z"/>
    <path class="cls-1" d="M354.14,167.22c1.79,0,1.79-2.92,0-2.92s-1.79,2.92,0,2.92h0Z"/>
    <path class="cls-1" d="M350.14,167.22c1.79,0,1.79-2.92,0-2.92s-1.79,2.92,0,2.92h0Z"/>
    <path class="cls-1" d="M344.81,166.52c1.79,0,1.79-2.92,0-2.92s-1.79,2.92,0,2.92h0Z"/>
    <path class="cls-1" d="M338.81,167.22c1.79,0,1.79-2.92,0-2.92s-1.79,2.92,0,2.92h0Z"/>
    <path class="cls-1" d="M352.14,159.72h.67c.48,0,.95-.45.93-.97-.02-.53-.41-.97-.93-.97h-.67c-.48,0-.95.45-.93.97.02.53.41.97.93.97h0Z"/>
    <path class="cls-1" d="M355.47,159.02c1.19,0,1.19-1.95,0-1.95s-1.19,1.95,0,1.95h0Z"/>
    <path class="cls-1" d="M350.14,163.22c1.19,0,1.19-1.95,0-1.95s-1.19,1.95,0,1.95h0Z"/>
    <path class="cls-1" d="M343.82,159.95c2.6.79,4.79,2.45,6.3,4.81.66,1.04,2.26.06,1.6-.98-1.77-2.79-4.33-4.78-7.4-5.71-1.15-.35-1.64,1.53-.49,1.88h0Z"/>
    <path class="cls-1" d="M350.55,165.07c1.33-.71,2.66-1.42,3.99-2.12,1.06-.57.13-2.25-.93-1.68-1.33.71-2.66,1.42-3.99,2.12-1.06.57-.13,2.25.93,1.68h0Z"/>
    <path class="cls-1" d="M359.47,160.42c1.19,0,1.19-1.95,0-1.95s-1.19,1.95,0,1.95h0Z"/>
    <path class="cls-1" d="M360.14,163.22c1.19,0,1.19-1.95,0-1.95s-1.19,1.95,0,1.95h0Z"/>
    <path class="cls-1" d="M364.14,163.93c1.19,0,1.19-1.95,0-1.95s-1.19,1.95,0,1.95h0Z"/>
    <path class="cls-1" d="M363.47,175.85c1.19,0,1.19-1.95,0-1.95s-1.19,1.95,0,1.95h0Z"/>
    <path class="cls-1" d="M358.81,169.54c1.19,0,1.19-1.95,0-1.95s-1.19,1.95,0,1.95h0Z"/>
    <path class="cls-1" d="M358.81,166.89c-.79,0-1.58,0-2.36,0-.46,0-.86.37-.91.84-.05.43.2.99.66,1.07,1.21.2,2.32-.11,3.25-.96.38-.34.34-1.02,0-1.38-.38-.39-.93-.35-1.31,0-.38.35-.94.54-1.45.46-.08.64-.16,1.28-.25,1.91.79,0,1.58,0,2.36,0,1.19,0,1.19-1.95,0-1.95h0Z"/>
    <path class="cls-1" d="M360.8,166.03c1.19,0,1.19-1.95,0-1.95s-1.19,1.95,0,1.95h0Z"/>
    <path class="cls-1" d="M360.8,163.93c1.19,0,1.19-1.95,0-1.95s-1.19,1.95,0,1.95h0Z"/>
    <path class="cls-1" d="M356.81,162.52c1.19,0,1.19-1.95,0-1.95s-1.19,1.95,0,1.95h0Z"/>
    <path class="cls-1" d="M354.81,162.52c1.19,0,1.19-1.95,0-1.95s-1.19,1.95,0,1.95h0Z"/>
    <path class="cls-1" d="M341.47,183.35c1.79,0,1.79-2.92,0-2.92s-1.79,2.92,0,2.92h0Z"/>
    <path class="cls-1" d="M349.47,187.56c1.79,0,1.79-2.92,0-2.92s-1.79,2.92,0,2.92h0Z"/>
    <path class="cls-1" d="M368.8,174.23h.67c.36,0,.73-.16.98-.43.24-.25.42-.67.41-1.03-.02-.38-.13-.77-.41-1.03-.27-.26-.61-.43-.98-.43h-.67c-.36,0-.73.16-.98.43-.24.25-.42.67-.41,1.03.02.38.13.77.41,1.03.27.26.61.43.98.43h0Z"/>
    <path class="cls-1" d="M376.14,165.82c1.79,0,1.79-2.92,0-2.92s-1.79,2.92,0,2.92h0Z"/>
    <path class="cls-1" d="M366.14,169.32c1.79,0,1.79-2.92,0-2.92s-1.79,2.92,0,2.92h0Z"/>
    <path class="cls-1" d="M360.14,174.93c1.79,0,1.79-2.92,0-2.92s-1.79,2.92,0,2.92h0Z"/>
    <path class="cls-1" d="M344.14,155.29c1.79,0,1.79-2.92,0-2.92s-1.79,2.92,0,2.92h0Z"/>
    <path class="cls-1" d="M336.81,147.58c1.79,0,1.79-2.92,0-2.92s-1.79,2.92,0,2.92h0Z"/>
    <path class="cls-1" d="M357.47,150.38c1.79,0,1.79-2.92,0-2.92s-1.79,2.92,0,2.92h0Z"/>
    <path class="cls-1" d="M377.47,178.65c1.19,0,1.19-1.95,0-1.95s-1.19,1.95,0,1.95h0Z"/>
    <path class="cls-1" d="M390.8,174.45c1.19,0,1.19-1.95,0-1.95s-1.19,1.95,0,1.95h0Z"/>
    <path class="cls-1" d="M325.7,187.54c1.19,0,1.19-1.95,0-1.95s-1.19,1.95,0,1.95h0Z"/>
    <path class="cls-1" d="M327.48,179.59c1.19,0,1.19-1.95,0-1.95s-1.19,1.95,0,1.95h0Z"/>
    <path class="cls-1" d="M355.03,185.18c.6,0,.6-.97,0-.97s-.6.97,0,.97h0Z"/>
    <path class="cls-1" d="M350.58,178.64c.6,0,.6-.97,0-.97s-.6.97,0,.97h0Z"/>
    <path class="cls-1" d="M352.36,181.91c.6,0,.6-.97,0-.97s-.6.97,0,.97h0Z"/>
    <path class="cls-1" d="M357.25,182.38c.6,0,.6-.97,0-.97s-.6.97,0,.97h0Z"/>
    <path class="cls-1" d="M358.58,180.04c.6,0,.6-.97,0-.97s-.6.97,0,.97h0Z"/>
    <path class="cls-1" d="M347.03,187.99c.6,0,.6-.97,0-.97s-.6.97,0,.97h0Z"/>
    <path class="cls-1" d="M327.92,198.74c.6,0,.6-.97,0-.97s-.6.97,0,.97h0Z"/>
    <path class="cls-1" d="M326.59,193.6h1.33c.6,0,.6-.97,0-.97h-1.33c-.6,0-.6.97,0,.97h0Z"/>
    <path class="cls-1" d="M332.58,191.62c.3-.16.59-.31.89-.47.22-.12.29-.45.17-.67-.13-.24-.41-.29-.63-.17-.3.16-.59.31-.89.47-.22.12-.29.45-.17.67.13.24.41.29.63.17h0Z"/>
    <path class="cls-1" d="M348.81,201.08c.6,0,.6-.97,0-.97s-.6.97,0,.97h0Z"/>
    <path class="cls-1" d="M343.92,203.42c.6,0,.6-.97,0-.97s-.6.97,0,.97h0Z"/>
    <path class="cls-1" d="M338.14,199.68c.6,0,.6-.97,0-.97s-.6.97,0,.97h0Z"/>
    <path class="cls-1" d="M346.14,190.33c.6,0,.6-.97,0-.97s-.6.97,0,.97h0Z"/>
    <path class="cls-1" d="M367.92,189.82h-1.33c-.6,0-.6.97,0,.97h1.33c.6,0,.6-.97,0-.97h0Z"/>
    <path class="cls-1" d="M360.8,182.38c.6,0,.6-.97,0-.97s-.6.97,0,.97h0Z"/>
    <path class="cls-1" d="M363.81,173.84c.89.15,1.78.31,2.67.46.58.1.83-.84.25-.94-.89-.15-1.78-.31-2.67-.46-.58-.1-.83.84-.25.94h0Z"/>
    <path class="cls-1" d="M361.28,175.55c-.3.47-.59.94-.89,1.4-.33.52.47,1.01.8.49.3-.47.59-.94.89-1.4.33-.52-.47-1.01-.8-.49h0Z"/>
    <path class="cls-1" d="M358.13,172.37c2.68-.12,5.34-.04,8,.27.59.07.59-.91,0-.97-2.66-.3-5.32-.39-8-.27-.59.03-.6,1,0,.97h0Z"/>
  </g>
  <g>
    <path class="cls-1" d="M53,279.48c1.31.26,2.06.87,2.73,2.02.8,1.38,2.71,1.69,3.95.82,1.33-.94,1.58-2.77.78-4.16-1.39-2.4-3.74-4.05-6.35-4.57-3.61-.71-4.71,5.17-1.1,5.88h0Z"/>
    <path class="cls-1" d="M67.07,278.4c3.04-2.15-.12-7.13-3.17-4.98-3.04,2.15.12,7.13,3.17,4.98h0Z"/>
    <path class="cls-1" d="M69.66,288.26c3.04-2.15-.12-7.13-3.17-4.98-3.04,2.15.12,7.13,3.17,4.98h0Z"/>
    <path class="cls-1" d="M80.7,289.14c-.48-4.36-1.74-8.39-3.77-12.22-1.78-3.37-6.5-.01-4.73,3.34,1.52,2.87,2.45,5.99,2.82,9.25.42,3.82,6.11,3.47,5.69-.37h0Z"/>
    <path class="cls-1" d="M63.33,262.85c3.04-2.15-.12-7.13-3.17-4.98-3.04,2.15.12,7.13,3.17,4.98h0Z"/>
    <path class="cls-1" d="M71.04,273c3.04-2.15-.12-7.13-3.17-4.98-3.04,2.15.12,7.13,3.17,4.98h0Z"/>
    <path class="cls-1" d="M64.91,296.31c1.52-1.07-.06-3.56-1.59-2.49-1.52,1.07.06,3.56,1.59,2.49h0Z"/>
    <path class="cls-1" d="M65.16,283.14c1.52-1.07-.06-3.56-1.59-2.49-1.52,1.07.06,3.56,1.59,2.49h0Z"/>
    <path class="cls-1" d="M63.18,285.84c1.52-1.07-.06-3.56-1.59-2.49-1.52,1.07.06,3.56,1.59,2.49h0Z"/>
    <path class="cls-1" d="M59.49,289.74c1.52-1.07-.06-3.56-1.59-2.49-1.52,1.07.06,3.56,1.59,2.49h0Z"/>
    <path class="cls-1" d="M54.66,291.85c1.52-1.07-.06-3.56-1.59-2.49-1.52,1.07.06,3.56,1.59,2.49h0Z"/>
    <path class="cls-1" d="M46.12,286.19c1.52-1.07-.06-3.56-1.59-2.49-1.52,1.07.06,3.56,1.59,2.49h0Z"/>
    <path class="cls-1" d="M48.93,275.11c1.52-1.07-.06-3.56-1.59-2.49-1.52,1.07.06,3.56,1.59,2.49h0Z"/>
    <path class="cls-1" d="M24.86,308.99c1.52-1.07-.06-3.56-1.59-2.49-1.52,1.07.06,3.56,1.59,2.49h0Z"/>
    <path class="cls-1" d="M69.86,336.98c1.52-1.07-.06-3.56-1.59-2.49-1.52,1.07.06,3.56,1.59,2.49h0Z"/>
    <path class="cls-1" d="M109.88,312.62c1.52-1.07-.06-3.56-1.59-2.49-1.52,1.07.06,3.56,1.59,2.49h0Z"/>
    <path class="cls-1" d="M100.42,284.23c1.52-1.07-.06-3.56-1.59-2.49-1.52,1.07.06,3.56,1.59,2.49h0Z"/>
    <path class="cls-1" d="M120.61,286.86c1.52-1.07-.06-3.56-1.59-2.49-1.52,1.07.06,3.56,1.59,2.49h0Z"/>
    <path class="cls-1" d="M98.2,303.98c1.52-1.07-.06-3.56-1.59-2.49-1.52,1.07.06,3.56,1.59,2.49h0Z"/>
    <path class="cls-1" d="M97.33,296.8c1.52-1.07-.06-3.56-1.59-2.49-1.52,1.07.06,3.56,1.59,2.49h0Z"/>
    <path class="cls-1" d="M94.03,291.63c-.28.2-.57.4-.85.6-.62.44-.85,1.43-.39,2.08.46.65,1.31.88,1.98.41.28-.2.57-.4.85-.6.62-.44.85-1.43.39-2.08-.46-.65-1.31-.88-1.98-.41h0Z"/>
    <path class="cls-1" d="M76.86,299.56c1.52-1.07-.06-3.56-1.59-2.49-1.52,1.07.06,3.56,1.59,2.49h0Z"/>
    <path class="cls-1" d="M73.46,301.96c1.52-1.07-.06-3.56-1.59-2.49-1.52,1.07.06,3.56,1.59,2.49h0Z"/>
    <path class="cls-1" d="M71.66,297.79c.75-1.4,1.51-2.8,2.26-4.2.9-1.68-1.66-2.98-2.56-1.31-.75,1.4-1.51,2.8-2.26,4.2-.9,1.68,1.66,2.98,2.56,1.31h0Z"/>
    <path class="cls-1" d="M74,291.19c1.52-1.07-.06-3.56-1.59-2.49-1.52,1.07.06,3.56,1.59,2.49h0Z"/>
    <path class="cls-1" d="M73.19,286.08l-1.42-.29c-.73-.15-1.56.38-1.67,1.18-.12.8.34,1.6,1.12,1.76l1.42.29c.73.15,1.56-.38,1.67-1.18.12-.8-.34-1.6-1.12-1.76h0Z"/>
    <path class="cls-1" d="M66.03,290.32c1.52-1.07-.06-3.56-1.59-2.49-1.52,1.07.06,3.56,1.59,2.49h0Z"/>
    <path class="cls-1" d="M63.33,291.02c1.53,1.07,3.06,2.15,4.59,3.22.64.45,1.46.5,2.01-.16.46-.55.49-1.67-.15-2.11-1.53-1.07-3.06-2.15-4.59-3.22-.64-.45-1.46-.5-2.01.16-.46.55-.49,1.67.15,2.11h0Z"/>
    <path class="cls-1" d="M72.3,296.28c1.52-1.07-.06-3.56-1.59-2.49-1.52,1.07.06,3.56,1.59,2.49h0Z"/>
    <path class="cls-1" d="M76.29,298.66c1.52-1.07-.06-3.56-1.59-2.49-1.52,1.07.06,3.56,1.59,2.49h0Z"/>
    <path class="cls-1" d="M83.11,297.75c1.52-1.07-.06-3.56-1.59-2.49-1.52,1.07.06,3.56,1.59,2.49h0Z"/>
    <path class="cls-1" d="M85.64,288.16c1.52-1.07-.06-3.56-1.59-2.49-1.52,1.07.06,3.56,1.59,2.49h0Z"/>
    <path class="cls-1" d="M87.35,286.96c1.52-1.07-.06-3.56-1.59-2.49-1.52,1.07.06,3.56,1.59,2.49h0Z"/>
    <path class="cls-1" d="M81.18,279.23c2.28-1.61-.09-5.35-2.38-3.73-2.28,1.61.09,5.35,2.38,3.73h0Z"/>
    <path class="cls-1" d="M85.74,282.5c2.28-1.61-.09-5.35-2.38-3.73-2.28,1.61.09,5.35,2.38,3.73h0Z"/>
    <path class="cls-1" d="M73.8,283.14c2.28-1.61-.09-5.35-2.38-3.73-2.28,1.61.09,5.35,2.38,3.73h0Z"/>
    <path class="cls-1" d="M67.82,279.57c2.28-1.61-.09-5.35-2.38-3.73-2.28,1.61.09,5.35,2.38,3.73h0Z"/>
    <path class="cls-1" d="M61.83,272.11c2.28-1.61-.09-5.35-2.38-3.73-2.28,1.61.09,5.35,2.38,3.73h0Z"/>
    <path class="cls-1" d="M76.89,270.56c2.28-1.61-.09-5.35-2.38-3.73-2.28,1.61.09,5.35,2.38,3.73h0Z"/>
    <path class="cls-1" d="M84,272.04c2.28-1.61-.09-5.35-2.38-3.73-2.28,1.61.09,5.35,2.38,3.73h0Z"/>
    <path class="cls-1" d="M78.62,277.14c2.28-1.61-.09-5.35-2.38-3.73-2.28,1.61.09,5.35,2.38,3.73h0Z"/>
    <path class="cls-1" d="M78.35,274.62c-.19-.3-.38-.6-.57-.9-.31-.48-.82-.84-1.36-.95-.51-.11-1.17,0-1.6.34-.44.35-.82.84-.91,1.43-.09.59,0,1.18.32,1.69.19.3.38.6.57.9.31.48.82.84,1.36.95.51.11,1.17,0,1.6-.34.44-.35.82-.84.91-1.43.09-.59,0-1.18-.32-1.69h0Z"/>
    <path class="cls-1" d="M74.63,274.76c2.28-1.61-.09-5.35-2.38-3.73-2.28,1.61.09,5.35,2.38,3.73h0Z"/>
    <path class="cls-1" d="M69.52,278.36c2.28-1.61-.09-5.35-2.38-3.73-2.28,1.61.09,5.35,2.38,3.73h0Z"/>
    <path class="cls-1" d="M62.14,282.28c2.28-1.61-.09-5.35-2.38-3.73-2.28,1.61.09,5.35,2.38,3.73h0Z"/>
    <path class="cls-1" d="M55.05,288.58c2.28-1.61-.09-5.35-2.38-3.73-2.28,1.61.09,5.35,2.38,3.73h0Z"/>
    <path class="cls-1" d="M65.97,266.98c.28-.2.57-.4.85-.6.62-.44.85-1.43.39-2.08-.46-.65-1.31-.88-1.98-.41-.28.2-.57.4-.85.6-.62.44-.85,1.43-.39,2.08.46.65,1.31.88,1.98.41h0Z"/>
    <path class="cls-1" d="M69.65,263.08c1.52-1.07-.06-3.56-1.59-2.49-1.52,1.07.06,3.56,1.59,2.49h0Z"/>
    <path class="cls-1" d="M66.27,273.26c1.52-1.07-.06-3.56-1.59-2.49-1.52,1.07.06,3.56,1.59,2.49h0Z"/>
    <path class="cls-1" d="M55.54,274.78c3.96-1.34,8.11-1.2,11.96.47,1.69.73,2.94-1.96,1.24-2.7-4.54-1.97-9.42-2.2-14.1-.62-1.75.59-.84,3.43.9,2.84h0Z"/>
    <path class="cls-1" d="M68.29,275.25c1.12-2.1,2.25-4.21,3.37-6.31.9-1.68-1.67-2.98-2.56-1.31-1.12,2.1-2.25,4.21-3.37,6.31-.9,1.68,1.67,2.98,2.56,1.31h0Z"/>
    <path class="cls-1" d="M75.9,261.27c1.52-1.07-.06-3.56-1.59-2.49-1.52,1.07.06,3.56,1.59,2.49h0Z"/>
    <path class="cls-1" d="M79.04,264.25c1.52-1.07-.06-3.56-1.59-2.49-1.52,1.07.06,3.56,1.59,2.49h0Z"/>
    <path class="cls-1" d="M84.72,261.54c1.52-1.07-.06-3.56-1.59-2.49-1.52,1.07.06,3.56,1.59,2.49h0Z"/>
    <path class="cls-1" d="M93.58,277.37c1.52-1.07-.06-3.56-1.59-2.49-1.52,1.07.06,3.56,1.59,2.49h0Z"/>
    <path class="cls-1" d="M82.48,273.51c1.52-1.07-.06-3.56-1.59-2.49-1.52,1.07.06,3.56,1.59,2.49h0Z"/>
    <path class="cls-1" d="M80.32,270.13c-1.01.71-2.01,1.42-3.02,2.13-.58.41-.79,1.25-.47,1.9.29.6,1.07,1.09,1.72.77,1.71-.84,2.87-2.24,3.37-4.16.2-.78-.41-1.61-1.12-1.76-.8-.17-1.47.4-1.67,1.18-.21.79-.76,1.54-1.48,1.9.41.89.83,1.78,1.24,2.67,1.01-.71,2.01-1.42,3.02-2.13,1.52-1.07-.06-3.56-1.59-2.49h0Z"/>
    <path class="cls-1" d="M82.17,267.23c1.52-1.07-.06-3.56-1.59-2.49-1.52,1.07.06,3.56,1.59,2.49h0Z"/>
    <path class="cls-1" d="M80.46,264.54c1.52-1.07-.06-3.56-1.59-2.49-1.52,1.07.06,3.56,1.59,2.49h0Z"/>
    <path class="cls-1" d="M74.21,266.36c1.52-1.07-.06-3.56-1.59-2.49-1.52,1.07.06,3.56,1.59,2.49h0Z"/>
    <path class="cls-1" d="M71.66,268.16c1.52-1.07-.06-3.56-1.59-2.49-1.52,1.07.06,3.56,1.59,2.49h0Z"/>
    <path class="cls-1" d="M71.59,306.78c2.28-1.61-.09-5.35-2.38-3.73-2.28,1.61.09,5.35,2.38,3.73h0Z"/>
    <path class="cls-1" d="M85.23,304.94c2.28-1.61-.09-5.35-2.38-3.73-2.28,1.61.09,5.35,2.38,3.73h0Z"/>
    <path class="cls-1" d="M99.07,270.5c.28-.2.57-.4.85-.6.45-.32.8-.87.91-1.43.1-.54,0-1.24-.32-1.69-.33-.47-.8-.86-1.36-.95-.56-.09-1.12,0-1.6.34-.28.2-.57.4-.85.6-.45.32-.8.87-.91,1.43-.1.54,0,1.24.32,1.69.33.47.8.86,1.36.95.56.09,1.12,0,1.6-.34h0Z"/>
    <path class="cls-1" d="M101.58,253.13c2.28-1.61-.09-5.35-2.38-3.73-2.28,1.61.09,5.35,2.38,3.73h0Z"/>
    <path class="cls-1" d="M91.67,266.63c2.28-1.61-.09-5.35-2.38-3.73-2.28,1.61.09,5.35,2.38,3.73h0Z"/>
    <path class="cls-1" d="M88.57,279.2c2.28-1.61-.09-5.35-2.38-3.73-2.28,1.61.09,5.35,2.38,3.73h0Z"/>
    <path class="cls-1" d="M52.15,268.54c2.28-1.61-.09-5.35-2.38-3.73-2.28,1.61.09,5.35,2.38,3.73h0Z"/>
    <path class="cls-1" d="M36.5,265.3c2.28-1.61-.09-5.35-2.38-3.73-2.28,1.61.09,5.35,2.38,3.73h0Z"/>
    <path class="cls-1" d="M65.18,250.25c2.28-1.61-.09-5.35-2.38-3.73-2.28,1.61.09,5.35,2.38,3.73h0Z"/>
    <path class="cls-1" d="M113.74,268.33c1.52-1.07-.06-3.56-1.59-2.49-1.52,1.07.06,3.56,1.59,2.49h0Z"/>
    <path class="cls-1" d="M127.34,250.94c1.52-1.07-.06-3.56-1.59-2.49-1.52,1.07.06,3.56,1.59,2.49h0Z"/>
    <path class="cls-1" d="M54.85,326.35c1.52-1.07-.06-3.56-1.59-2.49-1.52,1.07.06,3.56,1.59,2.49h0Z"/>
    <path class="cls-1" d="M50.65,314.6c1.52-1.07-.06-3.56-1.59-2.49-1.52,1.07.06,3.56,1.59,2.49h0Z"/>
    <path class="cls-1" d="M90.39,296.9c.76-.54-.03-1.78-.79-1.24-.76.54.03,1.78.79,1.24h0Z"/>
    <path class="cls-1" d="M79.39,292.55c.76-.54-.03-1.78-.79-1.24-.76.54.03,1.78.79,1.24h0Z"/>
    <path class="cls-1" d="M84.32,295.12c.76-.54-.03-1.78-.79-1.24-.76.54.03,1.78.79,1.24h0Z"/>
    <path class="cls-1" d="M90.95,291.31c.76-.54-.03-1.78-.79-1.24-.76.54.03,1.78.79,1.24h0Z"/>
    <path class="cls-1" d="M90.74,287.13c.76-.54-.03-1.78-.79-1.24-.76.54.03,1.78.79,1.24h0Z"/>
    <path class="cls-1" d="M82.46,307.7c.76-.54-.03-1.78-.79-1.24-.76.54.03,1.78.79,1.24h0Z"/>
    <path class="cls-1" d="M66.81,338.66c.76-.54-.03-1.78-.79-1.24-.76.54.03,1.78.79,1.24h0Z"/>
    <path class="cls-1" d="M60.92,333.29l1.7-1.2c.76-.54-.03-1.78-.79-1.24l-1.7,1.2c-.76.54.03,1.78.79,1.24h0Z"/>
    <path class="cls-1" d="M66.96,325.36c.25-.47.5-.93.75-1.4.19-.35,0-.83-.33-1-.36-.19-.76,0-.95.35-.25.47-.5.93-.75,1.4-.19.35,0,.83.33,1,.36.19.76,0,.95-.35h0Z"/>
    <path class="cls-1" d="M95.39,322.81c.76-.54-.03-1.78-.79-1.24-.76.54.03,1.78.79,1.24h0Z"/>
    <path class="cls-1" d="M91.05,330.21c.76-.54-.03-1.78-.79-1.24-.76.54.03,1.78.79,1.24h0Z"/>
    <path class="cls-1" d="M80.63,330.64c.76-.54-.03-1.78-.79-1.24-.76.54.03,1.78.79,1.24h0Z"/>
    <path class="cls-1" d="M83.23,311.48c.76-.54-.03-1.78-.79-1.24-.76.54.03,1.78.79,1.24h0Z"/>
    <path class="cls-1" d="M110.63,291.2l-1.7,1.2c-.76.54.03,1.78.79,1.24.57-.4,1.14-.8,1.7-1.2.76-.54-.03-1.78-.79-1.24h0Z"/>
    <path class="cls-1" d="M95.49,288.11c.76-.54-.03-1.78-.79-1.24-.76.54.03,1.78.79,1.24h0Z"/>
    <path class="cls-1" d="M92.37,274.5c1.26-.61,2.52-1.21,3.78-1.82.83-.4.38-1.82-.45-1.42-1.26.61-2.52,1.21-3.78,1.82-.83.4-.38,1.82.45,1.42h0Z"/>
    <path class="cls-1" d="M90.53,278.97v2.59c.01.97,1.43.87,1.43-.09,0-.86,0-1.73,0-2.59,0-.97-1.42-.87-1.42.09h0Z"/>
    <path class="cls-1" d="M83.92,277.74c3.32-2.57,6.79-4.86,10.43-6.87.81-.45.01-1.69-.79-1.24-3.65,2.02-7.12,4.3-10.43,6.87-.74.57.05,1.82.79,1.24h0Z"/>
  </g>
  <g>
    <path class="cls-1" d="M40.6,369.56c.89.17,1.39.59,1.85,1.37.54.94,1.84,1.15,2.68.56.9-.63,1.07-1.88.53-2.82-.94-1.63-2.53-2.75-4.31-3.09-2.44-.48-3.19,3.51-.75,3.99h0Z"/>
    <path class="cls-1" d="M50.14,368.83c2.06-1.46-.08-4.83-2.15-3.37-2.06,1.46.08,4.83,2.15,3.37h0Z"/>
    <path class="cls-1" d="M51.9,375.52c2.06-1.46-.08-4.83-2.15-3.37-2.06,1.46.08,4.83,2.15,3.37h0Z"/>
    <path class="cls-1" d="M59.38,376.11c-.33-2.95-1.18-5.69-2.56-8.28-1.21-2.28-4.41,0-3.21,2.26,1.03,1.94,1.66,4.06,1.91,6.27.29,2.59,4.14,2.35,3.85-.25h0Z"/>
    <path class="cls-1" d="M47.61,358.29c2.06-1.46-.08-4.83-2.15-3.37-2.06,1.46.08,4.83,2.15,3.37h0Z"/>
    <path class="cls-1" d="M52.83,365.17c2.06-1.46-.08-4.83-2.15-3.37-2.06,1.46.08,4.83,2.15,3.37h0Z"/>
    <path class="cls-1" d="M48.68,380.97c1.03-.73-.04-2.42-1.08-1.69-1.03.73.04,2.42,1.08,1.69h0Z"/>
    <path class="cls-1" d="M48.85,372.04c1.03-.73-.04-2.42-1.08-1.69-1.03.73.04,2.42,1.08,1.69h0Z"/>
    <path class="cls-1" d="M47.5,373.87c1.03-.73-.04-2.42-1.08-1.69-1.03.73.04,2.42,1.08,1.69h0Z"/>
    <path class="cls-1" d="M45.01,376.52c1.03-.73-.04-2.42-1.08-1.69-1.03.73.04,2.42,1.08,1.69h0Z"/>
    <path class="cls-1" d="M41.73,377.95c1.03-.73-.04-2.42-1.08-1.69-1.03.73.04,2.42,1.08,1.69h0Z"/>
    <path class="cls-1" d="M35.94,374.11c1.03-.73-.04-2.42-1.08-1.69-1.03.73.04,2.42,1.08,1.69h0Z"/>
    <path class="cls-1" d="M37.85,366.6c1.03-.73-.04-2.42-1.08-1.69-1.03.73.04,2.42,1.08,1.69h0Z"/>
    <path class="cls-1" d="M21.53,389.57c1.03-.73-.04-2.42-1.08-1.69-1.03.73.04,2.42,1.08,1.69h0Z"/>
    <path class="cls-1" d="M52.03,408.54c1.03-.73-.04-2.42-1.08-1.69-1.03.73.04,2.42,1.08,1.69h0Z"/>
    <path class="cls-1" d="M79.16,392.03c1.03-.73-.04-2.42-1.08-1.69-1.03.73.04,2.42,1.08,1.69h0Z"/>
    <path class="cls-1" d="M72.75,372.78c1.03-.73-.04-2.42-1.08-1.69-1.03.73.04,2.42,1.08,1.69h0Z"/>
    <path class="cls-1" d="M86.44,374.57c1.03-.73-.04-2.42-1.08-1.69-1.03.73.04,2.42,1.08,1.69h0Z"/>
    <path class="cls-1" d="M71.24,386.17c1.03-.73-.04-2.42-1.08-1.69-1.03.73.04,2.42,1.08,1.69h0Z"/>
    <path class="cls-1" d="M70.65,381.31c1.03-.73-.04-2.42-1.08-1.69-1.03.73.04,2.42,1.08,1.69h0Z"/>
    <path class="cls-1" d="M68.41,377.8c-.19.14-.38.27-.58.41-.42.3-.57.97-.26,1.41.31.44.89.59,1.34.28.19-.14.38-.27.58-.41.42-.3.57-.97.26-1.41-.31-.44-.89-.59-1.34-.28h0Z"/>
    <path class="cls-1" d="M56.78,383.17c1.03-.73-.04-2.42-1.08-1.69-1.03.73.04,2.42,1.08,1.69h0Z"/>
    <path class="cls-1" d="M54.47,384.8c1.03-.73-.04-2.42-1.08-1.69-1.03.73.04,2.42,1.08,1.69h0Z"/>
    <path class="cls-1" d="M53.25,381.97l1.53-2.84c.61-1.14-1.13-2.02-1.74-.89-.51.95-1.02,1.9-1.53,2.84-.61,1.14,1.13,2.02,1.74.89h0Z"/>
    <path class="cls-1" d="M54.84,377.5c1.03-.73-.04-2.42-1.08-1.69-1.03.73.04,2.42,1.08,1.69h0Z"/>
    <path class="cls-1" d="M54.29,374.04c-.32-.07-.64-.13-.96-.2-.5-.1-1.05.26-1.13.8-.08.54.23,1.08.76,1.19.32.07.64.13.96.2.5.1,1.05-.26,1.13-.8.08-.54-.23-1.08-.76-1.19h0Z"/>
    <path class="cls-1" d="M49.44,376.91c1.03-.73-.04-2.42-1.08-1.69-1.03.73.04,2.42,1.08,1.69h0Z"/>
    <path class="cls-1" d="M47.61,377.38c1.04.73,2.08,1.46,3.11,2.18.44.31.99.34,1.36-.11.31-.37.33-1.13-.1-1.43-1.04-.73-2.08-1.46-3.11-2.18-.44-.31-.99-.34-1.36.11-.31.37-.33,1.13.1,1.43h0Z"/>
    <path class="cls-1" d="M53.69,380.95c1.03-.73-.04-2.42-1.08-1.69-1.03.73.04,2.42,1.08,1.69h0Z"/>
    <path class="cls-1" d="M56.39,382.57c1.03-.73-.04-2.42-1.08-1.69-1.03.73.04,2.42,1.08,1.69h0Z"/>
    <path class="cls-1" d="M61.02,381.94c1.03-.73-.04-2.42-1.08-1.69-1.03.73.04,2.42,1.08,1.69h0Z"/>
    <path class="cls-1" d="M62.73,375.45c1.03-.73-.04-2.42-1.08-1.69-1.03.73.04,2.42,1.08,1.69h0Z"/>
    <path class="cls-1" d="M63.89,374.63c1.03-.73-.04-2.42-1.08-1.69-1.03.73.04,2.42,1.08,1.69h0Z"/>
    <path class="cls-1" d="M59.71,369.39c1.55-1.09-.06-3.62-1.61-2.53-1.55,1.09.06,3.62,1.61,2.53h0Z"/>
    <path class="cls-1" d="M62.8,371.61c1.55-1.09-.06-3.62-1.61-2.53-1.55,1.09.06,3.62,1.61,2.53h0Z"/>
    <path class="cls-1" d="M54.7,372.04c1.55-1.09-.06-3.62-1.61-2.53-1.55,1.09.06,3.62,1.61,2.53h0Z"/>
    <path class="cls-1" d="M50.65,369.62c1.55-1.09-.06-3.62-1.61-2.53-1.55,1.09.06,3.62,1.61,2.53h0Z"/>
    <path class="cls-1" d="M46.59,364.57c1.55-1.09-.06-3.62-1.61-2.53-1.55,1.09.06,3.62,1.61,2.53h0Z"/>
    <path class="cls-1" d="M56.8,363.52c1.55-1.09-.06-3.62-1.61-2.53-1.55,1.09.06,3.62,1.61,2.53h0Z"/>
    <path class="cls-1" d="M61.62,364.52c1.55-1.09-.06-3.62-1.61-2.53-1.55,1.09.06,3.62,1.61,2.53h0Z"/>
    <path class="cls-1" d="M57.97,367.98c1.55-1.09-.06-3.62-1.61-2.53-1.55,1.09.06,3.62,1.61,2.53h0Z"/>
    <path class="cls-1" d="M57.79,366.27l-.39-.61c-.21-.32-.56-.57-.92-.65-.35-.07-.8,0-1.09.23-.3.23-.56.57-.61.97-.06.4,0,.8.22,1.14.13.2.26.4.39.61.21.32.56.57.92.65.35.07.8,0,1.09-.23.3-.23.56-.57.61-.97.06-.4,0-.8-.22-1.14h0Z"/>
    <path class="cls-1" d="M55.27,366.36c1.55-1.09-.06-3.62-1.61-2.53-1.55,1.09.06,3.62,1.61,2.53h0Z"/>
    <path class="cls-1" d="M51.8,368.81c1.55-1.09-.06-3.62-1.61-2.53-1.55,1.09.06,3.62,1.61,2.53h0Z"/>
    <path class="cls-1" d="M46.8,371.46c1.55-1.09-.06-3.62-1.61-2.53-1.55,1.09.06,3.62,1.61,2.53h0Z"/>
    <path class="cls-1" d="M41.99,375.73c1.55-1.09-.06-3.62-1.61-2.53-1.55,1.09.06,3.62,1.61,2.53h0Z"/>
    <path class="cls-1" d="M49.4,361.09c.19-.14.38-.27.58-.41.42-.3.57-.97.26-1.41-.31-.44-.89-.59-1.34-.28-.19.14-.38.27-.58.41-.42.3-.57.97-.26,1.41.31.44.89.59,1.34.28h0Z"/>
    <path class="cls-1" d="M51.89,358.45c1.03-.73-.04-2.42-1.08-1.69-1.03.73.04,2.42,1.08,1.69h0Z"/>
    <path class="cls-1" d="M49.6,365.35c1.03-.73-.04-2.42-1.08-1.69-1.03.73.04,2.42,1.08,1.69h0Z"/>
    <path class="cls-1" d="M42.33,366.38c2.68-.91,5.5-.81,8.11.32,1.14.5,1.99-1.33.84-1.83-3.08-1.33-6.39-1.49-9.56-.42-1.18.4-.57,2.33.61,1.93h0Z"/>
    <path class="cls-1" d="M50.97,366.7c.76-1.43,1.52-2.85,2.28-4.28.61-1.14-1.13-2.02-1.74-.89-.76,1.43-1.52,2.85-2.28,4.28-.61,1.14,1.13,2.02,1.74.89h0Z"/>
    <path class="cls-1" d="M56.13,357.22c1.03-.73-.04-2.42-1.08-1.69-1.03.73.04,2.42,1.08,1.69h0Z"/>
    <path class="cls-1" d="M58.26,359.24c1.03-.73-.04-2.42-1.08-1.69-1.03.73.04,2.42,1.08,1.69h0Z"/>
    <path class="cls-1" d="M62.1,357.4c1.03-.73-.04-2.42-1.08-1.69-1.03.73.04,2.42,1.08,1.69h0Z"/>
    <path class="cls-1" d="M68.11,368.13c1.03-.73-.04-2.42-1.08-1.69-1.03.73.04,2.42,1.08,1.69h0Z"/>
    <path class="cls-1" d="M60.59,365.52c1.03-.73-.04-2.42-1.08-1.69-1.03.73.04,2.42,1.08,1.69h0Z"/>
    <path class="cls-1" d="M59.12,363.23c-.68.48-1.37.96-2.05,1.44-.4.28-.54.84-.32,1.29.2.4.72.74,1.16.52,1.16-.57,1.94-1.52,2.28-2.82.14-.53-.28-1.09-.76-1.19-.54-.11-1,.27-1.13.8-.14.54-.52,1.05-1,1.29.28.6.56,1.2.84,1.81.68-.48,1.37-.96,2.05-1.44,1.03-.73-.04-2.41-1.08-1.69h0Z"/>
    <path class="cls-1" d="M60.38,361.26c1.03-.73-.04-2.42-1.08-1.69-1.03.73.04,2.42,1.08,1.69h0Z"/>
    <path class="cls-1" d="M59.22,359.44c1.03-.73-.04-2.42-1.08-1.69-1.03.73.04,2.42,1.08,1.69h0Z"/>
    <path class="cls-1" d="M54.98,360.67c1.03-.73-.04-2.42-1.08-1.69-1.03.73.04,2.42,1.08,1.69h0Z"/>
    <path class="cls-1" d="M53.25,361.89c1.03-.73-.04-2.42-1.08-1.69-1.03.73.04,2.42,1.08,1.69h0Z"/>
    <path class="cls-1" d="M53.21,388.07c1.55-1.09-.06-3.62-1.61-2.53-1.55,1.09.06,3.62,1.61,2.53h0Z"/>
    <path class="cls-1" d="M62.45,386.82c1.55-1.09-.06-3.62-1.61-2.53-1.55,1.09.06,3.62,1.61,2.53h0Z"/>
    <path class="cls-1" d="M71.83,363.47c.19-.14.38-.27.58-.41.31-.22.54-.59.61-.97.07-.37,0-.84-.22-1.14-.22-.32-.54-.58-.92-.65-.38-.06-.76,0-1.09.23-.19.14-.38.27-.58.41-.31.22-.54.59-.61.97-.07.37,0,.84.22,1.14.22.32.54.58.92.65.38.06.76,0,1.09-.23h0Z"/>
    <path class="cls-1" d="M73.53,351.71c1.55-1.09-.06-3.62-1.61-2.53-1.55,1.09.06,3.62,1.61,2.53h0Z"/>
    <path class="cls-1" d="M66.81,360.85c1.55-1.09-.06-3.62-1.61-2.53-1.55,1.09.06,3.62,1.61,2.53h0Z"/>
    <path class="cls-1" d="M64.72,369.38c1.55-1.09-.06-3.62-1.61-2.53-1.55,1.09.06,3.62,1.61,2.53h0Z"/>
    <path class="cls-1" d="M40.03,362.15c1.55-1.09-.06-3.62-1.61-2.53-1.55,1.09.06,3.62,1.61,2.53h0Z"/>
    <path class="cls-1" d="M29.42,359.95c1.55-1.09-.06-3.62-1.61-2.53-1.55,1.09.06,3.62,1.61,2.53h0Z"/>
    <path class="cls-1" d="M48.86,349.75c1.55-1.09-.06-3.62-1.61-2.53-1.55,1.09.06,3.62,1.61,2.53h0Z"/>
    <path class="cls-1" d="M81.78,362.01c1.03-.73-.04-2.42-1.08-1.69-1.03.73.04,2.42,1.08,1.69h0Z"/>
    <path class="cls-1" d="M90.99,350.22c1.03-.73-.04-2.42-1.08-1.69-1.03.73.04,2.42,1.08,1.69h0Z"/>
    <path class="cls-1" d="M41.86,401.34c1.03-.73-.04-2.42-1.08-1.69-1.03.73.04,2.42,1.08,1.69h0Z"/>
    <path class="cls-1" d="M39.01,393.37c1.03-.73-.04-2.42-1.08-1.69-1.03.73.04,2.42,1.08,1.69h0Z"/>
    <path class="cls-1" d="M65.95,381.37c.52-.36-.02-1.21-.54-.84-.52.36.02,1.21.54.84h0Z"/>
    <path class="cls-1" d="M58.49,378.42c.52-.36-.02-1.21-.54-.84-.52.36.02,1.21.54.84h0Z"/>
    <path class="cls-1" d="M61.84,380.17c.52-.36-.02-1.21-.54-.84-.52.36.02,1.21.54.84h0Z"/>
    <path class="cls-1" d="M66.33,377.58c.52-.36-.02-1.21-.54-.84-.52.36.02,1.21.54.84h0Z"/>
    <path class="cls-1" d="M66.19,374.75c.52-.36-.02-1.21-.54-.84-.52.36.02,1.21.54.84h0Z"/>
    <path class="cls-1" d="M60.57,388.69c.52-.36-.02-1.21-.54-.84-.52.36.02,1.21.54.84h0Z"/>
    <path class="cls-1" d="M49.97,409.68c.52-.36-.02-1.21-.54-.84-.52.36.02,1.21.54.84h0Z"/>
    <path class="cls-1" d="M45.98,406.04c.38-.27.77-.54,1.15-.81.52-.36-.02-1.21-.54-.84-.38.27-.77.54-1.15.81-.52.36.02,1.21.54.84h0Z"/>
    <path class="cls-1" d="M50.07,400.66c.17-.32.34-.63.51-.95.13-.24,0-.56-.22-.68-.25-.13-.52,0-.64.24-.17.32-.34.63-.51.95-.13.24,0,.56.22.68.25.13.52,0,.64-.24h0Z"/>
    <path class="cls-1" d="M69.34,398.94c.52-.36-.02-1.21-.54-.84-.52.36.02,1.21.54.84h0Z"/>
    <path class="cls-1" d="M66.4,403.95c.52-.36-.02-1.21-.54-.84-.52.36.02,1.21.54.84h0Z"/>
    <path class="cls-1" d="M59.33,404.24c.52-.36-.02-1.21-.54-.84-.52.36.02,1.21.54.84h0Z"/>
    <path class="cls-1" d="M61.1,391.26c.52-.36-.02-1.21-.54-.84-.52.36.02,1.21.54.84h0Z"/>
    <path class="cls-1" d="M79.67,377.51c-.38.27-.77.54-1.15.81-.52.36.02,1.21.54.84.38-.27.77-.54,1.15-.81.52-.36-.02-1.21-.54-.84h0Z"/>
    <path class="cls-1" d="M69.4,375.41c.52-.36-.02-1.21-.54-.84-.52.36.02,1.21.54.84h0Z"/>
    <path class="cls-1" d="M67.29,366.19c.85-.41,1.71-.82,2.56-1.23.56-.27.26-1.23-.31-.96-.85.41-1.71.82-2.56,1.23-.56.27-.26,1.23.31.96h0Z"/>
    <path class="cls-1" d="M66.04,369.22c0,.59,0,1.17,0,1.76,0,.66.97.59.96-.06,0-.59,0-1.17,0-1.76,0-.66-.97-.59-.96.06h0Z"/>
    <path class="cls-1" d="M61.56,368.38c2.25-1.74,4.6-3.29,7.07-4.66.55-.3,0-1.14-.54-.84-2.47,1.37-4.82,2.92-7.07,4.66-.5.39.04,1.23.54.84h0Z"/>
  </g>
  <g>
    <path class="cls-1" d="M37.15,385.32c.89.17,1.39.59,1.85,1.37.54.94,1.84,1.15,2.68.56.9-.63,1.07-1.88.53-2.82-.94-1.63-2.53-2.75-4.31-3.09-2.44-.48-3.19,3.51-.75,3.99h0Z"/>
    <path class="cls-1" d="M46.69,384.59c2.06-1.46-.08-4.83-2.15-3.37-2.06,1.46.08,4.83,2.15,3.37h0Z"/>
    <path class="cls-1" d="M48.44,391.28c2.06-1.46-.08-4.83-2.15-3.37-2.06,1.46.08,4.83,2.15,3.37h0Z"/>
    <path class="cls-1" d="M55.92,391.87c-.33-2.95-1.18-5.69-2.56-8.28-1.21-2.28-4.41,0-3.21,2.26,1.03,1.94,1.66,4.06,1.91,6.27.29,2.59,4.14,2.35,3.85-.25h0Z"/>
    <path class="cls-1" d="M44.15,374.05c2.06-1.46-.08-4.83-2.15-3.37-2.06,1.46.08,4.83,2.15,3.37h0Z"/>
    <path class="cls-1" d="M49.38,380.93c2.06-1.46-.08-4.83-2.15-3.37-2.06,1.46.08,4.83,2.15,3.37h0Z"/>
    <path class="cls-1" d="M45.22,396.73c1.03-.73-.04-2.42-1.08-1.69-1.03.73.04,2.42,1.08,1.69h0Z"/>
    <path class="cls-1" d="M45.39,387.81c1.03-.73-.04-2.42-1.08-1.69-1.03.73.04,2.42,1.08,1.69h0Z"/>
    <path class="cls-1" d="M44.05,389.64c1.03-.73-.04-2.42-1.08-1.69-1.03.73.04,2.42,1.08,1.69h0Z"/>
    <path class="cls-1" d="M41.55,392.28c1.03-.73-.04-2.42-1.08-1.69-1.03.73.04,2.42,1.08,1.69h0Z"/>
    <path class="cls-1" d="M38.28,393.71c1.03-.73-.04-2.42-1.08-1.69-1.03.73.04,2.42,1.08,1.69h0Z"/>
    <path class="cls-1" d="M32.48,389.87c1.03-.73-.04-2.42-1.08-1.69-1.03.73.04,2.42,1.08,1.69h0Z"/>
    <path class="cls-1" d="M34.39,382.36c1.03-.73-.04-2.42-1.08-1.69-1.03.73.04,2.42,1.08,1.69h0Z"/>
    <path class="cls-1" d="M18.07,405.33c1.03-.73-.04-2.42-1.08-1.69-1.03.73.04,2.42,1.08,1.69h0Z"/>
    <path class="cls-1" d="M48.58,424.3c1.03-.73-.04-2.42-1.08-1.69-1.03.73.04,2.42,1.08,1.69h0Z"/>
    <path class="cls-1" d="M75.7,407.79c1.03-.73-.04-2.42-1.08-1.69-1.03.73.04,2.42,1.08,1.69h0Z"/>
    <path class="cls-1" d="M69.29,388.54c1.03-.73-.04-2.42-1.08-1.69-1.03.73.04,2.42,1.08,1.69h0Z"/>
    <path class="cls-1" d="M82.98,390.33c1.03-.73-.04-2.42-1.08-1.69-1.03.73.04,2.42,1.08,1.69h0Z"/>
    <path class="cls-1" d="M67.79,401.93c1.03-.73-.04-2.42-1.08-1.69-1.03.73.04,2.42,1.08,1.69h0Z"/>
    <path class="cls-1" d="M67.19,397.07c1.03-.73-.04-2.42-1.08-1.69-1.03.73.04,2.42,1.08,1.69h0Z"/>
    <path class="cls-1" d="M64.96,393.56c-.19.14-.38.27-.58.41-.42.3-.57.97-.26,1.41.31.44.89.59,1.34.28.19-.14.38-.27.58-.41.42-.3.57-.97.26-1.41-.31-.44-.89-.59-1.34-.28h0Z"/>
    <path class="cls-1" d="M53.32,398.94c1.03-.73-.04-2.42-1.08-1.69-1.03.73.04,2.42,1.08,1.69h0Z"/>
    <path class="cls-1" d="M51.02,400.57c1.03-.73-.04-2.42-1.08-1.69-1.03.73.04,2.42,1.08,1.69h0Z"/>
    <path class="cls-1" d="M49.8,397.74c.51-.95,1.02-1.9,1.53-2.84.61-1.14-1.13-2.02-1.74-.89-.51.95-1.02,1.9-1.53,2.84-.61,1.14,1.13,2.02,1.74.89h0Z"/>
    <path class="cls-1" d="M51.38,393.26c1.03-.73-.04-2.42-1.08-1.69-1.03.73.04,2.42,1.08,1.69h0Z"/>
    <path class="cls-1" d="M50.83,389.8c-.32-.07-.64-.13-.96-.2-.5-.1-1.05.26-1.13.8-.08.54.23,1.08.76,1.19.32.07.64.13.96.2.5.1,1.05-.26,1.13-.8.08-.54-.23-1.08-.76-1.19h0Z"/>
    <path class="cls-1" d="M45.98,392.67c1.03-.73-.04-2.42-1.08-1.69-1.03.73.04,2.42,1.08,1.69h0Z"/>
    <path class="cls-1" d="M44.15,393.14c1.04.73,2.08,1.46,3.11,2.18.44.31.99.34,1.36-.11.31-.37.33-1.13-.1-1.43-1.04-.73-2.08-1.46-3.11-2.18-.44-.31-.99-.34-1.36.11-.31.37-.33,1.13.1,1.43h0Z"/>
    <path class="cls-1" d="M50.23,396.71c1.03-.73-.04-2.42-1.08-1.69-1.03.73.04,2.42,1.08,1.69h0Z"/>
    <path class="cls-1" d="M52.94,398.33c1.03-.73-.04-2.42-1.08-1.69-1.03.73.04,2.42,1.08,1.69h0Z"/>
    <path class="cls-1" d="M57.56,397.71c1.03-.73-.04-2.42-1.08-1.69-1.03.73.04,2.42,1.08,1.69h0Z"/>
    <path class="cls-1" d="M59.28,391.21c1.03-.73-.04-2.42-1.08-1.69-1.03.73.04,2.42,1.08,1.69h0Z"/>
    <path class="cls-1" d="M60.43,390.4c1.03-.73-.04-2.42-1.08-1.69-1.03.73.04,2.42,1.08,1.69h0Z"/>
    <path class="cls-1" d="M56.25,385.15c1.55-1.09-.06-3.62-1.61-2.53-1.55,1.09.06,3.62,1.61,2.53h0Z"/>
    <path class="cls-1" d="M59.34,387.37c1.55-1.09-.06-3.62-1.61-2.53-1.55,1.09.06,3.62,1.61,2.53h0Z"/>
    <path class="cls-1" d="M51.25,387.81c1.55-1.09-.06-3.62-1.61-2.53-1.55,1.09.06,3.62,1.61,2.53h0Z"/>
    <path class="cls-1" d="M47.19,385.38c1.55-1.09-.06-3.62-1.61-2.53-1.55,1.09.06,3.62,1.61,2.53h0Z"/>
    <path class="cls-1" d="M43.13,380.33c1.55-1.09-.06-3.62-1.61-2.53-1.55,1.09.06,3.62,1.61,2.53h0Z"/>
    <path class="cls-1" d="M53.34,379.28c1.55-1.09-.06-3.62-1.61-2.53-1.55,1.09.06,3.62,1.61,2.53h0Z"/>
    <path class="cls-1" d="M58.16,380.28c1.55-1.09-.06-3.62-1.61-2.53-1.55,1.09.06,3.62,1.61,2.53h0Z"/>
    <path class="cls-1" d="M54.51,383.74c1.55-1.09-.06-3.62-1.61-2.53-1.55,1.09.06,3.62,1.61,2.53h0Z"/>
    <path class="cls-1" d="M54.33,382.03c-.13-.2-.26-.4-.39-.61-.21-.32-.56-.57-.92-.65-.35-.07-.8,0-1.09.23-.3.23-.56.57-.61.97-.06.4,0,.8.22,1.14.13.2.26.4.39.61.21.32.56.57.92.65.35.07.8,0,1.09-.23.3-.23.56-.57.61-.97.06-.4,0-.8-.22-1.14h0Z"/>
    <path class="cls-1" d="M51.81,382.13c1.55-1.09-.06-3.62-1.61-2.53-1.55,1.09.06,3.62,1.61,2.53h0Z"/>
    <path class="cls-1" d="M48.35,384.57c1.55-1.09-.06-3.62-1.61-2.53-1.55,1.09.06,3.62,1.61,2.53h0Z"/>
    <path class="cls-1" d="M43.34,387.22c1.55-1.09-.06-3.62-1.61-2.53-1.55,1.09.06,3.62,1.61,2.53h0Z"/>
    <path class="cls-1" d="M38.54,391.49c1.55-1.09-.06-3.62-1.61-2.53-1.55,1.09.06,3.62,1.61,2.53h0Z"/>
    <path class="cls-1" d="M45.94,376.85c.19-.14.38-.27.58-.41.42-.3.57-.97.26-1.41-.31-.44-.89-.59-1.34-.28-.19.14-.38.27-.58.41-.42.3-.57.97-.26,1.41.31.44.89.59,1.34.28h0Z"/>
    <path class="cls-1" d="M48.44,374.21c1.03-.73-.04-2.42-1.08-1.69-1.03.73.04,2.42,1.08,1.69h0Z"/>
    <path class="cls-1" d="M46.14,381.11c1.03-.73-.04-2.42-1.08-1.69-1.03.73.04,2.42,1.08,1.69h0Z"/>
    <path class="cls-1" d="M38.87,382.14c2.68-.91,5.5-.81,8.11.32,1.14.5,1.99-1.33.84-1.83-3.08-1.33-6.39-1.49-9.56-.42-1.18.4-.57,2.33.61,1.93h0Z"/>
    <path class="cls-1" d="M47.51,382.46c.76-1.43,1.52-2.85,2.28-4.28.61-1.14-1.13-2.02-1.74-.89-.76,1.43-1.52,2.85-2.28,4.28-.61,1.14,1.13,2.02,1.74.89h0Z"/>
    <path class="cls-1" d="M52.67,372.98c1.03-.73-.04-2.42-1.08-1.69-1.03.73.04,2.42,1.08,1.69h0Z"/>
    <path class="cls-1" d="M54.8,375c1.03-.73-.04-2.42-1.08-1.69-1.03.73.04,2.42,1.08,1.69h0Z"/>
    <path class="cls-1" d="M58.65,373.16c1.03-.73-.04-2.42-1.08-1.69-1.03.73.04,2.42,1.08,1.69h0Z"/>
    <path class="cls-1" d="M64.65,383.89c1.03-.73-.04-2.42-1.08-1.69-1.03.73.04,2.42,1.08,1.69h0Z"/>
    <path class="cls-1" d="M57.13,381.28c1.03-.73-.04-2.42-1.08-1.69-1.03.73.04,2.42,1.08,1.69h0Z"/>
    <path class="cls-1" d="M55.67,378.99c-.68.48-1.37.96-2.05,1.44-.4.28-.54.84-.32,1.29.2.41.72.74,1.16.52,1.16-.57,1.94-1.52,2.28-2.82.14-.53-.28-1.09-.76-1.19-.54-.11-1,.27-1.13.8-.14.54-.52,1.05-1,1.29l.84,1.81c.68-.48,1.37-.96,2.05-1.44,1.03-.73-.04-2.41-1.08-1.69h0Z"/>
    <path class="cls-1" d="M56.92,377.02c1.03-.73-.04-2.42-1.08-1.69-1.03.73.04,2.42,1.08,1.69h0Z"/>
    <path class="cls-1" d="M55.76,375.2c1.03-.73-.04-2.42-1.08-1.69-1.03.73.04,2.42,1.08,1.69h0Z"/>
    <path class="cls-1" d="M51.53,376.43c1.03-.73-.04-2.42-1.08-1.69-1.03.73.04,2.42,1.08,1.69h0Z"/>
    <path class="cls-1" d="M49.8,377.65c1.03-.73-.04-2.42-1.08-1.69-1.03.73.04,2.42,1.08,1.69h0Z"/>
    <path class="cls-1" d="M49.75,403.83c1.55-1.09-.06-3.62-1.61-2.53-1.55,1.09.06,3.62,1.61,2.53h0Z"/>
    <path class="cls-1" d="M59,402.59c1.55-1.09-.06-3.62-1.61-2.53-1.55,1.09.06,3.62,1.61,2.53h0Z"/>
    <path class="cls-1" d="M68.38,379.24c.19-.14.38-.27.58-.41.31-.22.54-.59.61-.97.07-.37,0-.84-.22-1.14-.22-.32-.54-.58-.92-.65-.38-.06-.76,0-1.09.23l-.58.41c-.31.22-.54.59-.61.97-.07.37,0,.84.22,1.14.22.32.54.58.92.65.38.06.76,0,1.09-.23h0Z"/>
    <path class="cls-1" d="M70.08,367.47c1.55-1.09-.06-3.62-1.61-2.53-1.55,1.09.06,3.62,1.61,2.53h0Z"/>
    <path class="cls-1" d="M63.36,376.61c1.55-1.09-.06-3.62-1.61-2.53-1.55,1.09.06,3.62,1.61,2.53h0Z"/>
    <path class="cls-1" d="M61.26,385.14c1.55-1.09-.06-3.62-1.61-2.53-1.55,1.09.06,3.62,1.61,2.53h0Z"/>
    <path class="cls-1" d="M36.57,377.91c1.55-1.09-.06-3.62-1.61-2.53-1.55,1.09.06,3.62,1.61,2.53h0Z"/>
    <path class="cls-1" d="M25.97,375.72c1.55-1.09-.06-3.62-1.61-2.53-1.55,1.09.06,3.62,1.61,2.53h0Z"/>
    <path class="cls-1" d="M45.4,365.52c1.55-1.09-.06-3.62-1.61-2.53-1.55,1.09.06,3.62,1.61,2.53h0Z"/>
    <path class="cls-1" d="M78.32,377.77c1.03-.73-.04-2.42-1.08-1.69-1.03.73.04,2.42,1.08,1.69h0Z"/>
    <path class="cls-1" d="M87.54,365.98c1.03-.73-.04-2.42-1.08-1.69-1.03.73.04,2.42,1.08,1.69h0Z"/>
    <path class="cls-1" d="M38.41,417.1c1.03-.73-.04-2.42-1.08-1.69-1.03.73.04,2.42,1.08,1.69h0Z"/>
    <path class="cls-1" d="M35.56,409.13c1.03-.73-.04-2.42-1.08-1.69-1.03.73.04,2.42,1.08,1.69h0Z"/>
    <path class="cls-1" d="M62.49,397.13c.52-.36-.02-1.21-.54-.84-.52.36.02,1.21.54.84h0Z"/>
    <path class="cls-1" d="M55.03,394.18c.52-.36-.02-1.21-.54-.84-.52.36.02,1.21.54.84h0Z"/>
    <path class="cls-1" d="M58.38,395.93c.52-.36-.02-1.21-.54-.84-.52.36.02,1.21.54.84h0Z"/>
    <path class="cls-1" d="M62.87,393.35c.52-.36-.02-1.21-.54-.84-.52.36.02,1.21.54.84h0Z"/>
    <path class="cls-1" d="M62.73,390.51c.52-.36-.02-1.21-.54-.84-.52.36.02,1.21.54.84h0Z"/>
    <path class="cls-1" d="M57.12,404.45c.52-.36-.02-1.21-.54-.84-.52.36.02,1.21.54.84h0Z"/>
    <path class="cls-1" d="M46.51,425.44c.52-.36-.02-1.21-.54-.84-.52.36.02,1.21.54.84h0Z"/>
    <path class="cls-1" d="M42.52,421.8c.38-.27.77-.54,1.15-.81.52-.36-.02-1.21-.54-.84-.38.27-.77.54-1.15.81-.52.36.02,1.21.54.84h0Z"/>
    <path class="cls-1" d="M46.61,416.42l.51-.95c.13-.24,0-.56-.22-.68-.25-.13-.52,0-.64.24l-.51.95c-.13.24,0,.56.22.68.25.13.52,0,.64-.24h0Z"/>
    <path class="cls-1" d="M65.88,414.7c.52-.36-.02-1.21-.54-.84-.52.36.02,1.21.54.84h0Z"/>
    <path class="cls-1" d="M62.94,419.71c.52-.36-.02-1.21-.54-.84-.52.36.02,1.21.54.84h0Z"/>
    <path class="cls-1" d="M55.88,420c.52-.36-.02-1.21-.54-.84-.52.36.02,1.21.54.84h0Z"/>
    <path class="cls-1" d="M57.64,407.02c.52-.36-.02-1.21-.54-.84-.52.36.02,1.21.54.84h0Z"/>
    <path class="cls-1" d="M76.21,393.27c-.38.27-.77.54-1.15.81-.52.36.02,1.21.54.84.38-.27.77-.54,1.15-.81.52-.36-.02-1.21-.54-.84h0Z"/>
    <path class="cls-1" d="M65.95,391.17c.52-.36-.02-1.21-.54-.84-.52.36.02,1.21.54.84h0Z"/>
    <path class="cls-1" d="M63.84,381.95c.85-.41,1.71-.82,2.56-1.23.56-.27.26-1.23-.31-.96-.85.41-1.71.82-2.56,1.23-.56.27-.26,1.23.31.96h0Z"/>
    <path class="cls-1" d="M62.59,384.98c0,.59,0,1.17,0,1.76,0,.66.97.59.96-.06,0-.59,0-1.17,0-1.76,0-.66-.97-.59-.96.06h0Z"/>
    <path class="cls-1" d="M58.11,384.15c2.25-1.74,4.6-3.29,7.07-4.66.55-.3,0-1.14-.54-.84-2.47,1.37-4.82,2.92-7.07,4.66-.5.39.04,1.23.54.84h0Z"/>
  </g>
  <g>
    <path class="cls-1" d="M163.61,33.35c1.31.26,2.06.87,2.73,2.02.8,1.38,2.71,1.69,3.95.82,1.33-.94,1.58-2.77.78-4.16-1.39-2.4-3.74-4.05-6.35-4.57-3.61-.71-4.71,5.17-1.1,5.88h0Z"/>
    <path class="cls-1" d="M177.69,32.27c3.04-2.15-.12-7.13-3.17-4.98-3.04,2.15.12,7.13,3.17,4.98h0Z"/>
    <path class="cls-1" d="M180.27,42.14c3.04-2.15-.12-7.13-3.17-4.98-3.04,2.15.12,7.13,3.17,4.98h0Z"/>
    <path class="cls-1" d="M191.31,43.01c-.48-4.36-1.74-8.39-3.77-12.22-1.78-3.37-6.5-.01-4.73,3.34,1.52,2.87,2.45,5.99,2.82,9.25.42,3.82,6.11,3.47,5.69-.37h0Z"/>
    <path class="cls-1" d="M173.95,16.73c3.04-2.15-.12-7.13-3.17-4.98-3.04,2.15.12,7.13,3.17,4.98h0Z"/>
    <path class="cls-1" d="M181.65,26.87c3.04-2.15-.12-7.13-3.17-4.98-3.04,2.15.12,7.13,3.17,4.98h0Z"/>
    <path class="cls-1" d="M175.53,50.18c1.52-1.07-.06-3.56-1.59-2.49-1.52,1.07.06,3.56,1.59,2.49h0Z"/>
    <path class="cls-1" d="M175.77,37.01c1.52-1.07-.06-3.56-1.59-2.49-1.52,1.07.06,3.56,1.59,2.49h0Z"/>
    <path class="cls-1" d="M173.79,39.71c1.52-1.07-.06-3.56-1.59-2.49-1.52,1.07.06,3.56,1.59,2.49h0Z"/>
    <path class="cls-1" d="M170.11,43.61c1.52-1.07-.06-3.56-1.59-2.49-1.52,1.07.06,3.56,1.59,2.49h0Z"/>
    <path class="cls-1" d="M165.28,45.72c1.52-1.07-.06-3.56-1.59-2.49-1.52,1.07.06,3.56,1.59,2.49h0Z"/>
    <path class="cls-1" d="M156.73,40.06c1.52-1.07-.06-3.56-1.59-2.49-1.52,1.07.06,3.56,1.59,2.49h0Z"/>
    <path class="cls-1" d="M159.55,28.99c1.52-1.07-.06-3.56-1.59-2.49-1.52,1.07.06,3.56,1.59,2.49h0Z"/>
    <path class="cls-1" d="M135.47,62.87c1.52-1.07-.06-3.56-1.59-2.49-1.52,1.07.06,3.56,1.59,2.49h0Z"/>
    <path class="cls-1" d="M180.47,90.85c1.52-1.07-.06-3.56-1.59-2.49-1.52,1.07.06,3.56,1.59,2.49h0Z"/>
    <path class="cls-1" d="M220.5,66.5c1.52-1.07-.06-3.56-1.59-2.49-1.52,1.07.06,3.56,1.59,2.49h0Z"/>
    <path class="cls-1" d="M211.03,38.1c1.52-1.07-.06-3.56-1.59-2.49-1.52,1.07.06,3.56,1.59,2.49h0Z"/>
    <path class="cls-1" d="M231.23,40.73c1.52-1.07-.06-3.56-1.59-2.49-1.52,1.07.06,3.56,1.59,2.49h0Z"/>
    <path class="cls-1" d="M208.81,57.86c1.52-1.07-.06-3.56-1.59-2.49-1.52,1.07.06,3.56,1.59,2.49h0Z"/>
    <path class="cls-1" d="M207.94,50.68c1.52-1.07-.06-3.56-1.59-2.49-1.52,1.07.06,3.56,1.59,2.49h0Z"/>
    <path class="cls-1" d="M204.64,45.5c-.28.2-.57.4-.85.6-.62.44-.85,1.43-.39,2.08.46.65,1.31.88,1.98.41.28-.2.57-.4.85-.6.62-.44.85-1.43.39-2.08-.46-.65-1.31-.88-1.98-.41h0Z"/>
    <path class="cls-1" d="M187.48,53.43c1.52-1.07-.06-3.56-1.59-2.49-1.52,1.07.06,3.56,1.59,2.49h0Z"/>
    <path class="cls-1" d="M184.07,55.84c1.52-1.07-.06-3.56-1.59-2.49-1.52,1.07.06,3.56,1.59,2.49h0Z"/>
    <path class="cls-1" d="M182.28,51.66c.75-1.4,1.51-2.8,2.26-4.2.9-1.68-1.66-2.98-2.56-1.31-.75,1.4-1.51,2.8-2.26,4.2-.9,1.68,1.66,2.98,2.56,1.31h0Z"/>
    <path class="cls-1" d="M184.61,45.07c1.52-1.07-.06-3.56-1.59-2.49-1.52,1.07.06,3.56,1.59,2.49h0Z"/>
    <path class="cls-1" d="M183.8,39.96c-.47-.1-.95-.2-1.42-.29-.73-.15-1.56.38-1.67,1.18-.12.8.34,1.6,1.12,1.76.47.1.95.2,1.42.29.73.15,1.56-.38,1.67-1.18.12-.8-.34-1.6-1.12-1.76h0Z"/>
    <path class="cls-1" d="M176.65,44.19c1.52-1.07-.06-3.56-1.59-2.49-1.52,1.07.06,3.56,1.59,2.49h0Z"/>
    <path class="cls-1" d="M173.94,44.89c1.53,1.07,3.06,2.15,4.59,3.22.64.45,1.46.5,2.01-.16.46-.55.49-1.67-.15-2.11-1.53-1.07-3.06-2.15-4.59-3.22-.64-.45-1.46-.5-2.01.16-.46.55-.49,1.67.15,2.11h0Z"/>
    <path class="cls-1" d="M182.92,50.16c1.52-1.07-.06-3.56-1.59-2.49-1.52,1.07.06,3.56,1.59,2.49h0Z"/>
    <path class="cls-1" d="M186.91,52.54c1.52-1.07-.06-3.56-1.59-2.49-1.52,1.07.06,3.56,1.59,2.49h0Z"/>
    <path class="cls-1" d="M193.73,51.62c1.52-1.07-.06-3.56-1.59-2.49-1.52,1.07.06,3.56,1.59,2.49h0Z"/>
    <path class="cls-1" d="M196.26,42.04c1.52-1.07-.06-3.56-1.59-2.49-1.52,1.07.06,3.56,1.59,2.49h0Z"/>
    <path class="cls-1" d="M197.96,40.84c1.52-1.07-.06-3.56-1.59-2.49-1.52,1.07.06,3.56,1.59,2.49h0Z"/>
    <path class="cls-1" d="M191.8,33.1c2.28-1.61-.09-5.35-2.38-3.73-2.28,1.61.09,5.35,2.38,3.73h0Z"/>
    <path class="cls-1" d="M196.36,36.38c2.28-1.61-.09-5.35-2.38-3.73-2.28,1.61.09,5.35,2.38,3.73h0Z"/>
    <path class="cls-1" d="M184.41,37.01c2.28-1.61-.09-5.35-2.38-3.73-2.28,1.61.09,5.35,2.38,3.73h0Z"/>
    <path class="cls-1" d="M178.43,33.44c2.28-1.61-.09-5.35-2.38-3.73-2.28,1.61.09,5.35,2.38,3.73h0Z"/>
    <path class="cls-1" d="M172.44,25.98c2.28-1.61-.09-5.35-2.38-3.73-2.28,1.61.09,5.35,2.38,3.73h0Z"/>
    <path class="cls-1" d="M187.51,24.44c2.28-1.61-.09-5.35-2.38-3.73-2.28,1.61.09,5.35,2.38,3.73h0Z"/>
    <path class="cls-1" d="M194.62,25.91c2.28-1.61-.09-5.35-2.38-3.73-2.28,1.61.09,5.35,2.38,3.73h0Z"/>
    <path class="cls-1" d="M189.23,31.01c2.28-1.61-.09-5.35-2.38-3.73-2.28,1.61.09,5.35,2.38,3.73h0Z"/>
    <path class="cls-1" d="M188.96,28.5c-.19-.3-.38-.6-.57-.9-.31-.48-.82-.84-1.36-.95-.51-.11-1.17,0-1.6.34-.44.35-.82.84-.91,1.43-.09.59,0,1.18.32,1.69.19.3.38.6.57.9.31.48.82.84,1.36.95.51.11,1.17,0,1.6-.34.44-.35.82-.84.91-1.43.09-.59,0-1.18-.32-1.69h0Z"/>
    <path class="cls-1" d="M185.24,28.63c2.28-1.61-.09-5.35-2.38-3.73-2.28,1.61.09,5.35,2.38,3.73h0Z"/>
    <path class="cls-1" d="M180.14,32.24c2.28-1.61-.09-5.35-2.38-3.73-2.28,1.61.09,5.35,2.38,3.73h0Z"/>
    <path class="cls-1" d="M172.76,36.15c2.28-1.61-.09-5.35-2.38-3.73-2.28,1.61.09,5.35,2.38,3.73h0Z"/>
    <path class="cls-1" d="M165.66,42.46c2.28-1.61-.09-5.35-2.38-3.73-2.28,1.61.09,5.35,2.38,3.73h0Z"/>
    <path class="cls-1" d="M176.58,20.86c.28-.2.57-.4.85-.6.62-.44.85-1.43.39-2.08-.46-.65-1.31-.88-1.98-.41-.28.2-.57.4-.85.6-.62.44-.85,1.43-.39,2.08.46.65,1.31.88,1.98.41h0Z"/>
    <path class="cls-1" d="M180.27,16.95c1.52-1.07-.06-3.56-1.59-2.49-1.52,1.07.06,3.56,1.59,2.49h0Z"/>
    <path class="cls-1" d="M176.88,27.14c1.52-1.07-.06-3.56-1.59-2.49-1.52,1.07.06,3.56,1.59,2.49h0Z"/>
    <path class="cls-1" d="M166.16,28.66c3.96-1.34,8.11-1.2,11.96.47,1.69.73,2.94-1.96,1.24-2.7-4.54-1.97-9.42-2.2-14.1-.62-1.75.59-.84,3.43.9,2.84h0Z"/>
    <path class="cls-1" d="M178.91,29.13c1.12-2.1,2.25-4.21,3.37-6.31.9-1.68-1.67-2.98-2.56-1.31-1.12,2.1-2.25,4.21-3.37,6.31-.9,1.68,1.67,2.98,2.56,1.31h0Z"/>
    <path class="cls-1" d="M186.52,15.14c1.52-1.07-.06-3.56-1.59-2.49-1.52,1.07.06,3.56,1.59,2.49h0Z"/>
    <path class="cls-1" d="M189.65,18.12c1.52-1.07-.06-3.56-1.59-2.49-1.52,1.07.06,3.56,1.59,2.49h0Z"/>
    <path class="cls-1" d="M195.33,15.41c1.52-1.07-.06-3.56-1.59-2.49-1.52,1.07.06,3.56,1.59,2.49h0Z"/>
    <path class="cls-1" d="M204.19,31.24c1.52-1.07-.06-3.56-1.59-2.49-1.52,1.07.06,3.56,1.59,2.49h0Z"/>
    <path class="cls-1" d="M193.09,27.39c1.52-1.07-.06-3.56-1.59-2.49-1.52,1.07.06,3.56,1.59,2.49h0Z"/>
    <path class="cls-1" d="M190.93,24c-1.01.71-2.01,1.42-3.02,2.13-.58.41-.79,1.25-.47,1.9.29.6,1.07,1.09,1.72.77,1.71-.84,2.87-2.24,3.37-4.16.2-.78-.41-1.61-1.12-1.76-.8-.17-1.47.4-1.67,1.18-.21.79-.76,1.54-1.48,1.9l1.24,2.67c1.01-.71,2.01-1.42,3.02-2.13,1.52-1.07-.06-3.56-1.59-2.49h0Z"/>
    <path class="cls-1" d="M192.79,21.11c1.52-1.07-.06-3.56-1.59-2.49-1.52,1.07.06,3.56,1.59,2.49h0Z"/>
    <path class="cls-1" d="M191.08,18.42c1.52-1.07-.06-3.56-1.59-2.49-1.52,1.07.06,3.56,1.59,2.49h0Z"/>
    <path class="cls-1" d="M184.83,20.23c1.52-1.07-.06-3.56-1.59-2.49-1.52,1.07.06,3.56,1.59,2.49h0Z"/>
    <path class="cls-1" d="M182.27,22.03c1.52-1.07-.06-3.56-1.59-2.49-1.52,1.07.06,3.56,1.59,2.49h0Z"/>
    <path class="cls-1" d="M182.21,60.66c2.28-1.61-.09-5.35-2.38-3.73-2.28,1.61.09,5.35,2.38,3.73h0Z"/>
    <path class="cls-1" d="M195.85,58.82c2.28-1.61-.09-5.35-2.38-3.73-2.28,1.61.09,5.35,2.38,3.73h0Z"/>
    <path class="cls-1" d="M209.69,24.37c.28-.2.57-.4.85-.6.45-.32.8-.87.91-1.43.1-.54,0-1.24-.32-1.69-.33-.47-.8-.86-1.36-.95-.56-.09-1.12,0-1.6.34-.28.2-.57.4-.85.6-.45.32-.8.87-.91,1.43-.1.54,0,1.24.32,1.69.33.47.8.86,1.36.95.56.09,1.12,0,1.6-.34h0Z"/>
    <path class="cls-1" d="M212.2,7.01c2.28-1.61-.09-5.35-2.38-3.73-2.28,1.61.09,5.35,2.38,3.73h0Z"/>
    <path class="cls-1" d="M202.28,20.5c2.28-1.61-.09-5.35-2.38-3.73-2.28,1.61.09,5.35,2.38,3.73h0Z"/>
    <path class="cls-1" d="M199.19,33.08c2.28-1.61-.09-5.35-2.38-3.73-2.28,1.61.09,5.35,2.38,3.73h0Z"/>
    <path class="cls-1" d="M162.77,22.42c2.28-1.61-.09-5.35-2.38-3.73-2.28,1.61.09,5.35,2.38,3.73h0Z"/>
    <path class="cls-1" d="M147.12,19.18c2.28-1.61-.09-5.35-2.38-3.73-2.28,1.61.09,5.35,2.38,3.73h0Z"/>
    <path class="cls-1" d="M175.79,4.13c2.28-1.61-.09-5.35-2.38-3.73-2.28,1.61.09,5.35,2.38,3.73h0Z"/>
    <path class="cls-1" d="M224.35,22.21c1.52-1.07-.06-3.56-1.59-2.49-1.52,1.07.06,3.56,1.59,2.49h0Z"/>
    <path class="cls-1" d="M237.95,4.81c1.52-1.07-.06-3.56-1.59-2.49-1.52,1.07.06,3.56,1.59,2.49h0Z"/>
    <path class="cls-1" d="M165.47,80.23c1.52-1.07-.06-3.56-1.59-2.49-1.52,1.07.06,3.56,1.59,2.49h0Z"/>
    <path class="cls-1" d="M161.27,68.47c1.52-1.07-.06-3.56-1.59-2.49-1.52,1.07.06,3.56,1.59,2.49h0Z"/>
    <path class="cls-1" d="M201.01,50.77c.76-.54-.03-1.78-.79-1.24-.76.54.03,1.78.79,1.24h0Z"/>
    <path class="cls-1" d="M190,46.42c.76-.54-.03-1.78-.79-1.24-.76.54.03,1.78.79,1.24h0Z"/>
    <path class="cls-1" d="M194.94,49c.76-.54-.03-1.78-.79-1.24-.76.54.03,1.78.79,1.24h0Z"/>
    <path class="cls-1" d="M201.56,45.19c.76-.54-.03-1.78-.79-1.24-.76.54.03,1.78.79,1.24h0Z"/>
    <path class="cls-1" d="M201.36,41c.76-.54-.03-1.78-.79-1.24-.76.54.03,1.78.79,1.24h0Z"/>
    <path class="cls-1" d="M193.08,61.57c.76-.54-.03-1.78-.79-1.24-.76.54.03,1.78.79,1.24h0Z"/>
    <path class="cls-1" d="M177.43,92.53c.76-.54-.03-1.78-.79-1.24-.76.54.03,1.78.79,1.24h0Z"/>
    <path class="cls-1" d="M171.54,87.17l1.7-1.2c.76-.54-.03-1.78-.79-1.24l-1.7,1.2c-.76.54.03,1.78.79,1.24h0Z"/>
    <path class="cls-1" d="M177.57,79.24c.25-.47.5-.93.75-1.4.19-.35,0-.83-.33-1-.36-.19-.76,0-.95.35-.25.47-.5.93-.75,1.4-.19.35,0,.83.33,1,.36.19.76,0,.95-.35h0Z"/>
    <path class="cls-1" d="M206.01,76.69c.76-.54-.03-1.78-.79-1.24-.76.54.03,1.78.79,1.24h0Z"/>
    <path class="cls-1" d="M201.67,84.08c.76-.54-.03-1.78-.79-1.24-.76.54.03,1.78.79,1.24h0Z"/>
    <path class="cls-1" d="M191.24,84.51c.76-.54-.03-1.78-.79-1.24-.76.54.03,1.78.79,1.24h0Z"/>
    <path class="cls-1" d="M193.84,65.36c.76-.54-.03-1.78-.79-1.24-.76.54.03,1.78.79,1.24h0Z"/>
    <path class="cls-1" d="M221.24,45.08l-1.7,1.2c-.76.54.03,1.78.79,1.24.57-.4,1.14-.8,1.7-1.2.76-.54-.03-1.78-.79-1.24h0Z"/>
    <path class="cls-1" d="M206.1,41.98c.76-.54-.03-1.78-.79-1.24-.76.54.03,1.78.79,1.24h0Z"/>
    <path class="cls-1" d="M202.99,28.38c1.26-.61,2.52-1.21,3.78-1.82.83-.4.38-1.82-.45-1.42-1.26.61-2.52,1.21-3.78,1.82-.83.4-.38,1.82.45,1.42h0Z"/>
    <path class="cls-1" d="M201.14,32.84v2.59c.01.97,1.43.87,1.43-.09,0-.86,0-1.73,0-2.59,0-.97-1.42-.87-1.42.09h0Z"/>
    <path class="cls-1" d="M194.54,31.61c3.32-2.57,6.79-4.86,10.43-6.87.81-.45.01-1.69-.79-1.24-3.65,2.02-7.12,4.3-10.43,6.87-.74.57.05,1.82.79,1.24h0Z"/>
  </g>
  <g>
    <path class="cls-1" d="M162.45,85.83c1.54.3,2.42,1.02,3.21,2.39.94,1.63,3.2,2,4.66.97,1.56-1.1,1.86-3.27.92-4.9-1.64-2.83-4.4-4.77-7.49-5.38-4.25-.83-5.55,6.09-1.3,6.93h0Z"/>
    <path class="cls-1" d="M179.03,84.55c3.59-2.53-.15-8.4-3.74-5.86-3.59,2.53.15,8.4,3.74,5.86h0Z"/>
    <path class="cls-1" d="M182.08,96.18c3.59-2.53-.15-8.4-3.74-5.86-3.59,2.53.15,8.4,3.74,5.86h0Z"/>
    <path class="cls-1" d="M195.09,97.21c-.57-5.13-2.05-9.88-4.44-14.4-2.1-3.97-7.66-.01-5.57,3.93,1.79,3.38,2.89,7.06,3.32,10.9.5,4.51,7.2,4.08,6.7-.44h0Z"/>
    <path class="cls-1" d="M174.63,66.23c3.59-2.53-.15-8.4-3.74-5.86-3.59,2.53.15,8.4,3.74,5.86h0Z"/>
    <path class="cls-1" d="M183.71,78.19c3.59-2.53-.15-8.4-3.74-5.86-3.59,2.53.15,8.4,3.74,5.86h0Z"/>
    <path class="cls-1" d="M176.49,105.66c1.79-1.27-.07-4.2-1.87-2.93-1.79,1.27.07,4.2,1.87,2.93h0Z"/>
    <path class="cls-1" d="M176.78,90.14c1.79-1.27-.07-4.2-1.87-2.93-1.79,1.27.07,4.2,1.87,2.93h0Z"/>
    <path class="cls-1" d="M174.44,93.32c1.79-1.27-.07-4.2-1.87-2.93-1.79,1.27.07,4.2,1.87,2.93h0Z"/>
    <path class="cls-1" d="M170.1,97.92c1.79-1.27-.07-4.2-1.87-2.93-1.79,1.27.07,4.2,1.87,2.93h0Z"/>
    <path class="cls-1" d="M164.41,100.4c1.79-1.27-.07-4.2-1.87-2.93-1.79,1.27.07,4.2,1.87,2.93h0Z"/>
    <path class="cls-1" d="M154.34,93.74c1.79-1.27-.07-4.2-1.87-2.93-1.79,1.27.07,4.2,1.87,2.93h0Z"/>
    <path class="cls-1" d="M157.65,80.68c1.79-1.27-.07-4.2-1.87-2.93-1.79,1.27.07,4.2,1.87,2.93h0Z"/>
    <path class="cls-1" d="M129.28,120.61c1.79-1.27-.07-4.2-1.87-2.93-1.79,1.27.07,4.2,1.87,2.93h0Z"/>
    <path class="cls-1" d="M182.32,153.59c1.79-1.27-.07-4.2-1.87-2.93-1.79,1.27.07,4.2,1.87,2.93h0Z"/>
    <path class="cls-1" d="M229.48,124.89c1.79-1.27-.07-4.2-1.87-2.93-1.79,1.27.07,4.2,1.87,2.93h0Z"/>
    <path class="cls-1" d="M218.33,91.43c1.79-1.27-.07-4.2-1.87-2.93-1.79,1.27.07,4.2,1.87,2.93h0Z"/>
    <path class="cls-1" d="M242.13,94.53c1.79-1.27-.07-4.2-1.87-2.93-1.79,1.27.07,4.2,1.87,2.93h0Z"/>
    <path class="cls-1" d="M215.71,114.7c1.79-1.27-.07-4.2-1.87-2.93-1.79,1.27.07,4.2,1.87,2.93h0Z"/>
    <path class="cls-1" d="M214.69,106.24c1.79-1.27-.07-4.2-1.87-2.93-1.79,1.27.07,4.2,1.87,2.93h0Z"/>
    <path class="cls-1" d="M210.8,100.15c-.33.24-.67.47-1,.71-.73.51-1,1.68-.46,2.45.54.77,1.55,1.03,2.33.48.33-.24.67-.47,1-.71.73-.51,1-1.68.46-2.45-.54-.77-1.55-1.03-2.33-.48h0Z"/>
    <path class="cls-1" d="M190.57,109.49c1.79-1.27-.07-4.2-1.87-2.93-1.79,1.27.07,4.2,1.87,2.93h0Z"/>
    <path class="cls-1" d="M186.56,112.32c1.79-1.27-.07-4.2-1.87-2.93-1.79,1.27.07,4.2,1.87,2.93h0Z"/>
    <path class="cls-1" d="M184.44,107.41c.89-1.65,1.78-3.3,2.67-4.94,1.07-1.98-1.96-3.51-3.02-1.54-.89,1.65-1.78,3.3-2.67,4.94-1.07,1.98,1.96,3.51,3.02,1.54h0Z"/>
    <path class="cls-1" d="M187.19,99.63c1.79-1.27-.07-4.2-1.87-2.93-1.79,1.27.07,4.2,1.87,2.93h0Z"/>
    <path class="cls-1" d="M186.24,93.61c-.56-.12-1.12-.23-1.68-.35-.86-.18-1.83.45-1.97,1.39-.14.95.4,1.88,1.32,2.07l1.68.35c.86.18,1.83-.45,1.97-1.39.14-.95-.4-1.88-1.32-2.07h0Z"/>
    <path class="cls-1" d="M177.81,98.6c1.79-1.27-.07-4.2-1.87-2.93-1.79,1.27.07,4.2,1.87,2.93h0Z"/>
    <path class="cls-1" d="M174.62,99.42c1.8,1.26,3.61,2.53,5.41,3.79.76.53,1.71.59,2.37-.19.54-.65.58-1.96-.18-2.49-1.8-1.26-3.61-2.53-5.41-3.79-.76-.53-1.71-.59-2.37.19-.54.65-.58,1.96.18,2.49h0Z"/>
    <path class="cls-1" d="M185.2,105.63c1.79-1.27-.07-4.2-1.87-2.93-1.79,1.27.07,4.2,1.87,2.93h0Z"/>
    <path class="cls-1" d="M189.9,108.44c1.79-1.27-.07-4.2-1.87-2.93-1.79,1.27.07,4.2,1.87,2.93h0Z"/>
    <path class="cls-1" d="M197.94,107.35c1.79-1.27-.07-4.2-1.87-2.93-1.79,1.27.07,4.2,1.87,2.93h0Z"/>
    <path class="cls-1" d="M200.92,96.06c1.79-1.27-.07-4.2-1.87-2.93-1.79,1.27.07,4.2,1.87,2.93h0Z"/>
    <path class="cls-1" d="M202.93,94.65c1.79-1.27-.07-4.2-1.87-2.93-1.79,1.27.07,4.2,1.87,2.93h0Z"/>
    <path class="cls-1" d="M195.66,85.53c2.69-1.9-.11-6.3-2.8-4.4-2.69,1.9.11,6.3,2.8,4.4h0Z"/>
    <path class="cls-1" d="M201.03,89.39c2.69-1.9-.11-6.3-2.8-4.4-2.69,1.9.11,6.3,2.8,4.4h0Z"/>
    <path class="cls-1" d="M186.96,90.14c2.69-1.9-.11-6.3-2.8-4.4-2.69,1.9.11,6.3,2.8,4.4h0Z"/>
    <path class="cls-1" d="M179.91,85.93c2.69-1.9-.11-6.3-2.8-4.4-2.69,1.9.11,6.3,2.8,4.4h0Z"/>
    <path class="cls-1" d="M172.85,77.14c2.69-1.9-.11-6.3-2.8-4.4-2.69,1.9.11,6.3,2.8,4.4h0Z"/>
    <path class="cls-1" d="M190.61,75.32c2.69-1.9-.11-6.3-2.8-4.4-2.69,1.9.11,6.3,2.8,4.4h0Z"/>
    <path class="cls-1" d="M198.99,77.06c2.69-1.9-.11-6.3-2.8-4.4-2.69,1.9.11,6.3,2.8,4.4h0Z"/>
    <path class="cls-1" d="M192.64,83.07c2.69-1.9-.11-6.3-2.8-4.4-2.69,1.9.11,6.3,2.8,4.4h0Z"/>
    <path class="cls-1" d="M192.32,80.11l-.67-1.06c-.36-.56-.97-.99-1.6-1.12-.61-.13-1.38,0-1.89.4-.52.41-.97.99-1.07,1.69-.1.7,0,1.39.38,1.99l.67,1.06c.36.56.97.99,1.6,1.12.61.13,1.38,0,1.89-.4.52-.41.97-.99,1.07-1.69.1-.7,0-1.39-.38-1.99h0Z"/>
    <path class="cls-1" d="M187.94,80.27c2.69-1.9-.11-6.3-2.8-4.4-2.69,1.9.11,6.3,2.8,4.4h0Z"/>
    <path class="cls-1" d="M181.92,84.51c2.69-1.9-.11-6.3-2.8-4.4-2.69,1.9.11,6.3,2.8,4.4h0Z"/>
    <path class="cls-1" d="M173.22,89.12c2.69-1.9-.11-6.3-2.8-4.4-2.69,1.9.11,6.3,2.8,4.4h0Z"/>
    <path class="cls-1" d="M164.86,96.55c2.69-1.9-.11-6.3-2.8-4.4-2.69,1.9.11,6.3,2.8,4.4h0Z"/>
    <path class="cls-1" d="M177.73,71.1c.33-.24.67-.47,1-.71.73-.51,1-1.68.46-2.45-.54-.77-1.55-1.03-2.33-.48-.33.24-.67.47-1,.71-.73.51-1,1.68-.46,2.45.54.77,1.55,1.03,2.33.48h0Z"/>
    <path class="cls-1" d="M182.07,66.5c1.79-1.27-.07-4.2-1.87-2.93-1.79,1.27.07,4.2,1.87,2.93h0Z"/>
    <path class="cls-1" d="M178.09,78.5c1.79-1.27-.07-4.2-1.87-2.93-1.79,1.27.07,4.2,1.87,2.93h0Z"/>
    <path class="cls-1" d="M165.45,80.29c4.66-1.58,9.56-1.41,14.09.56,1.99.86,3.47-2.31,1.46-3.18-5.35-2.32-11.1-2.6-16.62-.73-2.06.7-.99,4.05,1.06,3.35h0Z"/>
    <path class="cls-1" d="M180.47,80.85c1.32-2.48,2.65-4.96,3.97-7.43,1.06-1.98-1.96-3.52-3.02-1.54-1.32,2.48-2.65,4.96-3.97,7.43-1.06,1.98,1.96,3.52,3.02,1.54h0Z"/>
    <path class="cls-1" d="M189.44,64.37c1.79-1.27-.07-4.2-1.87-2.93-1.79,1.27.07,4.2,1.87,2.93h0Z"/>
    <path class="cls-1" d="M193.14,67.88c1.79-1.27-.07-4.2-1.87-2.93-1.79,1.27.07,4.2,1.87,2.93h0Z"/>
    <path class="cls-1" d="M199.83,64.69c1.79-1.27-.07-4.2-1.87-2.93-1.79,1.27.07,4.2,1.87,2.93h0Z"/>
    <path class="cls-1" d="M210.27,83.34c1.79-1.27-.07-4.2-1.87-2.93-1.79,1.27.07,4.2,1.87,2.93h0Z"/>
    <path class="cls-1" d="M197.19,78.8c1.79-1.27-.07-4.2-1.87-2.93-1.79,1.27.07,4.2,1.87,2.93h0Z"/>
    <path class="cls-1" d="M194.64,74.81l-3.56,2.51c-.69.48-.93,1.47-.56,2.24.34.7,1.26,1.28,2.02.9,2.01-.99,3.38-2.64,3.97-4.91.24-.92-.48-1.9-1.32-2.07-.94-.2-1.73.47-1.97,1.39-.24.93-.9,1.82-1.74,2.24l1.47,3.14c1.19-.84,2.37-1.67,3.56-2.51,1.8-1.26-.07-4.2-1.87-2.93h0Z"/>
    <path class="cls-1" d="M196.83,71.39c1.79-1.27-.07-4.2-1.87-2.93-1.79,1.27.07,4.2,1.87,2.93h0Z"/>
    <path class="cls-1" d="M194.81,68.23c1.79-1.27-.07-4.2-1.87-2.93-1.79,1.27.07,4.2,1.87,2.93h0Z"/>
    <path class="cls-1" d="M187.45,70.37c1.79-1.27-.07-4.2-1.87-2.93-1.79,1.27.07,4.2,1.87,2.93h0Z"/>
    <path class="cls-1" d="M184.44,72.49c1.79-1.27-.07-4.2-1.87-2.93-1.79,1.27.07,4.2,1.87,2.93h0Z"/>
    <path class="cls-1" d="M184.36,118c2.69-1.9-.11-6.3-2.8-4.4-2.69,1.9.11,6.3,2.8,4.4h0Z"/>
    <path class="cls-1" d="M200.43,115.84c2.69-1.9-.11-6.3-2.8-4.4-2.69,1.9.11,6.3,2.8,4.4h0Z"/>
    <path class="cls-1" d="M216.74,75.24c.33-.24.67-.47,1-.71.54-.38.94-1.02,1.07-1.69.12-.64,0-1.46-.38-1.99-.39-.55-.94-1.02-1.6-1.12-.66-.11-1.32,0-1.89.4-.33.24-.67.47-1,.71-.54.38-.94,1.02-1.07,1.69-.12.64,0,1.46.38,1.99.39.55.94,1.02,1.6,1.12.66.11,1.32,0,1.89-.4h0Z"/>
    <path class="cls-1" d="M219.7,54.78c2.69-1.9-.11-6.3-2.8-4.4-2.69,1.9.11,6.3,2.8,4.4h0Z"/>
    <path class="cls-1" d="M208.02,70.68c2.69-1.9-.11-6.3-2.8-4.4-2.69,1.9.11,6.3,2.8,4.4h0Z"/>
    <path class="cls-1" d="M204.37,85.5c2.69-1.9-.11-6.3-2.8-4.4-2.69,1.9.11,6.3,2.8,4.4h0Z"/>
    <path class="cls-1" d="M161.45,72.94c2.69-1.9-.11-6.3-2.8-4.4-2.69,1.9.11,6.3,2.8,4.4h0Z"/>
    <path class="cls-1" d="M143.01,69.12c2.69-1.9-.11-6.3-2.8-4.4-2.69,1.9.11,6.3,2.8,4.4h0Z"/>
    <path class="cls-1" d="M176.8,51.39c2.69-1.9-.11-6.3-2.8-4.4-2.69,1.9.11,6.3,2.8,4.4h0Z"/>
    <path class="cls-1" d="M234.03,72.69c1.79-1.27-.07-4.2-1.87-2.93-1.79,1.27.07,4.2,1.87,2.93h0Z"/>
    <path class="cls-1" d="M250.05,52.19c1.79-1.27-.07-4.2-1.87-2.93-1.79,1.27.07,4.2,1.87,2.93h0Z"/>
    <path class="cls-1" d="M164.63,141.07c1.79-1.27-.07-4.2-1.87-2.93-1.79,1.27.07,4.2,1.87,2.93h0Z"/>
    <path class="cls-1" d="M159.68,127.22c1.79-1.27-.07-4.2-1.87-2.93-1.79,1.27.07,4.2,1.87,2.93h0Z"/>
    <path class="cls-1" d="M206.51,106.36c.9-.63-.04-2.1-.93-1.47-.9.63.04,2.1.93,1.47h0Z"/>
    <path class="cls-1" d="M193.54,101.23c.9-.63-.04-2.1-.93-1.47-.9.63.04,2.1.93,1.47h0Z"/>
    <path class="cls-1" d="M199.36,104.26c.9-.63-.04-2.1-.93-1.47-.9.63.04,2.1.93,1.47h0Z"/>
    <path class="cls-1" d="M207.17,99.77c.9-.63-.04-2.1-.93-1.47-.9.63.04,2.1.93,1.47h0Z"/>
    <path class="cls-1" d="M206.93,94.84c.9-.63-.04-2.1-.93-1.47-.9.63.04,2.1.93,1.47h0Z"/>
    <path class="cls-1" d="M197.17,119.08c.9-.63-.04-2.1-.93-1.47-.9.63.04,2.1.93,1.47h0Z"/>
    <path class="cls-1" d="M178.73,155.57c.9-.63-.04-2.1-.93-1.47-.9.63.04,2.1.93,1.47h0Z"/>
    <path class="cls-1" d="M171.79,149.24c.67-.47,1.34-.94,2.01-1.42.9-.63-.04-2.1-.93-1.47-.67.47-1.34.94-2.01,1.42-.9.63.04,2.1.93,1.47h0Z"/>
    <path class="cls-1" d="M178.9,139.9c.3-.55.59-1.1.89-1.65.22-.42,0-.98-.39-1.18-.43-.22-.9,0-1.12.41-.3.55-.59,1.1-.89,1.65-.22.42,0,.98.39,1.18.43.22.9,0,1.12-.41h0Z"/>
    <path class="cls-1" d="M212.41,136.9c.9-.63-.04-2.1-.93-1.47-.9.63.04,2.1.93,1.47h0Z"/>
    <path class="cls-1" d="M207.29,145.61c.9-.63-.04-2.1-.93-1.47-.9.63.04,2.1.93,1.47h0Z"/>
    <path class="cls-1" d="M195.01,146.12c.9-.63-.04-2.1-.93-1.47-.9.63.04,2.1.93,1.47h0Z"/>
    <path class="cls-1" d="M198.07,123.54c.9-.63-.04-2.1-.93-1.47-.9.63.04,2.1.93,1.47h0Z"/>
    <path class="cls-1" d="M230.36,99.64c-.67.47-1.34.94-2.01,1.42-.9.63.04,2.1.93,1.47.67-.47,1.34-.94,2.01-1.42.9-.63-.04-2.1-.93-1.47h0Z"/>
    <path class="cls-1" d="M212.52,96c.9-.63-.04-2.1-.93-1.47-.9.63.04,2.1.93,1.47h0Z"/>
    <path class="cls-1" d="M208.85,79.96c1.49-.71,2.97-1.43,4.46-2.14.97-.47.45-2.15-.53-1.68-1.49.71-2.97,1.43-4.46,2.14-.97.47-.45,2.15.53,1.68h0Z"/>
    <path class="cls-1" d="M206.68,85.23c0,1.02,0,2.04,0,3.06,0,1.14,1.68,1.02,1.67-.11,0-1.02,0-2.04,0-3.06,0-1.14-1.68-1.02-1.67.11h0Z"/>
    <path class="cls-1" d="M198.89,83.78c3.91-3.03,8-5.72,12.29-8.1.95-.53.01-1.99-.93-1.47-4.3,2.38-8.39,5.07-12.29,8.1-.87.67.06,2.14.93,1.47h0Z"/>
  </g>
  <path class="cls-1" d="M182.62,346.75c-28.28,0-57.39-7.09-86.18-21.18-48.19-23.58-76.79-68.84-78.46-124.17-1.85-61.13,30.07-121.21,79.42-149.51,31.91-18.3,99.27-38.92,191.97,28.48,30.34,22.07,49.46,51.73,55.28,85.8,5.25,30.75-.77,64.08-16.97,93.85-19.64,36.09-52.94,64.42-91.36,77.74-17.33,6.01-35.33,8.99-53.69,8.99ZM165.55,49.66c-21.72,0-42.25,5.32-60.98,16.07-44.51,25.53-73.3,79.85-71.62,135.17,1.49,49.17,26.93,89.41,69.81,110.39,27.58,13.49,54.36,19.42,79.29,19.42,59.31,0,108.16-33.54,132.63-78.52,24.15-44.38,29.78-112.6-33.82-158.85-39.84-28.97-79.21-43.68-115.3-43.68Z"/>
  <path class="cls-1" d="M188.96,68.32s11.88,7.64,11.88,26.39-10.56,55.56,6.6,56.95,8.58-22.92,6.6-35.42c-1.98-12.5-5.28-24.31,0-35.42,5.28-11.11,9.24-13.2,11.22-3.47,1.98,9.72,0,18.75,8.58,18.75s.66-23.61,7.26-20.14c6.6,3.47,7.82,11.01,24.7,4.81,0,0-31.3-24.95-53.74-23.56-22.44,1.39-92.78-15.49-98.06-8.55-5.28,6.95,74.96,19.66,74.96,19.66Z"/>
  <path class="cls-1" d="M213.57,41.18s-38.5-11.92-53.47-17.99c-14.98-6.06-31.11,1.21-46.09,10.91-14.98,9.7-41.48,23.04-55.31,38.8-13.83,15.76-40.33,44.86-46.09,73.96-5.76,29.1-4.61,43.65-10.37,54.56-5.76,10.91,1.15,23.04,3.46,30.31,2.3,7.27,9.22,55.77,32.26,70.32,23.04,14.55,53,27.89,64.53,37.59,11.52,9.7,55.04,5.27,55.04,5.27,0,0-101.13-33.15-120.72-94.99-19.59-61.83-31.11-99.42,6.91-134.58,38.02-35.16,54.16-73.96,94.48-71.53,40.33,2.42,75.37-2.62,75.37-2.62Z"/>
  <path class="cls-1" d="M153.3,343.42s64.41,11.98,97.83-.14c33.42-12.12,63.37-41.22,80.66-80.02,17.28-38.8,26.5-63.05,19.59-80.02-6.91-16.97,4-54.79-27.96-68.62-31.96-13.83-13.75-42.22-58.58-50.45,0,0,50.52,28.26,60.46,86.4,9.94,58.14,6.67,136.75-40.66,159.88-47.33,23.13-131.33,32.97-131.33,32.97Z"/>
  <path class="cls-1" d="M245.36,86.24s54.16,6.06,55.31,58.2c1.15,52.14,25.35,93.36-8.07,122.46-33.42,29.1-46.09,18.19-59.92,38.8-13.83,20.61-35.72,23.04-50.7,19.4-14.98-3.64-53-3.64-61.07-23.04-8.07-19.4-46.16-9.28-46.16-9.28,0,0,19.14,36.39,58,42.23,38.86,5.84,131.04,5.84,169.06-49.93,38.02-55.77,48.39-113.97,20.74-157.62-27.65-43.65-61.07-53.35-61.07-53.35l-16.13,12.12Z"/>
  <path class="cls-1" d="M199.18,345.92s8.16,10.7,7,34.94c-1.15,24.25-5.76,40.01,6.91,40.01s3.46-27.89,0-43.65c-3.46-15.76,5.76-30.31,12.67-19.4s10.37,18.19,21.89,15.76c11.52-2.42,4.61-35.16,17.28-27.89,12.67,7.27,41.48-8.49,46.09-21.82,4.61-13.34,19.99-19.94,8.84-38.46,0,0-35.23,30.28-66.4,45.28-31.17,15-54.3,15.22-54.3,15.22Z"/>
  <path class="cls-1" d="M28.47,293.26s17.55,25.78,11.79,56.09c-5.76,30.31,11.52,47.29,25.35,35.16,13.83-12.12-9.22-41.22-6.91-50.92,2.3-9.7,26.88-4.86,26.88-4.86l-57.11-35.47Z"/>
</svg>